<?xml version="1.0" encoding="UTF-8"?>
<svg version="1.1" xmlns="http://www.w3.org/2000/svg" width="512" height="512">
<path d="M0 0 C3.15993407 2.52069346 6.08525098 5.20349638 9 8 C10.2662367 9.08870248 11.537116 10.17202778 12.8125 11.25 C16.36041384 14.35087669 19.72335643 17.61549622 23.0625 20.9375 C23.54501221 21.41541992 24.02752441 21.89333984 24.5246582 22.38574219 C31.13777457 29.02673377 37.13939252 36.20669201 42.9375 43.5625 C43.52595703 44.27857422 44.11441406 44.99464844 44.72070312 45.73242188 C47.48870898 49.26556755 48.90803909 51.30463403 49.5078125 55.83984375 C49 59 49 59 46.9375 62 C44 64 44 64 40.5 64.125 C33.88209459 61.99781612 30.53447021 56.21338687 26.3671875 50.9453125 C7.09466647 26.96597115 -18.01217585 0.77091127 -50 -4 C-78.24397354 -5.69350719 -99.55301866 4.901339 -120.62304688 23.06982422 C-132.36234297 33.49933728 -142.69118513 45.37936283 -152 58 C-152.70455322 58.95181152 -152.70455322 58.95181152 -153.42333984 59.92285156 C-177.48424443 92.66238072 -196.1666276 129.24232481 -211 167 C-209.91847656 166.38253906 -208.83695312 165.76507813 -207.72265625 165.12890625 C-174.81833866 146.81310462 -136.33741395 138.22431501 -99 135 C-97.51016602 134.86972412 -97.51016602 134.86972412 -95.99023438 134.73681641 C-84.16795482 133.8237535 -72.35220646 133.75667239 -60.5 133.75 C-59.41829529 133.74932526 -58.33659058 133.74865051 -57.22210693 133.74795532 C-29.9860242 133.77483618 -3.66932395 136.23332737 23 142 C24.0214209 142.22026855 25.0428418 142.44053711 26.09521484 142.66748047 C49.03676062 147.73900215 70.57435146 155.3386345 91 167 C85.38795515 153.2725834 79.55217199 139.67761855 73.125 126.3125 C72.69036438 125.4082428 72.69036438 125.4082428 72.24694824 124.48571777 C67.57340774 114.81411234 62.47304364 105.42092358 56.91064453 96.22973633 C52.04697228 88.01876694 52.04697228 88.01876694 53 83 C55.46040728 79.67121368 56.89610387 78.20698052 61 77.4375 C64.72230416 78.13543203 66.21553543 79.46131134 69 82 C70.6340332 84.40332031 70.6340332 84.40332031 72.05078125 87.078125 C72.58034424 88.06611084 73.10990723 89.05409668 73.65551758 90.07202148 C74.47572388 91.64512085 74.47572388 91.64512085 75.3125 93.25 C76.17234497 94.87047241 76.17234497 94.87047241 77.04956055 96.52368164 C78.71472498 99.67488736 80.36196418 102.83462051 82 106 C82.4125 106.79712402 82.825 107.59424805 83.25 108.41552734 C85.24643399 112.29876971 87.19164256 116.20400684 89.09375 120.13427734 C90.00908689 122.01870745 90.94176878 123.89391004 91.875 125.76953125 C121.5994319 186.33466401 121.5994319 186.33466401 115.6875 208.375 C106.86049048 232.34237684 90.13056536 252.99803184 74.05078125 272.4765625 C71.26212919 275.90793246 68.6082428 279.4302873 66 283 C67.12277344 283.04898437 68.24554688 283.09796875 69.40234375 283.1484375 C92.20184697 284.23582585 92.20184697 284.23582585 100 292 C103.77154888 296.95074282 106.13789073 301.35115483 106.09765625 307.66796875 C106.09443359 308.56064453 106.09121094 309.45332031 106.08789062 310.37304688 C106.07951172 311.30181641 106.07113281 312.23058594 106.0625 313.1875 C106.05798828 314.12787109 106.05347656 315.06824219 106.04882812 316.03710938 C106.03704626 318.35813712 106.02059558 320.67903644 106 323 C106.90758057 323.42756592 106.90758057 323.42756592 107.83349609 323.86376953 C127.43264712 334.14261209 141.10552816 359.64521857 150 379 C150.53923096 380.15532227 150.53923096 380.15532227 151.08935547 381.33398438 C161.70917907 404.27833211 167.99165343 428.28893096 173 453 C173.1846582 453.88171875 173.36931641 454.7634375 173.55957031 455.671875 C177.58624642 475.01223904 177.58624642 475.01223904 173.25 483.375 C170.51947614 486.56061117 167.76813488 489.11593256 164 491 C161.58193183 491.10001342 159.19252863 491.13926207 156.77408218 491.13422108 C155.6387299 491.13774942 155.6387299 491.13774942 154.48044121 491.14134905 C151.91763109 491.14806134 149.35487142 491.14758016 146.79205322 491.14717102 C144.94669191 491.15046826 143.10133133 491.15419353 141.25597167 491.1583125 C136.1641679 491.16835653 131.07237592 491.17205314 125.98056364 491.17470181 C120.49712845 491.17859774 115.01370265 491.18817653 109.53027344 491.19691467 C96.27772047 491.21669894 83.02516672 491.22674765 69.77260268 491.23564246 C63.53718047 491.24002203 57.30175912 491.24538969 51.06633759 491.25063133 C30.34781702 491.26764535 9.62929691 491.28216559 -11.08922958 491.28938007 C-12.42954294 491.28985483 -13.7698563 491.29033072 -15.11016966 491.29080774 C-15.77485559 491.29104411 -16.43954152 491.29128049 -17.12436945 491.29152403 C-20.49209266 491.29272525 -23.85981586 491.29394069 -27.22753906 491.29516602 C-28.23004786 491.29552624 -28.23004786 491.29552624 -29.25280936 491.29589374 C-50.92634141 491.30378825 -72.59981876 491.32722262 -94.27332691 491.35972196 C-117.17889795 491.39400617 -140.0844469 491.41372875 -162.99004579 491.41702431 C-175.47972419 491.41919261 -187.96932221 491.4279879 -200.45897675 491.45348549 C-211.09337281 491.47514497 -221.72766898 491.48326637 -232.3620846 491.47351871 C-237.79063421 491.46896024 -243.2189775 491.47094983 -248.64749908 491.49028015 C-253.61438666 491.50781436 -258.5809159 491.50699374 -263.54780677 491.49138286 C-265.3473078 491.48899191 -267.14683301 491.49340674 -268.9462969 491.50521151 C-271.38820943 491.52024211 -273.8288377 491.51072022 -276.27071762 491.49498463 C-276.9731306 491.50520683 -277.67554358 491.51542904 -278.39924181 491.52596101 C-283.3711412 491.45579733 -286.14747141 490.06965016 -290 487 C-293.25435495 483.56484755 -295.06949989 480.65250055 -296 476 C-295.76492083 467.60734706 -294.31976322 459.40275495 -292.6875 451.1875 C-292.46457275 450.05546143 -292.24164551 448.92342285 -292.01196289 447.75708008 C-287.0790961 423.13501276 -287.0790961 423.13501276 -282 418 C-279.22555277 417.07879682 -276.8239958 417.3069949 -274 418 C-271.4375 419.875 -271.4375 419.875 -270 423 C-269.98326344 429.93929747 -271.73431668 436.74021493 -273.375 443.4375 C-275.77870452 453.57951495 -277.49264557 463.68652233 -279 474 C-268.77 474.33 -258.54 474.66 -248 475 C-248 471.37 -248 467.74 -248 464 C-245.28985652 457.70290191 -243.05509672 454.1591809 -237 451 C-234 450 -234 450 -226 450 C-226.33 415.35 -226.66 380.7 -227 345 C-238.34389822 358.40642517 -246.63273123 370.78101643 -254.140625 386.2421875 C-255.30371291 388.62123095 -256.5053972 390.97507523 -257.75 393.3125 C-258.26820313 394.29669922 -258.26820313 394.29669922 -258.796875 395.30078125 C-260.29641688 397.41864073 -261.78241065 398.65613253 -264 400 C-267.45687503 399.87870614 -269.96367732 399.69088179 -272.875 397.75 C-274.37321613 395.41944158 -274.71852202 393.77236527 -275 391 C-270.67689541 375.29206793 -261.10246622 359.60474066 -251 347 C-250.59700684 346.49162598 -250.19401367 345.98325195 -249.77880859 345.45947266 C-244.71790595 339.11573874 -239.40422375 333.195245 -233.4375 327.6875 C-232.92477539 327.213125 -232.41205078 326.73875 -231.88378906 326.25 C-228.26047825 323 -228.26047825 323 -226 323 C-226.02618408 322.44650879 -226.05236816 321.89301758 -226.0793457 321.32275391 C-226.97486711 299.53551148 -226.97486711 299.53551148 -219.54296875 291.40625 C-212.04571124 284.60135136 -203.71946036 283.93348481 -194.125 283.4375 C-193.34125 283.39431641 -192.5575 283.35113281 -191.75 283.30664062 C-189.83349351 283.20146649 -187.91676667 283.10032075 -186 283 C-186.5576001 282.32964722 -186.5576001 282.32964722 -187.12646484 281.64575195 C-238.34646013 219.98445409 -238.34646013 219.98445409 -236.79296875 195.7734375 C-231.71677918 167.28127667 -219.39486831 139.69596082 -206.12792969 114.17773438 C-204.81399958 111.6408823 -203.52101756 109.09371752 -202.2265625 106.546875 C-190.01565052 82.662363 -175.89594467 59.88233162 -159 39 C-158.34644531 38.19199951 -158.34644531 38.19199951 -157.6796875 37.36767578 C-138.52388038 13.88128798 -116.66259563 -6.07581929 -88 -17 C-86.85402344 -17.43699219 -85.70804688 -17.87398437 -84.52734375 -18.32421875 C-54.94037783 -27.83074106 -24.28929787 -17.34850395 0 0 Z M-79 150 C-79 150.33 -79 150.66 -79 151 C-77.3603125 151.4640625 -77.3603125 151.4640625 -75.6875 151.9375 C-69.10923695 153.83293173 -69.10923695 153.83293173 -67.9375 155.625 C-66.72635249 158.69324037 -65.85701913 161.81678608 -65 165 C-61.7 165 -58.4 165 -55 165 C-54.525625 163.741875 -54.05125 162.48375 -53.5625 161.1875 C-53.29566406 160.47980469 -53.02882813 159.77210938 -52.75390625 159.04296875 C-52.13774814 157.37327604 -51.56280765 155.68842296 -51 154 C-48.71484375 153.05078125 -48.71484375 153.05078125 -45.9375 152.3125 C-45.01839844 152.06113281 -44.09929687 151.80976563 -43.15234375 151.55078125 C-42.44207031 151.36902344 -41.73179687 151.18726563 -41 151 C-41 150.67 -41 150.34 -41 150 C-53.54 150 -66.08 150 -79 150 Z M22 159 C22.33 161.31 22.66 163.62 23 166 C26.96 166 30.92 166 35 166 C35 164.68 35 163.36 35 162 C33.39743892 161.49487756 31.79288208 160.99608373 30.1875 160.5 C29.29417969 160.2215625 28.40085937 159.943125 27.48046875 159.65625 C24.94426605 158.87211649 24.94426605 158.87211649 22 159 Z M-150.1875 160.5 C-151.53908203 160.91765625 -151.53908203 160.91765625 -152.91796875 161.34375 C-153.60503906 161.5603125 -154.29210937 161.776875 -155 162 C-155 163.32 -155 164.64 -155 166 C-151.04 166 -147.08 166 -143 166 C-142.67 163.69 -142.34 161.38 -142 159 C-145.09875672 159 -147.24421515 159.58261252 -150.1875 160.5 Z M-177.625 169 C-178.85089844 169.556875 -178.85089844 169.556875 -180.1015625 170.125 C-180.72804688 170.41375 -181.35453125 170.7025 -182 171 C-182.72492513 178.95811382 -182.72492513 178.95811382 -180 186.1875 C-176.4295568 188.62239592 -176.4295568 188.62239592 -169 189 C-169.66 181.74 -170.32 174.48 -171 167 C-173.60526888 167 -175.26036729 167.91902505 -177.625 169 Z M-127 167 C-127 173.6 -127 180.2 -127 187 C-121.25126839 187.11492356 -115.50653444 187.21441671 -109.75756836 187.2746582 C-107.80300377 187.29977281 -105.84853283 187.33387131 -103.89428711 187.37719727 C-101.08163332 187.43798434 -98.27022298 187.46623983 -95.45703125 187.48828125 C-94.58601273 187.51408768 -93.7149942 187.5398941 -92.81758118 187.56648254 C-91.997108 187.5668602 -91.17663483 187.56723785 -90.33129883 187.56762695 C-89.25541252 187.58428154 -89.25541252 187.58428154 -88.15779114 187.60127258 C-85.12872584 186.94764383 -85.12872584 186.94764383 -81 182 C-81 177.05 -81 172.1 -81 167 C-96.18 167 -111.36 167 -127 167 Z M-39 167 C-39 171.95 -39 176.9 -39 182 C-34.87127416 186.94764383 -34.87127416 186.94764383 -31.84220886 187.60127258 C-31.12495132 187.59016953 -30.40769379 187.57906647 -29.66870117 187.56762695 C-28.848228 187.5672493 -28.02775482 187.56687164 -27.18241882 187.56648254 C-26.3114003 187.54067612 -25.44038177 187.51486969 -24.54296875 187.48828125 C-23.18852409 187.47766914 -23.18852409 187.47766914 -21.80671692 187.46684265 C-18.93278912 187.43893319 -16.06083528 187.37620232 -13.1875 187.3125 C-11.23505425 187.28741262 -9.28257785 187.26460022 -7.33007812 187.24414062 C-2.55201987 187.19337503 2.22179048 187.09552174 7 187 C7 180.4 7 173.8 7 167 C-8.18 167 -23.36 167 -39 167 Z M51 167 C50.34 174.26 49.68 181.52 49 189 C56.4295568 188.62239592 56.4295568 188.62239592 60 186.1875 C63.0488138 181.32845301 62.40103646 176.58777464 62 171 C60.5437455 170.32880451 59.08492133 169.66318193 57.625 169 C56.81289063 168.62875 56.00078125 168.2575 55.1640625 167.875 C53.08001567 166.87504987 53.08001567 166.87504987 51 167 Z M78 179 C77.92523438 179.61746094 77.85046875 180.23492187 77.7734375 180.87109375 C76.5857895 188.52094413 74.0851909 194.42872437 68.16796875 199.6015625 C63.15505729 202.87960403 58.49806985 203.34658274 52.6875 203.8125 C47.6239952 204.12217923 47.6239952 204.12217923 43.29296875 206.47265625 C42.25988041 208.61356699 41.64146556 210.71113425 41 213 C29.75671398 238.59326949 10.20696514 255.85805295 -14 269 C-13.93927992 270.56354206 -13.8503009 272.12599738 -13.75 273.6875 C-13.70359375 274.55761719 -13.6571875 275.42773438 -13.609375 276.32421875 C-12.76353303 280.03833255 -11.87508387 281.42978163 -9 284 C-5.22696021 284.85186117 -1.47806443 284.86796797 2.37890625 284.91015625 C3.50135239 284.9315416 4.62379852 284.95292694 5.78025818 284.97496033 C8.15811823 285.00904127 10.53621335 285.02915066 12.91430664 285.03637695 C16.52834277 285.06225542 20.13217998 285.17856937 23.74414062 285.29882812 C35.97487347 285.95485964 35.97487347 285.95485964 46.91381836 281.49291992 C49.82130388 278.64411244 51.89183108 275.46858153 54 272 C54.99957105 270.74812159 56.0152538 269.50860997 57.05859375 268.29296875 C57.84363281 267.26816406 58.62867188 266.24335938 59.4375 265.1875 C60.35320768 263.99795907 61.26991008 262.80918336 62.1875 261.62109375 C62.64769531 261.02409668 63.10789062 260.42709961 63.58203125 259.81201172 C65.00847297 257.98917245 66.46593367 256.19671154 67.9375 254.41015625 C89.91090383 229.09768896 89.91090383 229.09768896 100.6640625 199.20703125 C98.10773835 190.71101277 88.28256091 184.2985513 81 180 C80.01 179.67 79.02 179.34 78 179 Z M-214.5625 190.25 C-217.77452582 193.58890418 -219.87585343 195.85932654 -220.39453125 200.625 C-220.25044791 205.76045834 -218.15455407 209.58902621 -215.6875 214 C-215.23673096 214.82741699 -214.78596191 215.65483398 -214.3215332 216.50732422 C-204.57626238 234.04780305 -191.87446425 249.79531531 -179.3125 265.375 C-178.82668457 265.98021484 -178.34086914 266.58542969 -177.84033203 267.20898438 C-176.83016771 268.44990028 -175.79346573 269.6695531 -174.73510742 270.86962891 C-173 273 -173 273 -171.2746582 275.89208984 C-168.24327386 280.30907701 -165.73503462 283.36908272 -160.45333862 284.58746338 C-153.9917048 285.34419139 -147.5400111 285.218155 -141.0480957 284.99462891 C-137.54714447 284.87447298 -134.05160964 284.83067139 -130.54882812 284.80078125 C-128.32544573 284.76479069 -126.10212679 284.7245768 -123.87890625 284.6796875 C-122.83207169 284.66066376 -121.78523712 284.64164001 -120.7066803 284.62203979 C-119.73814621 284.58676178 -118.76961212 284.55148376 -117.77172852 284.51513672 C-116.92030777 284.4886203 -116.06888702 284.46210388 -115.19166565 284.43478394 C-112.54121721 283.9089864 -111.65978554 283.09110342 -110 281 C-108.61773984 278.23547967 -108.90474613 275.9538637 -108.9375 272.875 C-108.94652344 271.77929688 -108.95554687 270.68359375 -108.96484375 269.5546875 C-108.97644531 268.71164062 -108.98804688 267.86859375 -109 267 C-109.65484375 266.67128906 -110.3096875 266.34257812 -110.984375 266.00390625 C-118.59126552 262.03929806 -125.29655992 257.33827321 -132 252 C-132.7321875 251.42378906 -133.464375 250.84757812 -134.21875 250.25390625 C-147.2006633 239.51291846 -157.45497516 223.58270301 -163.1640625 207.77734375 C-164.78494984 204.63586997 -164.78494984 204.63586997 -168.44140625 204.1875 C-169.8140832 204.10558407 -171.18808754 204.04407506 -172.5625 204 C-180.72811621 203.34748593 -186.96418803 201.4671933 -192.64453125 195.1796875 C-196.11714997 190.23595941 -197.18867587 184.90934589 -198 179 C-203.40474908 179 -210.94036612 186.65449946 -214.5625 190.25 Z M-65 181 C-65.4125 182.36125 -65.825 183.7225 -66.25 185.125 C-68.71097561 192.39399277 -72.20839239 197.37526113 -79 201 C-87.67096978 204.02908006 -97.41023236 203.30323187 -106.4597168 203.26074219 C-109.19146716 203.24998438 -111.92256601 203.26070102 -114.65429688 203.2734375 C-116.4088556 203.27211645 -118.16341393 203.2695552 -119.91796875 203.265625 C-121.12914619 203.27169769 -121.12914619 203.27169769 -122.36479187 203.27789307 C-128.46546472 203.22781575 -133.80094612 202.66150738 -138.8125 198.875 C-141.51824023 195.31888427 -142.27254532 192.33935177 -143 188 C-143.20625 186.845 -143.4125 185.69 -143.625 184.5 C-143.74875 183.675 -143.8725 182.85 -144 182 C-147.3 182 -150.6 182 -154 182 C-151.74756885 202.8544056 -141.49644164 220.37256641 -127 235 C-126.3709375 235.67804688 -125.741875 236.35609375 -125.09375 237.0546875 C-109.69638137 253.3962344 -86.21074765 261.926564 -64.22265625 263.22265625 C-39.0702111 263.79149228 -14.59407355 255.76754532 3.78735352 238.21679688 C5.20362643 236.8233477 6.60200105 235.41178204 8 234 C8.87398437 233.14792969 9.74796875 232.29585937 10.6484375 231.41796875 C23.38122295 218.35217198 32.21142453 200.21095021 34 182 C30.7 182 27.4 182 24 182 C23.89042969 182.80824219 23.78085937 183.61648437 23.66796875 184.44921875 C23.50941406 185.51785156 23.35085938 186.58648437 23.1875 187.6875 C22.96126953 189.27111328 22.96126953 189.27111328 22.73046875 190.88671875 C21.70821707 195.2435882 20.24253452 198.08444825 16.625 200.75 C11.27073814 203.29964851 5.92632616 203.16005838 0.11328125 203.16796875 C-0.74376907 203.17129715 -1.6008194 203.17462555 -2.48384094 203.17805481 C-4.29513006 203.18310689 -6.10642845 203.18546367 -7.91772461 203.18530273 C-10.66080484 203.18747882 -13.40347576 203.20562406 -16.14648438 203.22460938 C-39.42199767 203.30253026 -39.42199767 203.30253026 -47.2421875 196.84375 C-51.57374987 192.30042236 -53.97330597 187.14935689 -55 181 C-58.3 181 -61.6 181 -65 181 Z M-93 274 C-93.33 277.3 -93.66 280.6 -94 284 C-72.22 284 -50.44 284 -28 284 C-28.99 279.545 -28.99 279.545 -30 275 C-31.21171875 275.2165625 -32.4234375 275.433125 -33.671875 275.65625 C-52.33886863 278.8282467 -69.44773448 278.75717444 -88 275 C-88.99128906 274.80277344 -89.98257813 274.60554688 -91.00390625 274.40234375 C-91.99197266 274.20318359 -91.99197266 274.20318359 -93 274 Z M-208 303 C-235.18282515 343.77423772 -210 400.99546506 -210 450 C-111 450 -12 450 90 450 C90 402.48 90 354.96 90 306 C84.48307713 300.48307713 83.28496947 299.87905817 76.12326336 299.86857224 C75.1372985 299.86473109 74.15133365 299.86088995 73.13549107 299.8569324 C71.51425925 299.85823213 71.51425925 299.85823213 69.86027527 299.85955811 C68.71023476 299.85658698 67.56019426 299.85361586 66.37530404 299.8505547 C63.1826033 299.84337579 59.98993533 299.84069549 56.79722774 299.83995724 C53.35404475 299.83810558 49.9108734 299.83055772 46.46769714 299.82382202 C38.93878011 299.81024314 31.4098684 299.80421479 23.88094115 299.79981136 C19.17987121 299.79704841 14.47880331 299.79281098 9.77773476 299.78830719 C-3.23835655 299.77611552 -16.25444621 299.76581573 -29.2705431 299.7624321 C-30.10350805 299.76221253 -30.93647301 299.76199297 -31.79467933 299.76176675 C-33.0471114 299.76143933 -33.0471114 299.76143933 -34.32484514 299.7611053 C-36.01677501 299.76066183 -37.70870489 299.76021527 -39.40063477 299.75976562 C-40.23988995 299.7595442 -41.07914514 299.75932277 -41.9438323 299.75909463 C-55.54444546 299.75514614 -69.14500505 299.73769011 -82.74559752 299.7144061 C-96.70932333 299.69069336 -110.67302225 299.6782303 -124.63676852 299.67706418 C-132.47684216 299.67614742 -140.31684599 299.67039482 -148.15690041 299.65224457 C-154.83243403 299.63684467 -161.50787626 299.63172247 -168.18342427 299.63998267 C-171.58886124 299.64388948 -174.99411418 299.64295824 -178.3995285 299.62892532 C-182.09295296 299.61626345 -185.78590349 299.6220518 -189.47932434 299.63250732 C-190.55345339 299.62445092 -191.62758244 299.61639452 -192.73426086 299.60809398 C-198.58250243 299.64687387 -202.8812508 300.06697273 -208 303 Z M106 344 C106 378.98 106 413.96 106 450 C109.63 450.66 113.26 451.32 117 452 C118.32 452.99 119.64 453.98 121 455 C121.66 455 122.32 455 123 455 C123.28875 455.7425 123.5775 456.485 123.875 457.25 C124.81379336 459.5448282 125.89116553 461.78233105 127 464 C127.33 467.63 127.66 471.26 128 475 C138.23 475 148.46 475 159 475 C165.52998164 461.94003672 150.28679633 425.76309172 145.8671875 412.484375 C138.10049834 389.88788623 128.50215973 369.33553766 113 351 C112.40703125 350.28457031 111.8140625 349.56914062 111.203125 348.83203125 C109.83167338 347.19608539 108.42040609 345.59362635 107 344 C106.67 344 106.34 344 106 344 Z M-232 468 C-231.67 470.31 -231.34 472.62 -231 475 C-118.14 475 -5.28 475 111 475 C111.33 472.69 111.66 470.38 112 468 C109.35080597 465.35080597 108.14913722 465.74948287 104.44958496 465.74831772 C103.26248177 465.74310222 102.07537857 465.73788673 100.85230255 465.73251319 C99.53657005 465.73697463 98.22083755 465.74143608 96.86523438 465.74603271 C95.46249988 465.74373029 94.05976658 465.74055524 92.65703583 465.73657823 C88.78884813 465.72819153 84.9207585 465.73237296 81.05257034 465.73855066 C76.88619557 465.74305839 72.71983817 465.73609977 68.5534668 465.73059082 C60.3861844 465.72167715 52.21893867 465.72362759 44.05165482 465.7294161 C37.41651355 465.73392485 30.78138259 465.73454892 24.14624023 465.73236847 C23.20346584 465.732062 22.26069144 465.73175554 21.28934813 465.73143978 C19.37438265 465.73080036 17.45941718 465.73015194 15.54445171 465.7294946 C-2.43067673 465.72378553 -20.40578481 465.73035824 -38.38090992 465.74109533 C-53.81905432 465.75003137 -69.25716864 465.74847949 -84.6953125 465.73925781 C-102.60419968 465.72856536 -120.51306899 465.7243349 -138.42195892 465.73048234 C-140.33005269 465.73111947 -142.23814646 465.73174821 -144.14624023 465.73236847 C-145.55462937 465.7328313 -145.55462937 465.7328313 -146.99147081 465.73330347 C-153.62200377 465.73503349 -160.25252543 465.73210871 -166.88305664 465.72740936 C-174.95863644 465.7218119 -183.03417734 465.72329298 -191.10975266 465.73397085 C-195.23347872 465.73924292 -199.35713983 465.74125836 -203.48086548 465.73467255 C-207.25086427 465.72874252 -211.02073747 465.731939 -214.79072475 465.74262765 C-216.81125078 465.74594411 -218.83178542 465.73936445 -220.85230255 465.73251319 C-222.03940575 465.73772868 -223.22650894 465.74294418 -224.44958496 465.74831772 C-225.48058067 465.74864242 -226.51157639 465.74896713 -227.57381439 465.74930167 C-230.18145676 465.76100125 -230.18145676 465.76100125 -232 468 Z " fill="#000000" transform="translate(316,21)"/>
<path d="M0 0 C5.75433544 4.67909001 10.08117861 11.80529597 11.5 19.12109375 C12.27813953 28.47497939 10.92712889 36.51555667 5.6875 44.375 C3.1875 47.25 3.1875 47.25 0.6875 49.375 C-0.4571875 50.426875 -0.4571875 50.426875 -1.625 51.5 C-8.64238644 56.39585101 -16.95445761 58.19358981 -25.40625 56.90234375 C-35.38512099 54.64227767 -42.21253059 50.15390229 -48 41.625 C-52.70647995 33.66704022 -53.13663318 25.35534794 -51.3125 16.375 C-49.98243904 12.8017019 -48.31286072 9.61510524 -46.3125 6.375 C-45.755625 5.4675 -45.19875 4.56 -44.625 3.625 C-31.78303772 -8.86988222 -14.65719801 -9.82730229 0 0 Z M-33.75 16.125 C-36.32324289 21.47734521 -36.90447662 25.3204929 -35.25 31.0625 C-32.72228339 35.38408001 -29.85224732 38.10512634 -25.3125 40.375 C-20.35767906 40.91860446 -16.44124148 40.93937074 -11.9375 38.6875 C-7.35325223 34.64899602 -4.70563106 31.78207538 -4.21484375 25.42578125 C-4.44666146 20.55760942 -6.62448089 17.18975947 -9.6875 13.5625 C-13.14378977 10.68225852 -15.68993926 9.59134143 -20.125 9 C-25.83974344 9.67232276 -29.93657354 11.82267271 -33.75 16.125 Z " fill="#000000" transform="translate(276.3125,377.625)"/>
</svg>
