<svg xmlns="http://www.w3.org/2000/svg" xmlns:xlink="http://www.w3.org/1999/xlink" width="500" zoomAndPan="magnify" viewBox="0 0 375 374.999991" height="500" preserveAspectRatio="xMidYMid meet" version="1.0"><defs><g/><clipPath id="58a8dd41ca"><path d="M 181 93 L 283.199219 93 L 283.199219 234 L 181 234 Z M 181 93 " clip-rule="nonzero"/></clipPath><clipPath id="f7cb80f5a9"><path d="M 85.949219 161 L 88 161 L 88 164 L 85.949219 164 Z M 85.949219 161 " clip-rule="nonzero"/></clipPath></defs><path fill="#cba95c" d="M 209.265625 259.648438 C 163.023438 268.464844 118.375 238.148438 109.558594 191.90625 C 103.230469 158.789062 116.988281 126.507812 142.304688 107.605469 C 142.507812 107.636719 142.679688 107.695312 142.851562 107.75 C 142.621094 109.398438 141.695312 111.507812 140.222656 114.570312 C 142.101562 111.710938 143.402344 109.832031 144.675781 108.761719 C 146.726562 110.554688 147.96875 114.253906 150.019531 120.785156 C 148.375 114.136719 147.476562 110.324219 148.316406 107.722656 C 149.960938 107.953125 152.074219 108.878906 155.136719 110.351562 C 152.273438 108.472656 150.394531 107.171875 149.328125 105.902344 C 151.117188 103.851562 154.816406 102.605469 161.347656 100.554688 C 154.703125 102.203125 150.886719 103.097656 148.285156 102.261719 C 148.519531 100.613281 149.441406 98.503906 150.917969 95.441406 C 149.039062 98.300781 147.738281 100.179688 146.464844 101.25 C 144.414062 99.457031 143.171875 95.757812 141.121094 89.226562 C 142.765625 95.875 143.664062 99.6875 142.824219 102.289062 C 141.175781 102.058594 139.066406 101.132812 136.003906 99.660156 C 138.863281 101.539062 140.742188 102.839844 141.8125 104.109375 C 140.019531 106.160156 136.320312 107.40625 129.789062 109.457031 C 135.308594 108.097656 138.863281 107.261719 141.410156 107.460938 C 137.042969 110.148438 133 113.242188 129.242188 116.625 C 128.171875 116.449219 128.113281 115.929688 128.054688 114.023438 C 128 116.625 127.941406 116.679688 125.367188 116.769531 C 127.21875 116.796875 127.765625 116.855469 127.96875 117.808594 C 107.449219 137.113281 96.960938 166.160156 102.625 195.867188 C 111.4375 242.105469 156.089844 272.453125 202.328125 263.609375 C 213.339844 261.5 223.425781 257.367188 232.328125 251.703125 C 225.21875 255.371094 217.5 258.089844 209.265625 259.648438 Z M 128.921875 116.882812 C 128.691406 117.085938 128.460938 117.289062 128.257812 117.519531 C 128.375 117.171875 128.578125 117 128.921875 116.882812 Z M 128.921875 116.882812 " fill-opacity="1" fill-rule="nonzero"/><path fill="#cba95c" d="M 238.195312 240.171875 C 238.164062 242.367188 238.109375 242.425781 235.910156 242.511719 C 238.109375 242.539062 238.164062 242.597656 238.25 244.796875 C 238.28125 242.597656 238.339844 242.539062 240.535156 242.453125 C 238.308594 242.425781 238.25 242.367188 238.195312 240.171875 Z M 238.195312 240.171875 " fill-opacity="1" fill-rule="nonzero"/><path fill="#cba95c" d="M 116.4375 148.730469 C 116.46875 146.535156 116.523438 146.476562 118.722656 146.390625 C 116.523438 146.363281 116.46875 146.304688 116.382812 144.109375 C 116.351562 146.304688 116.292969 146.363281 114.097656 146.449219 C 116.324219 146.476562 116.351562 146.535156 116.4375 148.730469 Z M 116.4375 148.730469 " fill-opacity="1" fill-rule="nonzero"/><path fill="#cba95c" d="M 108.230469 134.308594 C 108.289062 130.699219 108.375 130.609375 111.988281 130.464844 C 108.375 130.410156 108.289062 130.324219 108.144531 126.710938 C 108.085938 130.324219 108 130.410156 104.386719 130.554688 C 108 130.582031 108.085938 130.667969 108.230469 134.308594 Z M 108.230469 134.308594 " fill-opacity="1" fill-rule="nonzero"/><path fill="#cba95c" d="M 273.914062 182.34375 C 276.109375 182.398438 276.167969 182.457031 276.226562 184.652344 C 276.285156 182.457031 276.34375 182.398438 278.539062 182.34375 C 276.34375 182.285156 276.285156 182.226562 276.226562 180.03125 C 276.167969 182.226562 276.109375 182.285156 273.914062 182.34375 Z M 273.914062 182.34375 " fill-opacity="1" fill-rule="nonzero"/><path fill="#cba95c" d="M 231.691406 237.050781 C 231.632812 239.652344 231.574219 239.707031 229.003906 239.796875 C 231.605469 239.851562 231.664062 239.910156 231.75 242.484375 C 231.808594 239.882812 231.863281 239.824219 234.4375 239.738281 C 231.835938 239.679688 231.777344 239.621094 231.691406 237.050781 Z M 231.691406 237.050781 " fill-opacity="1" fill-rule="nonzero"/><path fill="#cba95c" d="M 96.730469 196.273438 C 96.785156 193.671875 96.84375 193.613281 99.417969 193.527344 C 96.816406 193.46875 96.757812 193.410156 96.671875 190.839844 C 96.613281 193.441406 96.554688 193.496094 93.984375 193.585938 C 96.554688 193.640625 96.613281 193.699219 96.730469 196.273438 Z M 96.730469 196.273438 " fill-opacity="1" fill-rule="nonzero"/><path fill="#cba95c" d="M 249.78125 229.59375 C 249.726562 232.917969 249.636719 232.976562 246.34375 233.121094 C 249.667969 233.175781 249.726562 233.265625 249.871094 236.558594 C 249.925781 233.234375 250.015625 233.175781 253.308594 233.03125 C 249.957031 232.976562 249.898438 232.886719 249.78125 229.59375 Z M 249.78125 229.59375 " fill-opacity="1" fill-rule="nonzero"/><path fill="#cba95c" d="M 102.882812 150.4375 C 102.941406 147.113281 103.027344 147.054688 106.324219 146.910156 C 103 146.851562 102.941406 146.765625 102.796875 143.472656 C 102.738281 146.796875 102.652344 146.851562 99.359375 146.996094 C 102.683594 147.054688 102.769531 147.140625 102.882812 150.4375 Z M 102.882812 150.4375 " fill-opacity="1" fill-rule="nonzero"/><path fill="#cba95c" d="M 242.558594 233.898438 C 242.183594 235.894531 241.894531 236.183594 239.898438 236.558594 C 241.894531 236.933594 242.183594 237.222656 242.558594 239.21875 C 242.933594 237.222656 243.222656 236.933594 245.21875 236.558594 C 243.222656 236.183594 242.933594 235.894531 242.558594 233.898438 Z M 242.558594 233.898438 " fill-opacity="1" fill-rule="nonzero"/><path fill="#cba95c" d="M 142.59375 241.296875 C 142.96875 239.304688 143.257812 239.015625 145.25 238.640625 C 143.257812 238.261719 142.96875 237.972656 142.59375 235.980469 C 142.21875 237.972656 141.929688 238.261719 139.933594 238.640625 C 141.929688 238.984375 142.246094 239.304688 142.59375 241.296875 Z M 142.59375 241.296875 " fill-opacity="1" fill-rule="nonzero"/><path fill="#cba95c" d="M 116.988281 206.589844 C 117.363281 204.59375 117.652344 204.304688 119.648438 203.929688 C 117.652344 203.554688 117.363281 203.265625 116.988281 201.273438 C 116.613281 203.265625 116.324219 203.554688 114.328125 203.929688 C 116.324219 204.304688 116.640625 204.59375 116.988281 206.589844 Z M 116.988281 206.589844 " fill-opacity="1" fill-rule="nonzero"/><path fill="#cba95c" d="M 123.257812 131.132812 C 122.882812 133.125 122.59375 133.414062 120.601562 133.789062 C 122.59375 134.164062 122.882812 134.453125 123.257812 136.449219 C 123.632812 134.453125 123.921875 134.164062 125.917969 133.789062 C 123.921875 133.414062 123.632812 133.125 123.257812 131.132812 Z M 123.257812 131.132812 " fill-opacity="1" fill-rule="nonzero"/><path fill="#cba95c" d="M 218.398438 87.492188 C 218.773438 85.5 219.0625 85.210938 221.054688 84.832031 C 219.0625 84.457031 218.773438 84.167969 218.398438 82.175781 C 218.023438 84.167969 217.734375 84.457031 215.738281 84.832031 C 217.734375 85.210938 218.023438 85.5 218.398438 87.492188 Z M 218.398438 87.492188 " fill-opacity="1" fill-rule="nonzero"/><path fill="#cba95c" d="M 266.976562 179.800781 C 264.984375 179.421875 264.695312 179.132812 264.320312 177.140625 C 263.945312 179.132812 263.65625 179.421875 261.660156 179.800781 C 263.65625 180.175781 263.945312 180.464844 264.320312 182.457031 C 264.667969 180.464844 264.984375 180.175781 266.976562 179.800781 Z M 266.976562 179.800781 " fill-opacity="1" fill-rule="nonzero"/><path fill="#cba95c" d="M 160.683594 265.082031 C 160.308594 267.078125 160.019531 267.367188 158.027344 267.742188 C 160.019531 268.117188 160.308594 268.40625 160.683594 270.398438 C 161.058594 268.40625 161.347656 268.117188 163.34375 267.742188 C 161.347656 267.367188 161.058594 267.078125 160.683594 265.082031 Z M 160.683594 265.082031 " fill-opacity="1" fill-rule="nonzero"/><path fill="#cba95c" d="M 282.410156 167.660156 C 280.417969 167.285156 280.128906 166.996094 279.753906 165.003906 C 279.375 166.996094 279.085938 167.285156 277.09375 167.660156 C 279.085938 168.035156 279.375 168.324219 279.753906 170.320312 C 280.128906 168.324219 280.417969 168.035156 282.410156 167.660156 Z M 282.410156 167.660156 " fill-opacity="1" fill-rule="nonzero"/><path fill="#cba95c" d="M 143.34375 227.339844 C 141.351562 226.964844 141.0625 226.675781 140.6875 224.679688 C 140.308594 226.675781 140.019531 226.964844 138.027344 227.339844 C 140.019531 227.714844 140.308594 228.003906 140.6875 230 C 141.0625 228.003906 141.351562 227.714844 143.34375 227.339844 Z M 143.34375 227.339844 " fill-opacity="1" fill-rule="nonzero"/><path fill="#cba95c" d="M 132.96875 219.101562 C 130.976562 218.726562 130.6875 218.4375 130.3125 216.445312 C 129.933594 218.4375 129.644531 218.726562 127.652344 219.101562 C 129.644531 219.480469 129.933594 219.769531 130.3125 221.761719 C 130.6875 219.769531 130.976562 219.480469 132.96875 219.101562 Z M 132.96875 219.101562 " fill-opacity="1" fill-rule="nonzero"/><path fill="#cba95c" d="M 97.507812 199.59375 C 97.132812 201.589844 96.84375 201.878906 94.851562 202.253906 C 96.84375 202.628906 97.132812 202.917969 97.507812 204.914062 C 97.886719 202.917969 98.175781 202.628906 100.167969 202.253906 C 98.175781 201.90625 97.886719 201.589844 97.507812 199.59375 Z M 97.507812 199.59375 " fill-opacity="1" fill-rule="nonzero"/><path fill="#cba95c" d="M 128.054688 111.914062 C 128.257812 110.757812 128.433594 110.582031 129.589844 110.382812 C 128.433594 110.179688 128.257812 110.003906 128.054688 108.851562 C 127.855469 110.003906 127.679688 110.179688 126.523438 110.382812 C 127.679688 110.582031 127.855469 110.757812 128.054688 111.914062 Z M 128.054688 111.914062 " fill-opacity="1" fill-rule="nonzero"/><path fill="#cba95c" d="M 116.121094 122.894531 C 116.324219 121.738281 116.496094 121.566406 117.652344 121.363281 C 116.496094 121.160156 116.324219 120.988281 116.121094 119.832031 C 115.917969 120.988281 115.746094 121.160156 114.589844 121.363281 C 115.746094 121.59375 115.917969 121.769531 116.121094 122.894531 Z M 116.121094 122.894531 " fill-opacity="1" fill-rule="nonzero"/><path fill="#cba95c" d="M 265.273438 189.683594 C 265.535156 188.238281 265.734375 188.035156 267.152344 187.773438 C 265.734375 187.515625 265.535156 187.285156 265.273438 185.867188 C 265.011719 187.3125 264.8125 187.515625 263.394531 187.773438 C 264.8125 188.035156 265.011719 188.238281 265.273438 189.683594 Z M 265.273438 189.683594 " fill-opacity="1" fill-rule="nonzero"/><path fill="#cba95c" d="M 127.96875 245.632812 C 127.652344 247.367188 127.390625 247.628906 125.65625 247.945312 C 127.390625 248.261719 127.652344 248.523438 127.96875 250.257812 C 128.289062 248.523438 128.546875 248.261719 130.28125 247.945312 C 128.546875 247.628906 128.289062 247.367188 127.96875 245.632812 Z M 127.96875 245.632812 " fill-opacity="1" fill-rule="nonzero"/><path fill="#cba95c" d="M 125.390625 212.425781 C 125.558594 212.683594 125.671875 212.960938 125.730469 213.261719 C 125.789062 213.5625 125.789062 213.863281 125.726562 214.164062 C 125.664062 214.464844 125.546875 214.742188 125.375 214.996094 C 125.203125 215.25 124.988281 215.460938 124.734375 215.628906 C 124.476562 215.796875 124.199219 215.910156 123.898438 215.96875 C 123.597656 216.027344 123.296875 216.023438 122.996094 215.964844 C 122.695312 215.902344 122.417969 215.785156 122.164062 215.613281 C 121.910156 215.441406 121.699219 215.226562 121.53125 214.972656 C 121.363281 214.714844 121.25 214.4375 121.191406 214.136719 C 121.132812 213.835938 121.132812 213.535156 121.195312 213.234375 C 121.257812 212.933594 121.375 212.65625 121.546875 212.402344 C 121.71875 212.148438 121.933594 211.9375 122.1875 211.769531 C 122.445312 211.601562 122.722656 211.488281 123.023438 211.429688 C 123.324219 211.371094 123.625 211.371094 123.925781 211.433594 C 124.226562 211.496094 124.503906 211.613281 124.757812 211.785156 C 125.011719 211.957031 125.222656 212.171875 125.390625 212.425781 Z M 125.390625 212.425781 " fill-opacity="1" fill-rule="nonzero"/><path fill="#cba95c" d="M 259.175781 199.914062 C 259.378906 198.757812 259.550781 198.582031 260.707031 198.382812 C 259.550781 198.179688 259.378906 198.007812 259.175781 196.851562 C 258.972656 198.007812 258.800781 198.179688 257.644531 198.382812 C 258.800781 198.582031 258.972656 198.757812 259.175781 199.914062 Z M 259.175781 199.914062 " fill-opacity="1" fill-rule="nonzero"/><path fill="#cba95c" d="M 124.269531 151.679688 C 124.300781 151.652344 124.300781 151.652344 124.300781 151.652344 C 124.300781 151.652344 124.300781 151.652344 124.269531 151.679688 Z M 124.269531 151.679688 " fill-opacity="1" fill-rule="nonzero"/><path fill="#cba95c" d="M 122.566406 154.539062 C 123.316406 154.136719 124.386719 153.585938 124.355469 153.585938 C 124.328125 153.585938 122.882812 154.105469 122.363281 154.308594 C 122.855469 153.617188 124.039062 151.96875 124.269531 151.707031 C 124.011719 151.9375 122.566406 153.238281 121.929688 153.816406 L 122.363281 151.796875 L 121.640625 153.703125 L 121.410156 149.453125 C 121.410156 149.570312 121.265625 152.660156 121.207031 153.671875 L 120.136719 151.765625 C 120.167969 151.882812 120.601562 153.210938 120.800781 153.816406 L 118.203125 151.796875 C 118.257812 151.824219 119.792969 153.527344 120.425781 154.25 C 119.792969 154.050781 118.867188 153.789062 118.867188 153.789062 L 120.28125 154.484375 L 115.949219 154.742188 L 120.28125 154.972656 C 119.53125 155.378906 118.402344 155.957031 118.433594 155.957031 C 118.460938 155.957031 119.792969 155.464844 120.367188 155.261719 C 119.847656 155.984375 118.75 157.515625 118.519531 157.804688 C 118.78125 157.574219 120.253906 156.246094 120.890625 155.695312 L 120.457031 157.71875 L 121.179688 155.8125 L 121.410156 160.058594 C 121.410156 159.945312 121.554688 156.851562 121.613281 155.839844 L 122.679688 157.75 C 122.652344 157.632812 122.21875 156.304688 122.015625 155.695312 L 124.617188 157.71875 C 124.558594 157.691406 123.027344 155.984375 122.390625 155.261719 C 123.027344 155.464844 123.953125 155.726562 123.953125 155.726562 L 122.480469 155.03125 C 123.460938 154.972656 127.21875 154.886719 127.21875 154.886719 Z M 122.566406 154.539062 " fill-opacity="1" fill-rule="nonzero"/><path fill="#cba95c" d="M 118.519531 157.75 C 118.492188 157.777344 118.492188 157.777344 118.492188 157.777344 C 118.492188 157.804688 118.492188 157.777344 118.519531 157.75 Z M 118.519531 157.75 " fill-opacity="1" fill-rule="nonzero"/><path fill="#cba95c" d="M 248.628906 232.222656 C 248.628906 232.222656 248.628906 232.222656 248.597656 232.253906 C 248.628906 232.222656 248.628906 232.222656 248.628906 232.222656 Z M 248.628906 232.222656 " fill-opacity="1" fill-rule="nonzero"/><path fill="#cba95c" d="M 243.425781 237.714844 C 243.394531 237.742188 243.394531 237.742188 243.394531 237.742188 C 243.394531 237.742188 243.425781 237.742188 243.425781 237.714844 Z M 243.425781 237.714844 " fill-opacity="1" fill-rule="nonzero"/><path fill="#cba95c" d="M 122.160156 195.808594 C 122.191406 195.78125 122.191406 195.78125 122.191406 195.78125 C 122.191406 195.75 122.191406 195.78125 122.160156 195.808594 Z M 122.160156 195.808594 " fill-opacity="1" fill-rule="nonzero"/><path fill="#cba95c" d="M 116.988281 201.273438 C 116.957031 201.300781 116.957031 201.300781 116.957031 201.300781 C 116.957031 201.300781 116.988281 201.300781 116.988281 201.273438 Z M 116.988281 201.273438 " fill-opacity="1" fill-rule="nonzero"/><path fill="#cba95c" d="M 125.773438 103.675781 C 125.976562 103.675781 126.179688 103.503906 126.179688 103.273438 C 126.179688 103.039062 126.003906 102.867188 125.773438 102.867188 C 125.542969 102.867188 125.367188 103.039062 125.367188 103.273438 C 125.367188 103.503906 125.570312 103.675781 125.773438 103.675781 Z M 125.773438 103.675781 " fill-opacity="1" fill-rule="nonzero"/><path fill="#cba95c" d="M 279.347656 175.8125 C 279.808594 175.8125 280.1875 175.433594 280.1875 174.972656 C 280.1875 174.511719 279.808594 174.132812 279.347656 174.132812 C 278.886719 174.132812 278.507812 174.511719 278.507812 174.972656 C 278.539062 175.433594 278.886719 175.8125 279.347656 175.8125 Z M 279.347656 175.8125 " fill-opacity="1" fill-rule="nonzero"/><path fill="#cba95c" d="M 97.941406 155.667969 C 98.40625 155.667969 98.78125 155.292969 98.78125 154.828125 C 98.78125 154.367188 98.40625 153.992188 97.941406 153.992188 C 97.480469 153.992188 97.105469 154.367188 97.105469 154.828125 C 97.105469 155.292969 97.480469 155.667969 97.941406 155.667969 Z M 97.941406 155.667969 " fill-opacity="1" fill-rule="nonzero"/><path fill="#cba95c" d="M 89.332031 176.621094 C 88.867188 176.621094 88.492188 176.996094 88.492188 177.457031 C 88.492188 177.921875 88.867188 178.296875 89.332031 178.296875 C 89.792969 178.296875 90.167969 177.921875 90.167969 177.457031 C 90.167969 176.996094 89.792969 176.621094 89.332031 176.621094 Z M 89.332031 176.621094 " fill-opacity="1" fill-rule="nonzero"/><path fill="#cba95c" d="M 112.769531 127.632812 C 113.230469 127.632812 113.605469 127.257812 113.605469 126.796875 C 113.605469 126.335938 113.230469 125.957031 112.769531 125.957031 C 112.304688 125.957031 111.929688 126.335938 111.929688 126.796875 C 111.960938 127.257812 112.335938 127.632812 112.769531 127.632812 Z M 112.769531 127.632812 " fill-opacity="1" fill-rule="nonzero"/><path fill="#cba95c" d="M 126.121094 139.253906 C 126.582031 139.253906 126.957031 138.875 126.957031 138.414062 C 126.957031 137.953125 126.582031 137.574219 126.121094 137.574219 C 125.65625 137.574219 125.28125 137.953125 125.28125 138.414062 C 125.28125 138.875 125.65625 139.253906 126.121094 139.253906 Z M 126.121094 139.253906 " fill-opacity="1" fill-rule="nonzero"/><path fill="#cba95c" d="M 277.296875 196.386719 C 276.832031 195.894531 276.054688 195.867188 275.5625 196.328125 C 275.070312 196.792969 275.042969 197.574219 275.503906 198.0625 C 275.964844 198.554688 276.746094 198.582031 277.238281 198.121094 C 277.730469 197.660156 277.757812 196.878906 277.296875 196.386719 Z M 277.296875 196.386719 " fill-opacity="1" fill-rule="nonzero"/><path fill="#cba95c" d="M 156.175781 263.347656 C 156.175781 263.507812 156.144531 263.664062 156.082031 263.8125 C 156.023438 263.960938 155.933594 264.09375 155.820312 264.207031 C 155.707031 264.320312 155.574219 264.410156 155.425781 264.46875 C 155.277344 264.53125 155.125 264.5625 154.960938 264.5625 C 154.800781 264.5625 154.648438 264.53125 154.496094 264.46875 C 154.347656 264.410156 154.21875 264.320312 154.105469 264.207031 C 153.988281 264.09375 153.902344 263.960938 153.839844 263.8125 C 153.777344 263.664062 153.75 263.507812 153.75 263.347656 C 153.75 263.1875 153.777344 263.03125 153.839844 262.882812 C 153.902344 262.734375 153.988281 262.605469 154.105469 262.492188 C 154.21875 262.375 154.347656 262.289062 154.496094 262.226562 C 154.648438 262.164062 154.800781 262.136719 154.960938 262.136719 C 155.125 262.136719 155.277344 262.164062 155.425781 262.226562 C 155.574219 262.289062 155.707031 262.375 155.820312 262.492188 C 155.933594 262.605469 156.023438 262.734375 156.082031 262.882812 C 156.144531 263.03125 156.175781 263.1875 156.175781 263.347656 Z M 156.175781 263.347656 " fill-opacity="1" fill-rule="nonzero"/><path fill="#cba95c" d="M 234.03125 256.558594 C 234.03125 256.71875 234 256.871094 233.941406 257.023438 C 233.878906 257.171875 233.789062 257.300781 233.675781 257.414062 C 233.5625 257.53125 233.433594 257.617188 233.285156 257.679688 C 233.132812 257.738281 232.980469 257.769531 232.820312 257.769531 C 232.65625 257.769531 232.503906 257.738281 232.355469 257.679688 C 232.207031 257.617188 232.074219 257.53125 231.960938 257.414062 C 231.847656 257.300781 231.757812 257.171875 231.699219 257.023438 C 231.636719 256.871094 231.605469 256.71875 231.605469 256.558594 C 231.605469 256.394531 231.636719 256.242188 231.699219 256.09375 C 231.757812 255.945312 231.847656 255.8125 231.960938 255.699219 C 232.074219 255.585938 232.207031 255.496094 232.355469 255.4375 C 232.503906 255.375 232.65625 255.34375 232.820312 255.34375 C 232.980469 255.34375 233.132812 255.375 233.285156 255.4375 C 233.433594 255.496094 233.5625 255.585938 233.675781 255.699219 C 233.789062 255.8125 233.878906 255.945312 233.941406 256.09375 C 234 256.242188 234.03125 256.394531 234.03125 256.558594 Z M 234.03125 256.558594 " fill-opacity="1" fill-rule="nonzero"/><path fill="#cba95c" d="M 278.480469 203.09375 C 278.828125 202.773438 278.828125 202.253906 278.539062 201.9375 C 278.21875 201.589844 277.699219 201.589844 277.382812 201.878906 C 277.035156 202.195312 277.035156 202.714844 277.324219 203.035156 C 277.613281 203.382812 278.132812 203.382812 278.480469 203.09375 Z M 278.480469 203.09375 " fill-opacity="1" fill-rule="nonzero"/><path fill="#cba95c" d="M 276.890625 163.789062 C 277.355469 163.789062 277.730469 163.414062 277.730469 162.949219 C 277.730469 162.488281 277.355469 162.113281 276.890625 162.113281 C 276.429688 162.113281 276.054688 162.488281 276.054688 162.949219 C 276.054688 163.414062 276.429688 163.789062 276.890625 163.789062 Z M 276.890625 163.789062 " fill-opacity="1" fill-rule="nonzero"/><path fill="#cba95c" d="M 122.015625 240.375 C 121.554688 240.375 121.179688 240.75 121.179688 241.210938 C 121.179688 241.671875 121.554688 242.050781 122.015625 242.050781 C 122.480469 242.050781 122.855469 241.671875 122.855469 241.210938 C 122.855469 240.75 122.480469 240.375 122.015625 240.375 Z M 122.015625 240.375 " fill-opacity="1" fill-rule="nonzero"/><path fill="#cba95c" d="M 217.097656 262.914062 C 216.636719 262.914062 216.257812 263.289062 216.257812 263.753906 C 216.257812 264.214844 216.636719 264.589844 217.097656 264.589844 C 217.558594 264.589844 217.933594 264.214844 217.933594 263.753906 C 217.90625 263.289062 217.53125 262.914062 217.097656 262.914062 Z M 217.097656 262.914062 " fill-opacity="1" fill-rule="nonzero"/><path fill="#cba95c" d="M 122.015625 115.207031 C 122.390625 115.207031 122.710938 114.890625 122.710938 114.515625 C 122.710938 114.136719 122.390625 113.820312 122.015625 113.820312 C 121.640625 113.820312 121.324219 114.136719 121.324219 114.515625 C 121.351562 114.890625 121.640625 115.207031 122.015625 115.207031 Z M 122.015625 115.207031 " fill-opacity="1" fill-rule="nonzero"/><path fill="#cba95c" d="M 103.808594 139.425781 C 103.839844 137.230469 103.894531 137.171875 106.09375 137.085938 C 103.894531 137.054688 103.839844 137 103.75 134.800781 C 103.722656 137 103.664062 137.054688 101.46875 137.144531 C 103.664062 137.199219 103.722656 137.230469 103.808594 139.425781 Z M 103.808594 139.425781 " fill-opacity="1" fill-rule="nonzero"/><path fill="#cba95c" d="M 121.785156 145.4375 C 121.785156 145.8125 122.101562 146.128906 122.480469 146.128906 C 122.855469 146.128906 123.171875 145.8125 123.171875 145.4375 C 123.171875 145.0625 122.855469 144.742188 122.480469 144.742188 C 122.074219 144.742188 121.785156 145.0625 121.785156 145.4375 Z M 121.785156 145.4375 " fill-opacity="1" fill-rule="nonzero"/><path fill="#cba95c" d="M 97.164062 183.554688 C 97.164062 183.933594 97.480469 184.25 97.855469 184.25 C 98.230469 184.25 98.550781 183.933594 98.550781 183.554688 C 98.550781 183.179688 98.230469 182.863281 97.855469 182.863281 C 97.453125 182.863281 97.164062 183.179688 97.164062 183.554688 Z M 97.164062 183.554688 " fill-opacity="1" fill-rule="nonzero"/><path fill="#cba95c" d="M 236.257812 234.59375 C 236.257812 235.054688 236.632812 235.429688 237.097656 235.429688 C 237.558594 235.429688 237.933594 235.054688 237.933594 234.59375 C 237.933594 234.132812 237.558594 233.753906 237.097656 233.753906 C 236.632812 233.726562 236.257812 234.101562 236.257812 234.59375 Z M 236.257812 234.59375 " fill-opacity="1" fill-rule="nonzero"/><path fill="#cba95c" d="M 257.09375 232.308594 C 256.746094 232.308594 256.457031 232.597656 256.457031 232.945312 C 256.457031 233.292969 256.746094 233.582031 257.09375 233.582031 C 257.441406 233.582031 257.730469 233.292969 257.730469 232.945312 C 257.730469 232.570312 257.441406 232.308594 257.09375 232.308594 Z M 257.09375 232.308594 " fill-opacity="1" fill-rule="nonzero"/><path fill="#cba95c" d="M 128.867188 226.617188 C 128.867188 226.964844 129.15625 227.253906 129.5 227.253906 C 129.847656 227.253906 130.136719 226.964844 130.136719 226.617188 C 130.136719 226.269531 129.847656 225.980469 129.5 225.980469 C 129.15625 225.980469 128.867188 226.269531 128.867188 226.617188 Z M 128.867188 226.617188 " fill-opacity="1" fill-rule="nonzero"/><path fill="#cba95c" d="M 103.433594 216.644531 C 103.433594 216.992188 103.722656 217.28125 104.070312 217.28125 C 104.417969 217.28125 104.707031 216.992188 104.707031 216.644531 C 104.707031 216.300781 104.417969 216.011719 104.070312 216.011719 C 103.722656 216.011719 103.433594 216.300781 103.433594 216.644531 Z M 103.433594 216.644531 " fill-opacity="1" fill-rule="nonzero"/><path fill="#cba95c" d="M 109.039062 177.71875 C 109.039062 178.066406 109.328125 178.355469 109.675781 178.355469 C 110.023438 178.355469 110.3125 178.066406 110.3125 177.71875 C 110.3125 177.371094 110.023438 177.082031 109.675781 177.082031 C 109.328125 177.082031 109.039062 177.371094 109.039062 177.71875 Z M 109.039062 177.71875 " fill-opacity="1" fill-rule="nonzero"/><g clip-path="url(#58a8dd41ca)"><path fill="#cba95c" d="M 283.046875 215 L 268.222656 212.859375 L 273.945312 205.203125 L 266.285156 210.925781 L 266.226562 210.460938 C 269.175781 204.277344 271.285156 197.832031 272.585938 191.242188 C 274.867188 191.300781 274.925781 191.445312 275.011719 193.929688 C 275.070312 191.328125 275.128906 191.273438 277.699219 191.1875 C 275.097656 191.128906 275.042969 191.070312 274.953125 188.496094 C 274.925781 190.984375 274.839844 191.128906 272.585938 191.242188 C 277.179688 167.980469 271.542969 143.097656 255.765625 123.820312 L 256.515625 123.328125 L 256.574219 123.90625 L 256.691406 123.328125 L 257.382812 123.90625 L 256.863281 123.15625 L 257.441406 123.097656 L 256.863281 122.980469 L 257.441406 122.289062 L 256.691406 122.808594 L 256.632812 122.230469 L 256.515625 122.808594 L 255.824219 122.230469 L 256.34375 122.980469 L 255.765625 123.039062 L 256.34375 123.15625 L 255.765625 123.847656 C 253.859375 121.507812 251.777344 119.226562 249.550781 117.058594 C 230.882812 98.851562 205.710938 91.394531 181.722656 94.601562 C 204.4375 93.734375 227.441406 101.855469 244.984375 118.964844 C 269.722656 143.097656 276.804688 178.5 266.023438 209.105469 L 264.144531 196.128906 L 262.007812 210.953125 L 254.347656 205.230469 L 260.070312 212.890625 L 245.246094 215.027344 L 260.070312 217.167969 L 254.347656 224.824219 L 262.007812 219.101562 L 264.144531 233.929688 L 266.285156 219.101562 L 273.945312 224.824219 L 268.222656 217.167969 Z M 283.046875 215 " fill-opacity="1" fill-rule="nonzero"/></g><path fill="#cba95c" d="M 195.304688 90.238281 L 195.394531 91.25 L 195.59375 90.265625 L 196.78125 91.25 L 195.914062 89.976562 L 196.894531 89.863281 L 195.941406 89.6875 L 196.925781 88.476562 L 195.625 89.34375 L 195.539062 88.359375 L 195.335938 89.34375 L 194.152344 88.332031 L 195.019531 89.632812 L 194.035156 89.71875 L 195.019531 89.921875 L 194.007812 91.105469 Z M 195.304688 90.238281 " fill-opacity="1" fill-rule="nonzero"/><path fill="#cba95c" d="M 122.449219 206.9375 L 121.496094 207.195312 L 122.480469 207.226562 L 121.699219 208.554688 L 122.824219 207.484375 L 123.085938 208.46875 L 123.113281 207.457031 L 124.472656 208.238281 L 123.402344 207.109375 L 124.355469 206.847656 L 123.347656 206.820312 L 124.15625 205.492188 L 123 206.558594 L 122.769531 205.578125 L 122.738281 206.589844 L 121.378906 205.808594 Z M 122.449219 206.9375 " fill-opacity="1" fill-rule="nonzero"/><path fill="#cba95c" d="M 237.242188 94.167969 L 236.808594 95.0625 L 237.472656 94.34375 L 237.964844 95.816406 L 237.90625 94.253906 L 238.800781 94.6875 L 238.050781 94.023438 L 239.523438 93.503906 L 237.992188 93.589844 L 238.425781 92.695312 L 237.730469 93.417969 L 237.242188 91.941406 L 237.296875 93.503906 L 236.402344 93.070312 L 237.152344 93.734375 L 235.679688 94.226562 Z M 237.242188 94.167969 " fill-opacity="1" fill-rule="nonzero"/><path fill="#cba95c" d="M 202.558594 256.527344 L 202.128906 257.425781 L 202.792969 256.703125 L 203.28125 258.175781 L 203.226562 256.613281 L 204.121094 257.046875 L 203.398438 256.382812 L 204.871094 255.863281 L 203.3125 255.949219 L 203.746094 255.054688 L 203.082031 255.777344 L 202.558594 254.304688 L 202.648438 255.863281 L 201.75 255.429688 L 202.472656 256.09375 L 201 256.613281 Z M 202.558594 256.527344 " fill-opacity="1" fill-rule="nonzero"/><path fill="#cba95c" d="M 241.316406 247.308594 L 241.230469 246.328125 L 241.027344 247.308594 L 239.839844 246.296875 L 240.707031 247.597656 L 239.695312 247.683594 L 240.679688 247.886719 L 239.695312 249.070312 L 240.996094 248.207031 L 241.085938 249.214844 L 241.257812 248.234375 L 242.472656 249.214844 L 241.605469 247.917969 L 242.585938 247.828125 L 241.605469 247.65625 L 242.617188 246.441406 Z M 241.316406 247.308594 " fill-opacity="1" fill-rule="nonzero"/><path fill="#cba95c" d="M 118.203125 238.839844 L 118.085938 237.859375 L 117.914062 238.839844 L 116.699219 237.832031 L 117.566406 239.128906 L 116.582031 239.21875 L 117.566406 239.417969 L 116.554688 240.605469 L 117.855469 239.738281 L 117.941406 240.75 L 118.144531 239.765625 L 119.328125 240.75 L 118.460938 239.476562 L 119.472656 239.390625 L 118.492188 239.1875 L 119.472656 237.972656 Z M 118.203125 238.839844 " fill-opacity="1" fill-rule="nonzero"/><path fill="#cba95c" d="M 231.777344 248.40625 L 231.863281 249.417969 L 232.066406 248.4375 L 233.253906 249.417969 L 232.386719 248.148438 L 233.367188 248.0625 L 232.386719 247.859375 L 233.398438 246.644531 L 232.097656 247.511719 L 232.007812 246.527344 L 231.808594 247.511719 L 230.621094 246.5 L 231.488281 247.800781 L 230.507812 247.886719 L 231.460938 248.089844 L 230.476562 249.273438 Z M 231.777344 248.40625 " fill-opacity="1" fill-rule="nonzero"/><path fill="#cba95c" d="M 244.929688 102.316406 L 245.738281 102.867188 L 244.351562 103.589844 L 245.882812 103.300781 L 245.59375 104.253906 L 246.140625 103.417969 L 246.863281 104.804688 L 246.574219 103.273438 L 247.527344 103.5625 L 246.691406 103.011719 L 248.078125 102.289062 L 246.546875 102.605469 L 246.863281 101.652344 L 246.285156 102.460938 L 245.5625 101.074219 L 245.882812 102.605469 Z M 244.929688 102.316406 " fill-opacity="1" fill-rule="nonzero"/><path fill="#cba95c" d="M 269.609375 144.078125 L 271.921875 146.074219 L 270.101562 146.765625 L 272.066406 146.621094 L 270.792969 149.394531 L 272.789062 147.085938 L 273.480469 148.90625 L 273.335938 146.96875 L 276.140625 148.210938 L 273.800781 146.21875 L 275.648438 145.523438 L 273.683594 145.667969 L 274.953125 142.894531 L 272.960938 145.207031 L 272.265625 143.386719 L 272.410156 145.320312 Z M 269.609375 144.078125 " fill-opacity="1" fill-rule="nonzero"/><path fill="#cba95c" d="M 135.253906 254.535156 L 136.957031 253.582031 L 135.050781 254.015625 L 135.859375 251.066406 L 134.269531 253.667969 L 133.289062 251.960938 L 133.75 253.871094 L 130.773438 253.058594 L 133.402344 254.679688 L 131.699219 255.632812 L 133.605469 255.199219 L 132.796875 258.148438 L 134.386719 255.546875 L 135.367188 257.25 L 134.90625 255.34375 L 137.882812 256.152344 Z M 135.253906 254.535156 " fill-opacity="1" fill-rule="nonzero"/><path fill="#cba95c" d="M 114.359375 189.886719 L 115.050781 191.707031 L 114.90625 189.742188 L 117.679688 191.011719 L 115.371094 189.019531 L 117.191406 188.324219 L 115.253906 188.46875 L 116.496094 185.695312 L 114.503906 188.007812 L 113.808594 186.15625 L 113.980469 188.121094 L 111.179688 186.851562 L 113.492188 188.84375 L 111.671875 189.539062 L 113.605469 189.394531 L 112.363281 192.195312 Z M 114.359375 189.886719 " fill-opacity="1" fill-rule="nonzero"/><path fill="#cba95c" d="M 112.539062 160.320312 L 111.121094 160.898438 L 112.652344 160.753906 L 111.726562 162.980469 L 113.230469 161.101562 L 113.835938 162.515625 L 113.664062 160.984375 L 115.890625 161.9375 L 114.039062 160.40625 L 115.457031 159.828125 L 113.925781 159.972656 L 114.847656 157.75 L 113.316406 159.625 L 112.738281 158.183594 L 112.914062 159.714844 L 110.6875 158.789062 Z M 112.539062 160.320312 " fill-opacity="1" fill-rule="nonzero"/><path fill="#cba95c" d="M 229.785156 93.820312 L 228.859375 94.199219 L 229.84375 94.109375 L 229.207031 95.527344 L 230.21875 94.34375 L 230.566406 95.296875 L 230.507812 94.285156 L 231.921875 94.917969 L 230.738281 93.910156 L 231.664062 93.5625 L 230.679688 93.648438 L 231.316406 92.230469 L 230.304688 93.386719 L 229.957031 92.464844 L 230.015625 93.476562 L 228.597656 92.808594 Z M 229.785156 93.820312 " fill-opacity="1" fill-rule="nonzero"/><path fill="#cba95c" d="M 211.925781 89.746094 L 212.039062 91.21875 L 212.328125 89.777344 L 214.121094 91.25 L 212.820312 89.34375 L 214.292969 89.199219 L 212.847656 88.910156 L 214.351562 87.144531 L 212.414062 88.417969 L 212.300781 86.945312 L 211.980469 88.386719 L 210.21875 86.914062 L 211.492188 88.851562 L 210.046875 88.964844 L 211.492188 89.253906 L 209.988281 91.019531 Z M 211.925781 89.746094 " fill-opacity="1" fill-rule="nonzero"/><path fill="#cba95c" d="M 223.6875 251.472656 L 223.800781 252.945312 L 224.121094 251.5 L 225.882812 252.972656 L 224.609375 251.066406 L 226.054688 250.921875 L 224.609375 250.632812 L 226.113281 248.871094 L 224.175781 250.140625 L 224.0625 248.667969 L 223.773438 250.113281 L 221.980469 248.636719 L 223.28125 250.574219 L 221.808594 250.691406 L 223.253906 250.980469 L 221.75 252.742188 Z M 223.6875 251.472656 " fill-opacity="1" fill-rule="nonzero"/><path fill="#cba95c" d="M 102.160156 207.515625 L 103.636719 207.398438 L 102.191406 207.082031 L 103.695312 205.316406 L 101.757812 206.589844 L 101.640625 205.144531 L 101.351562 206.589844 L 99.5625 205.085938 L 100.863281 207.023438 L 99.386719 207.136719 L 100.832031 207.425781 L 99.328125 209.21875 L 101.265625 207.917969 L 101.382812 209.390625 L 101.671875 207.949219 L 103.460938 209.449219 Z M 102.160156 207.515625 " fill-opacity="1" fill-rule="nonzero"/><path fill="#cba95c" d="M 228.859375 108.792969 L 228.339844 108.992188 L 228.917969 108.9375 L 228.570312 109.804688 L 229.148438 109.082031 L 229.351562 109.601562 L 229.292969 109.023438 L 230.132812 109.371094 L 229.4375 108.792969 L 229.957031 108.589844 L 229.378906 108.648438 L 229.726562 107.808594 L 229.148438 108.503906 L 228.917969 107.984375 L 229.003906 108.5625 L 228.136719 108.214844 Z M 228.859375 108.792969 " fill-opacity="1" fill-rule="nonzero"/><path fill="#cba95c" d="M 110.628906 173.988281 L 110.746094 173.410156 L 111.46875 173.988281 L 110.949219 173.238281 L 111.527344 173.179688 L 110.949219 173.066406 L 111.554688 172.371094 L 110.773438 172.863281 L 110.714844 172.285156 L 110.601562 172.863281 L 109.90625 172.285156 L 110.425781 173.035156 L 109.847656 173.09375 L 110.398438 173.210938 L 109.820312 173.902344 L 110.601562 173.410156 Z M 110.628906 173.988281 " fill-opacity="1" fill-rule="nonzero"/><path fill="#cba95c" d="M 98.117188 170.957031 L 98.058594 170.378906 L 97.941406 170.957031 L 97.25 170.378906 L 97.769531 171.128906 L 97.164062 171.1875 L 97.742188 171.300781 L 97.164062 171.996094 L 97.914062 171.476562 L 97.972656 172.082031 L 98.085938 171.503906 L 98.78125 172.082031 L 98.289062 171.332031 L 98.867188 171.273438 L 98.289062 171.15625 L 98.867188 170.464844 Z M 98.117188 170.957031 " fill-opacity="1" fill-rule="nonzero"/><path fill="#cba95c" d="M 235.941406 114.167969 L 235.417969 113.90625 L 236.140625 113.386719 L 235.304688 113.675781 L 235.390625 113.097656 L 235.128906 113.617188 L 234.609375 112.894531 L 234.898438 113.734375 L 234.320312 113.648438 L 234.839844 113.90625 L 234.089844 114.425781 L 234.957031 114.136719 L 234.871094 114.714844 L 235.128906 114.195312 L 235.652344 114.949219 L 235.363281 114.082031 Z M 235.941406 114.167969 " fill-opacity="1" fill-rule="nonzero"/><path fill="#cba95c" d="M 242.933594 108.992188 L 242.210938 109.050781 L 242.933594 109.195312 L 242.210938 110.0625 L 243.136719 109.425781 L 243.222656 110.179688 L 243.367188 109.457031 L 244.234375 110.179688 L 243.597656 109.226562 L 244.320312 109.167969 L 243.597656 109.023438 L 244.351562 108.15625 L 243.394531 108.792969 L 243.308594 108.070312 L 243.195312 108.761719 L 242.296875 108.039062 Z M 242.933594 108.992188 " fill-opacity="1" fill-rule="nonzero"/><path fill="#cba95c" d="M 250.101562 108.328125 L 250.160156 108.90625 L 250.273438 108.328125 L 250.96875 108.90625 L 250.476562 108.15625 L 251.054688 108.097656 L 250.476562 107.984375 L 251.054688 107.289062 L 250.304688 107.78125 L 250.246094 107.203125 L 250.128906 107.78125 L 249.4375 107.203125 L 249.925781 107.953125 L 249.347656 108.011719 L 249.925781 108.128906 L 249.347656 108.820312 Z M 250.101562 108.328125 " fill-opacity="1" fill-rule="nonzero"/><path fill="#cba95c" d="M 123.605469 220.316406 L 123.546875 219.738281 L 123.433594 220.316406 L 122.738281 219.710938 L 123.230469 220.488281 L 122.652344 220.546875 L 123.230469 220.664062 L 122.652344 221.355469 L 123.402344 220.835938 L 123.460938 221.414062 L 123.578125 220.867188 L 124.269531 221.445312 L 123.75 220.691406 L 124.355469 220.632812 L 123.777344 220.519531 L 124.355469 219.796875 Z M 123.605469 220.316406 " fill-opacity="1" fill-rule="nonzero"/><path fill="#cba95c" d="M 236.199219 101.597656 L 236.488281 101.074219 L 236.980469 101.855469 L 236.71875 100.988281 L 237.296875 101.105469 L 236.777344 100.816406 L 237.558594 100.324219 L 236.691406 100.585938 L 236.808594 100.007812 L 236.519531 100.527344 L 236.027344 99.746094 L 236.285156 100.640625 L 235.707031 100.496094 L 236.230469 100.785156 L 235.449219 101.277344 L 236.34375 101.019531 Z M 236.199219 101.597656 " fill-opacity="1" fill-rule="nonzero"/><path fill="#cba95c" d="M 224.8125 98.15625 L 224.640625 98.707031 L 224.957031 98.242188 L 225.390625 99.050781 L 225.21875 98.15625 L 225.765625 98.328125 L 225.277344 97.984375 L 226.113281 97.578125 L 225.1875 97.753906 L 225.390625 97.203125 L 225.042969 97.664062 L 224.640625 96.855469 L 224.8125 97.753906 L 224.234375 97.578125 L 224.726562 97.898438 L 223.917969 98.328125 Z M 224.8125 98.15625 " fill-opacity="1" fill-rule="nonzero"/><path fill="#cba95c" d="M 112.824219 167.457031 L 112.769531 166.996094 L 112.683594 167.429688 L 112.160156 166.996094 L 112.539062 167.574219 L 112.105469 167.601562 L 112.539062 167.691406 L 112.105469 168.238281 L 112.683594 167.835938 L 112.710938 168.296875 L 112.796875 167.863281 L 113.347656 168.296875 L 112.941406 167.71875 L 113.375 167.691406 L 112.941406 167.601562 L 113.402344 167.054688 Z M 112.824219 167.457031 " fill-opacity="1" fill-rule="nonzero"/><path fill="#cba95c" d="M 231.546875 97.175781 L 231.519531 96.710938 L 231.429688 97.144531 L 230.882812 96.710938 L 231.285156 97.289062 L 230.824219 97.320312 L 231.257812 97.40625 L 230.824219 97.953125 L 231.402344 97.578125 L 231.429688 98.011719 L 231.519531 97.578125 L 232.066406 98.011719 L 231.664062 97.433594 L 232.125 97.40625 L 231.691406 97.320312 L 232.125 96.769531 Z M 231.546875 97.175781 " fill-opacity="1" fill-rule="nonzero"/><path fill="#cba95c" d="M 237.875 118.328125 L 237.90625 118.761719 L 237.992188 118.328125 L 238.539062 118.761719 L 238.136719 118.183594 L 238.597656 118.15625 L 238.164062 118.070312 L 238.597656 117.519531 L 238.019531 117.925781 L 237.992188 117.460938 L 237.90625 117.894531 L 237.355469 117.460938 L 237.730469 118.039062 L 237.296875 118.070312 L 237.730469 118.15625 L 237.296875 118.703125 Z M 237.875 118.328125 " fill-opacity="1" fill-rule="nonzero"/><path fill="#cba95c" d="M 241.71875 102.636719 L 241.777344 103.070312 L 241.835938 102.636719 L 242.382812 103.097656 L 242.007812 102.519531 L 242.441406 102.460938 L 242.007812 102.375 L 242.441406 101.855469 L 241.863281 102.230469 L 241.835938 101.796875 L 241.75 102.230469 L 241.199219 101.769531 L 241.605469 102.347656 L 241.140625 102.40625 L 241.605469 102.492188 L 241.140625 103.011719 Z M 241.71875 102.636719 " fill-opacity="1" fill-rule="nonzero"/><path fill="#cba95c" d="M 244.261719 91.277344 L 244.320312 91.742188 L 244.40625 91.308594 L 244.929688 91.742188 L 244.550781 91.164062 L 244.984375 91.132812 L 244.550781 91.046875 L 244.984375 90.5 L 244.40625 90.902344 L 244.378906 90.441406 L 244.292969 90.875 L 243.742188 90.441406 L 244.148438 91.019531 L 243.683594 91.046875 L 244.148438 91.132812 L 243.683594 91.683594 Z M 244.261719 91.277344 " fill-opacity="1" fill-rule="nonzero"/><path fill="#cba95c" d="M 225.074219 82.839844 L 225.101562 83.273438 L 225.1875 82.839844 L 225.738281 83.300781 L 225.332031 82.722656 L 225.796875 82.667969 L 225.363281 82.578125 L 225.796875 82.058594 L 225.21875 82.433594 L 225.1875 82 L 225.101562 82.433594 L 224.554688 82 L 224.929688 82.578125 L 224.496094 82.609375 L 224.929688 82.695312 L 224.496094 83.214844 Z M 225.074219 82.839844 " fill-opacity="1" fill-rule="nonzero"/><path fill="#cba95c" d="M 116.324219 178.152344 L 116.265625 177.71875 L 116.179688 178.152344 L 115.660156 177.71875 L 116.035156 178.296875 L 115.601562 178.324219 L 116.035156 178.410156 L 115.570312 178.933594 L 116.148438 178.554688 L 116.207031 178.988281 L 116.292969 178.554688 L 116.8125 179.019531 L 116.4375 178.441406 L 116.871094 178.382812 L 116.4375 178.296875 L 116.902344 177.777344 Z M 116.324219 178.152344 " fill-opacity="1" fill-rule="nonzero"/><path fill="#cba95c" d="M 253.800781 140.175781 L 253.945312 141.707031 L 254.234375 140.207031 L 256.082031 141.738281 L 254.753906 139.742188 L 256.285156 139.597656 L 254.78125 139.308594 L 256.3125 137.460938 L 254.320312 138.789062 L 254.175781 137.257812 L 253.886719 138.761719 L 252.039062 137.230469 L 253.367188 139.222656 L 251.835938 139.367188 L 253.335938 139.6875 L 251.804688 141.535156 Z M 253.800781 140.175781 " fill-opacity="1" fill-rule="nonzero"/><path fill="#cba95c" d="M 269.925781 139.078125 L 270.011719 140.089844 L 270.214844 139.109375 L 271.398438 140.089844 L 270.53125 138.820312 L 271.542969 138.703125 L 270.5625 138.53125 L 271.542969 137.316406 L 270.273438 138.183594 L 270.15625 137.199219 L 269.984375 138.183594 L 268.769531 137.171875 L 269.636719 138.472656 L 268.65625 138.558594 L 269.636719 138.761719 L 268.625 139.945312 Z M 269.925781 139.078125 " fill-opacity="1" fill-rule="nonzero"/><path fill="#cba95c" d="M 262.09375 126.449219 L 263.078125 126.480469 L 262.296875 127.808594 L 263.421875 126.738281 L 263.683594 127.722656 L 263.710938 126.710938 L 265.070312 127.488281 L 264 126.363281 L 264.957031 126.101562 L 263.945312 126.074219 L 264.753906 124.746094 L 263.597656 125.8125 L 263.367188 124.859375 L 263.335938 125.84375 L 261.980469 125.0625 L 263.046875 126.191406 Z M 262.09375 126.449219 " fill-opacity="1" fill-rule="nonzero"/><path fill="#cba95c" d="M 249.003906 207.917969 L 247.644531 207.136719 L 248.714844 208.265625 L 247.761719 208.527344 L 248.742188 208.554688 L 247.960938 209.882812 L 249.089844 208.816406 L 249.347656 209.796875 L 249.378906 208.785156 L 250.738281 209.566406 L 249.667969 208.4375 L 250.621094 208.207031 L 249.609375 208.179688 L 250.417969 206.820312 L 249.261719 207.890625 L 249.03125 206.9375 Z M 249.003906 207.917969 " fill-opacity="1" fill-rule="nonzero"/><path fill="#cba95c" d="M 260.707031 152.460938 L 260.273438 153.355469 L 260.9375 152.632812 L 261.429688 154.105469 L 261.371094 152.546875 L 262.269531 152.980469 L 261.546875 152.316406 L 263.019531 151.796875 L 261.457031 151.882812 L 261.890625 150.984375 L 261.226562 151.707031 L 260.707031 150.234375 L 260.792969 151.796875 L 259.898438 151.363281 L 260.621094 152.027344 L 259.148438 152.546875 Z M 260.707031 152.460938 " fill-opacity="1" fill-rule="nonzero"/><path fill="#cba95c" d="M 94.851562 178.816406 L 94.9375 179.800781 L 95.140625 178.816406 L 96.324219 179.828125 L 95.457031 178.527344 L 96.46875 178.441406 L 95.484375 178.238281 L 96.46875 177.054688 L 95.167969 177.921875 L 95.082031 176.9375 L 94.90625 177.890625 L 93.695312 176.910156 L 94.5625 178.210938 L 93.578125 178.296875 L 94.5625 178.5 L 93.550781 179.683594 Z M 94.851562 178.816406 " fill-opacity="1" fill-rule="nonzero"/><path fill="#cba95c" d="M 274.230469 151.996094 L 276.542969 153.875 L 274.78125 154.597656 L 276.6875 154.425781 L 275.503906 157.171875 L 277.410156 154.859375 L 278.132812 156.648438 L 277.929688 154.742188 L 280.707031 155.898438 L 278.394531 153.992188 L 280.15625 153.269531 L 278.25 153.472656 L 279.40625 150.695312 L 277.527344 153.039062 L 276.804688 151.246094 L 276.976562 153.152344 Z M 274.230469 151.996094 " fill-opacity="1" fill-rule="nonzero"/><path fill="#cba95c" d="M 263.886719 169.65625 L 263.164062 167.863281 L 263.367188 169.769531 L 260.589844 168.613281 L 262.902344 170.492188 L 261.140625 171.214844 L 263.046875 171.042969 L 261.890625 173.816406 L 263.769531 171.476562 L 264.492188 173.269531 L 264.320312 171.359375 L 267.066406 172.515625 L 264.753906 170.609375 L 266.515625 169.886719 L 264.609375 170.089844 L 265.792969 167.3125 Z M 263.886719 169.65625 " fill-opacity="1" fill-rule="nonzero"/><path fill="#cba95c" d="M 106.148438 225.75 L 107.914062 223.324219 L 105.515625 225.144531 L 105.226562 223.234375 L 104.964844 225.144531 L 102.566406 223.378906 L 104.386719 225.75 L 102.480469 226.039062 L 104.386719 226.300781 L 102.59375 228.726562 L 104.996094 226.90625 L 105.285156 228.8125 L 105.542969 226.90625 L 107.972656 228.699219 L 106.148438 226.300781 L 108.027344 226.011719 Z M 106.148438 225.75 " fill-opacity="1" fill-rule="nonzero"/><path fill="#cba95c" d="M 174.5 94.488281 L 172.300781 95.296875 L 174.644531 95.121094 L 173.140625 98.472656 L 175.539062 95.699219 L 176.378906 97.898438 L 176.203125 95.554688 L 179.527344 97.058594 L 176.753906 94.660156 L 178.949219 93.851562 L 176.609375 94.023438 L 178.109375 90.671875 L 175.710938 93.445312 L 174.902344 91.25 L 175.078125 93.589844 L 171.722656 92.085938 Z M 174.5 94.488281 " fill-opacity="1" fill-rule="nonzero"/><path fill="#cba95c" d="M 255.851562 111.394531 L 255.910156 112.117188 L 256.054688 111.394531 L 256.921875 112.117188 L 256.285156 111.191406 L 257.007812 111.105469 L 256.3125 110.960938 L 257.035156 110.09375 L 256.082031 110.726562 L 256.027344 110.003906 L 255.882812 110.726562 L 255.015625 109.976562 L 255.648438 110.929688 L 254.898438 111.015625 L 255.621094 111.132812 L 254.898438 112.027344 Z M 255.851562 111.394531 " fill-opacity="1" fill-rule="nonzero"/><path fill="#cba95c" d="M 247.847656 223.523438 L 247.90625 224.101562 L 248.019531 223.523438 L 248.714844 224.132812 L 248.195312 223.351562 L 248.800781 223.324219 L 248.222656 223.207031 L 248.800781 222.484375 L 248.050781 223.003906 L 247.992188 222.425781 L 247.875 223.003906 L 247.183594 222.398438 L 247.671875 223.179688 L 247.09375 223.207031 L 247.671875 223.324219 L 247.09375 224.042969 Z M 247.847656 223.523438 " fill-opacity="1" fill-rule="nonzero"/><path fill="#cba95c" d="M 259.203125 124.6875 L 259.058594 125.265625 L 259.347656 124.746094 L 259.839844 125.523438 L 259.582031 124.628906 L 260.15625 124.773438 L 259.636719 124.484375 L 260.417969 123.992188 L 259.550781 124.253906 L 259.667969 123.675781 L 259.378906 124.195312 L 258.886719 123.414062 L 259.148438 124.28125 L 258.570312 124.167969 L 259.089844 124.457031 L 258.308594 124.945312 Z M 259.203125 124.6875 " fill-opacity="1" fill-rule="nonzero"/><path fill="#cba95c" d="M 247.382812 125.292969 L 247.210938 125.84375 L 247.527344 125.378906 L 247.933594 126.191406 L 247.789062 125.292969 L 248.339844 125.46875 L 247.847656 125.121094 L 248.65625 124.714844 L 247.761719 124.890625 L 247.960938 124.339844 L 247.617188 124.800781 L 247.210938 123.992188 L 247.382812 124.890625 L 246.804688 124.714844 L 247.296875 125.035156 L 246.488281 125.46875 Z M 247.382812 125.292969 " fill-opacity="1" fill-rule="nonzero"/><path fill="#cba95c" d="M 92.132812 186.820312 L 92.335938 186.273438 L 91.988281 186.734375 L 91.585938 185.925781 L 91.757812 186.820312 L 91.179688 186.648438 L 91.671875 186.996094 L 90.863281 187.398438 L 91.757812 187.226562 L 91.585938 187.773438 L 91.902344 187.3125 L 92.335938 188.121094 L 92.164062 187.226562 L 92.710938 187.398438 L 92.21875 187.082031 L 93.03125 186.648438 Z M 92.132812 186.820312 " fill-opacity="1" fill-rule="nonzero"/><path fill="#cba95c" d="M 247.066406 130.0625 L 247.09375 130.523438 L 247.183594 130.089844 L 247.730469 130.523438 L 247.328125 129.945312 L 247.761719 129.917969 L 247.328125 129.832031 L 247.789062 129.28125 L 247.210938 129.65625 L 247.152344 129.222656 L 247.066406 129.65625 L 246.546875 129.222656 L 246.921875 129.800781 L 246.488281 129.832031 L 246.921875 129.917969 L 246.488281 130.464844 Z M 247.066406 130.0625 " fill-opacity="1" fill-rule="nonzero"/><path fill="#cba95c" d="M 260.503906 158.328125 L 260.535156 158.761719 L 260.621094 158.328125 L 261.167969 158.761719 L 260.765625 158.183594 L 261.226562 158.152344 L 260.765625 158.066406 L 261.226562 157.546875 L 260.648438 157.921875 L 260.589844 157.488281 L 260.503906 157.921875 L 259.984375 157.460938 L 260.359375 158.039062 L 259.925781 158.09375 L 260.359375 158.183594 L 259.925781 158.703125 Z M 260.503906 158.328125 " fill-opacity="1" fill-rule="nonzero"/><path fill="#cba95c" d="M 248.945312 114.398438 L 248.972656 114.859375 L 249.058594 114.425781 L 249.609375 114.859375 L 249.203125 114.28125 L 249.667969 114.253906 L 249.234375 114.167969 L 249.667969 113.617188 L 249.089844 113.992188 L 249.058594 113.558594 L 248.972656 113.992188 L 248.425781 113.558594 L 248.800781 114.136719 L 248.367188 114.167969 L 248.800781 114.253906 L 248.367188 114.804688 Z M 248.945312 114.398438 " fill-opacity="1" fill-rule="nonzero"/><path fill="#cba95c" d="M 234.582031 119.65625 L 234.871094 119.542969 L 234.554688 119.570312 L 234.753906 119.109375 L 234.4375 119.515625 L 234.320312 119.195312 L 234.351562 119.515625 L 233.886719 119.339844 L 234.265625 119.628906 L 233.976562 119.773438 L 234.292969 119.746094 L 234.089844 120.179688 L 234.410156 119.800781 L 234.523438 120.089844 L 234.496094 119.773438 L 234.957031 119.976562 Z M 234.582031 119.65625 " fill-opacity="1" fill-rule="nonzero"/><path fill="#cba95c" d="M 239.523438 125.46875 L 239.234375 125.582031 L 239.523438 125.554688 L 239.351562 126.015625 L 239.667969 125.640625 L 239.785156 125.929688 L 239.753906 125.613281 L 240.1875 125.785156 L 239.8125 125.496094 L 240.101562 125.378906 L 239.785156 125.410156 L 239.984375 124.945312 L 239.667969 125.324219 L 239.550781 125.035156 L 239.582031 125.351562 L 239.117188 125.148438 Z M 239.523438 125.46875 " fill-opacity="1" fill-rule="nonzero"/><path fill="#cba95c" d="M 271.285156 132.054688 L 270.996094 132.171875 L 271.3125 132.144531 L 271.109375 132.605469 L 271.429688 132.230469 L 271.542969 132.519531 L 271.515625 132.199219 L 271.976562 132.402344 L 271.574219 132.085938 L 271.863281 131.96875 L 271.574219 132 L 271.746094 131.535156 L 271.429688 131.910156 L 271.3125 131.621094 L 271.34375 131.941406 L 270.910156 131.738281 Z M 271.285156 132.054688 " fill-opacity="1" fill-rule="nonzero"/><path fill="#cba95c" d="M 111.671875 230.921875 L 112.539062 230.578125 L 111.613281 230.664062 L 112.191406 229.304688 L 111.238281 230.460938 L 110.890625 229.566406 L 111.003906 230.519531 L 109.648438 229.941406 L 110.773438 230.863281 L 109.90625 231.210938 L 110.832031 231.125 L 110.253906 232.484375 L 111.207031 231.355469 L 111.554688 232.222656 L 111.46875 231.269531 L 112.796875 231.847656 Z M 111.671875 230.921875 " fill-opacity="1" fill-rule="nonzero"/><path fill="#cba95c" d="M 254.117188 148.125 L 254.4375 148.007812 L 254.117188 148.039062 L 254.292969 147.574219 L 254.003906 147.953125 L 253.859375 147.664062 L 253.914062 147.980469 L 253.453125 147.777344 L 253.828125 148.097656 L 253.539062 148.210938 L 253.859375 148.183594 L 253.65625 148.644531 L 253.972656 148.269531 L 254.089844 148.558594 L 254.058594 148.242188 L 254.523438 148.441406 Z M 254.117188 148.125 " fill-opacity="1" fill-rule="nonzero"/><path fill="#cba95c" d="M 101.179688 162.460938 L 101.960938 162.140625 L 101.121094 162.226562 L 101.640625 161.042969 L 100.832031 162.027344 L 100.515625 161.273438 L 100.601562 162.082031 L 99.417969 161.59375 L 100.398438 162.402344 L 99.648438 162.691406 L 100.457031 162.632812 L 99.964844 163.789062 L 100.773438 162.804688 L 101.0625 163.585938 L 101.007812 162.746094 L 102.160156 163.269531 Z M 101.179688 162.460938 " fill-opacity="1" fill-rule="nonzero"/><path fill="#cba95c" d="M 258.453125 144.972656 L 258.480469 145.40625 L 258.570312 144.972656 L 259.117188 145.4375 L 258.714844 144.859375 L 259.175781 144.800781 L 258.742188 144.714844 L 259.175781 144.195312 L 258.597656 144.570312 L 258.570312 144.136719 L 258.480469 144.570312 L 257.933594 144.109375 L 258.335938 144.6875 L 257.875 144.742188 L 258.308594 144.828125 L 257.875 145.351562 Z M 258.453125 144.972656 " fill-opacity="1" fill-rule="nonzero"/><path fill="#cba95c" d="M 249.609375 135.292969 L 249.667969 135.726562 L 249.753906 135.292969 L 250.273438 135.726562 L 249.898438 135.148438 L 250.332031 135.121094 L 249.898438 135.03125 L 250.332031 134.484375 L 249.78125 134.886719 L 249.726562 134.453125 L 249.636719 134.886719 L 249.117188 134.425781 L 249.492188 135.003906 L 249.058594 135.0625 L 249.492188 135.148438 L 249.03125 135.667969 Z M 249.609375 135.292969 " fill-opacity="1" fill-rule="nonzero"/><path fill="#cba95c" d="M 256.113281 154.628906 L 256.082031 154.164062 L 255.996094 154.597656 L 255.449219 154.164062 L 255.851562 154.742188 L 255.390625 154.773438 L 255.824219 154.859375 L 255.390625 155.40625 L 255.96875 155.03125 L 255.996094 155.464844 L 256.082031 155.03125 L 256.632812 155.464844 L 256.257812 154.886719 L 256.691406 154.859375 L 256.257812 154.773438 L 256.691406 154.222656 Z M 256.113281 154.628906 " fill-opacity="1" fill-rule="nonzero"/><path fill="#cba95c" d="M 265.128906 130.351562 L 264.667969 130.378906 L 265.128906 130.464844 L 264.667969 130.988281 L 265.246094 130.609375 L 265.300781 131.042969 L 265.390625 130.609375 L 265.910156 131.074219 L 265.535156 130.496094 L 265.96875 130.4375 L 265.535156 130.351562 L 265.96875 129.832031 L 265.390625 130.207031 L 265.359375 129.773438 L 265.273438 130.207031 L 264.722656 129.773438 Z M 265.128906 130.351562 " fill-opacity="1" fill-rule="nonzero"/><path fill="#cba95c" d="M 257.152344 117.636719 L 256.691406 117.691406 L 257.152344 117.75 L 256.691406 118.300781 L 257.269531 117.925781 L 257.324219 118.359375 L 257.414062 117.925781 L 257.933594 118.359375 L 257.558594 117.78125 L 257.992188 117.75 L 257.558594 117.664062 L 257.992188 117.113281 L 257.414062 117.519531 L 257.382812 117.058594 L 257.296875 117.519531 L 256.746094 117.058594 Z M 257.152344 117.636719 " fill-opacity="1" fill-rule="nonzero"/><path fill="#cba95c" d="M 91.296875 159.859375 L 91.441406 161.359375 L 91.730469 159.886719 L 93.519531 161.390625 L 92.21875 159.453125 L 93.695312 159.308594 L 92.25 159.019531 L 93.722656 157.226562 L 91.785156 158.527344 L 91.640625 157.054688 L 91.351562 158.5 L 89.589844 157.027344 L 90.863281 158.960938 L 89.386719 159.078125 L 90.863281 159.367188 L 89.359375 161.160156 Z M 91.296875 159.859375 " fill-opacity="1" fill-rule="nonzero"/><path fill="#cba95c" d="M 192.648438 99.371094 L 192.761719 100.382812 L 192.9375 99.398438 L 194.152344 100.382812 L 193.285156 99.109375 L 194.265625 99.023438 L 193.285156 98.820312 L 194.296875 97.609375 L 192.996094 98.472656 L 192.90625 97.492188 L 192.707031 98.472656 L 191.519531 97.464844 L 192.386719 98.761719 L 191.375 98.851562 L 192.359375 99.050781 L 191.375 100.238281 Z M 192.648438 99.371094 " fill-opacity="1" fill-rule="nonzero"/><path fill="#cba95c" d="M 183.34375 99.976562 L 182.648438 101.363281 L 183.6875 100.238281 L 184.496094 102.519531 L 184.382812 100.09375 L 185.769531 100.785156 L 184.640625 99.746094 L 186.925781 98.964844 L 184.496094 99.050781 L 185.191406 97.664062 L 184.121094 98.792969 L 183.34375 96.507812 L 183.457031 98.9375 L 182.070312 98.242188 L 183.199219 99.3125 L 180.914062 100.09375 Z M 183.34375 99.976562 " fill-opacity="1" fill-rule="nonzero"/><path fill="#cba95c" d="M 225.679688 89.285156 L 224.699219 89.371094 L 225.652344 89.574219 L 224.667969 90.757812 L 225.96875 89.890625 L 226.054688 90.902344 L 226.230469 89.921875 L 227.445312 90.902344 L 226.578125 89.632812 L 227.558594 89.542969 L 226.578125 89.34375 L 227.585938 88.128906 L 226.289062 88.996094 L 226.199219 88.011719 L 226 88.996094 L 224.8125 87.984375 Z M 225.679688 89.285156 " fill-opacity="1" fill-rule="nonzero"/><path fill="#cba95c" d="M 214.726562 103.792969 L 214.4375 104.746094 L 214.988281 103.9375 L 215.710938 105.292969 L 215.421875 103.792969 L 216.347656 104.082031 L 215.535156 103.53125 L 216.921875 102.808594 L 215.390625 103.097656 L 215.679688 102.144531 L 215.132812 102.984375 L 214.410156 101.597656 L 214.699219 103.128906 L 213.773438 102.808594 L 214.582031 103.386719 L 213.195312 104.082031 Z M 214.726562 103.792969 " fill-opacity="1" fill-rule="nonzero"/><path fill="#cba95c" d="M 220.101562 90.902344 L 219.757812 89.976562 L 219.8125 90.960938 L 218.398438 90.324219 L 219.582031 91.335938 L 218.65625 91.683594 L 219.640625 91.597656 L 219.003906 93.042969 L 220.015625 91.855469 L 220.390625 92.78125 L 220.304688 91.796875 L 221.722656 92.433594 L 220.535156 91.421875 L 221.460938 91.046875 L 220.476562 91.132812 L 221.113281 89.71875 Z M 220.101562 90.902344 " fill-opacity="1" fill-rule="nonzero"/><path fill="#cba95c" d="M 263.25 161.824219 L 262.324219 162.171875 L 263.308594 162.113281 L 262.671875 163.527344 L 263.683594 162.34375 L 264.058594 163.269531 L 263.972656 162.285156 L 265.390625 162.921875 L 264.203125 161.910156 L 265.128906 161.5625 L 264.144531 161.621094 L 264.78125 160.203125 L 263.769531 161.390625 L 263.421875 160.464844 L 263.480469 161.449219 L 262.066406 160.8125 Z M 263.25 161.824219 " fill-opacity="1" fill-rule="nonzero"/><path fill="#cba95c" d="M 134.730469 230.605469 L 135.6875 230.230469 L 134.675781 230.316406 L 135.308594 228.898438 L 134.300781 230.085938 L 133.953125 229.160156 L 134.039062 230.144531 L 132.621094 229.507812 L 133.777344 230.519531 L 132.855469 230.863281 L 133.867188 230.777344 L 133.199219 232.222656 L 134.242188 231.039062 L 134.585938 231.964844 L 134.5 230.980469 L 135.917969 231.617188 Z M 134.730469 230.605469 " fill-opacity="1" fill-rule="nonzero"/><path fill="#cba95c" d="M 199.613281 91.421875 L 199.0625 91.652344 L 199.671875 91.597656 L 199.324219 92.433594 L 199.871094 91.710938 L 200.105469 92.261719 L 200.046875 91.683594 L 200.882812 92.03125 L 200.191406 91.453125 L 200.710938 91.21875 L 200.132812 91.277344 L 200.480469 90.441406 L 199.902344 91.164062 L 199.671875 90.613281 L 199.757812 91.191406 L 198.890625 90.84375 Z M 199.613281 91.421875 " fill-opacity="1" fill-rule="nonzero"/><g clip-path="url(#f7cb80f5a9)"><path fill="#cba95c" d="M 86.902344 161.996094 L 86.84375 161.417969 L 86.730469 161.996094 L 86.035156 161.417969 L 86.527344 162.171875 L 85.949219 162.226562 L 86.527344 162.34375 L 85.949219 163.035156 L 86.699219 162.546875 L 86.757812 163.125 L 86.875 162.546875 L 87.566406 163.125 L 87.078125 162.371094 L 87.65625 162.316406 L 87.078125 162.199219 L 87.65625 161.503906 Z M 86.902344 161.996094 " fill-opacity="1" fill-rule="nonzero"/></g><path fill="#cba95c" d="M 94.070312 163.414062 L 93.953125 163.992188 L 94.214844 163.46875 L 94.765625 164.222656 L 94.445312 163.355469 L 95.023438 163.441406 L 94.503906 163.179688 L 95.253906 162.660156 L 94.386719 162.949219 L 94.476562 162.371094 L 94.242188 162.890625 L 93.695312 162.171875 L 93.984375 163.035156 L 93.433594 162.921875 L 93.953125 163.179688 L 93.203125 163.703125 Z M 94.070312 163.414062 " fill-opacity="1" fill-rule="nonzero"/><path fill="#cba95c" d="M 207.242188 104.050781 L 207.300781 104.773438 L 207.445312 104.050781 L 208.339844 104.773438 L 207.703125 103.851562 L 208.425781 103.761719 L 207.703125 103.617188 L 208.425781 102.75 L 207.472656 103.386719 L 207.414062 102.664062 L 207.269531 103.386719 L 206.402344 102.636719 L 207.039062 103.589844 L 206.316406 103.675781 L 207.011719 103.792969 L 206.289062 104.6875 Z M 207.242188 104.050781 " fill-opacity="1" fill-rule="nonzero"/><path fill="#cba95c" d="M 201.519531 88.621094 L 201.578125 89.199219 L 201.695312 88.621094 L 202.386719 89.226562 L 201.894531 88.445312 L 202.472656 88.417969 L 201.894531 88.300781 L 202.472656 87.578125 L 201.722656 88.097656 L 201.664062 87.519531 L 201.550781 88.097656 L 200.855469 87.492188 L 201.375 88.273438 L 200.769531 88.300781 L 201.347656 88.417969 L 200.769531 89.140625 Z M 201.519531 88.621094 " fill-opacity="1" fill-rule="nonzero"/><path fill="#cba95c" d="M 214.121094 92.550781 L 214.613281 92.867188 L 213.800781 93.273438 L 214.699219 93.128906 L 214.523438 93.675781 L 214.84375 93.1875 L 215.277344 93.996094 L 215.101562 93.097656 L 215.652344 93.273438 L 215.160156 92.953125 L 216 92.550781 L 215.074219 92.695312 L 215.277344 92.144531 L 214.929688 92.636719 L 214.523438 91.828125 L 214.699219 92.722656 Z M 214.121094 92.550781 " fill-opacity="1" fill-rule="nonzero"/><path fill="#cba95c" d="M 190.796875 91.886719 L 190.855469 92.320312 L 190.941406 91.886719 L 191.464844 92.320312 L 191.085938 91.742188 L 191.519531 91.710938 L 191.085938 91.625 L 191.519531 91.105469 L 190.941406 91.480469 L 190.914062 91.046875 L 190.828125 91.480469 L 190.277344 91.019531 L 190.683594 91.597656 L 190.25 91.652344 L 190.683594 91.742188 L 190.21875 92.261719 Z M 190.796875 91.886719 " fill-opacity="1" fill-rule="nonzero"/><path fill="#cba95c" d="M 188.746094 97.320312 L 188.804688 97.753906 L 188.890625 97.320312 L 189.410156 97.78125 L 189.035156 97.203125 L 189.46875 97.144531 L 189.035156 97.058594 L 189.496094 96.539062 L 188.917969 96.914062 L 188.863281 96.480469 L 188.773438 96.914062 L 188.253906 96.453125 L 188.628906 97.03125 L 188.195312 97.085938 L 188.628906 97.175781 L 188.195312 97.695312 Z M 188.746094 97.320312 " fill-opacity="1" fill-rule="nonzero"/><path fill="#cba95c" d="M 130.050781 123.300781 L 130.109375 123.734375 L 130.195312 123.300781 L 130.714844 123.734375 L 130.339844 123.15625 L 130.773438 123.125 L 130.339844 123.039062 L 130.773438 122.519531 L 130.195312 122.894531 L 130.167969 122.460938 L 130.078125 122.894531 L 129.558594 122.433594 L 129.933594 123.011719 L 129.5 123.070312 L 129.933594 123.15625 L 129.472656 123.675781 Z M 130.050781 123.300781 " fill-opacity="1" fill-rule="nonzero"/><path fill="#cba95c" d="M 198.917969 100.0625 L 198.949219 100.496094 L 199.035156 100.0625 L 199.582031 100.527344 L 199.207031 99.949219 L 199.640625 99.890625 L 199.207031 99.804688 L 199.640625 99.285156 L 199.0625 99.660156 L 199.035156 99.226562 L 198.949219 99.660156 L 198.398438 99.226562 L 198.804688 99.804688 L 198.339844 99.832031 L 198.773438 99.917969 L 198.339844 100.46875 Z M 198.917969 100.0625 " fill-opacity="1" fill-rule="nonzero"/><path fill="#cba95c" d="M 203.339844 98.445312 L 203.371094 98.90625 L 203.457031 98.472656 L 204.003906 98.90625 L 203.628906 98.328125 L 204.0625 98.300781 L 203.628906 98.214844 L 204.0625 97.664062 L 203.484375 98.042969 L 203.457031 97.609375 L 203.371094 98.042969 L 202.820312 97.609375 L 203.226562 98.183594 L 202.761719 98.214844 L 203.195312 98.300781 L 202.761719 98.851562 Z M 203.339844 98.445312 " fill-opacity="1" fill-rule="nonzero"/><path fill="#cba95c" d="M 205.105469 93.300781 L 205.132812 93.734375 L 205.21875 93.300781 L 205.738281 93.734375 L 205.363281 93.15625 L 205.796875 93.128906 L 205.363281 93.042969 L 205.828125 92.519531 L 205.25 92.898438 L 205.191406 92.464844 L 205.105469 92.898438 L 204.582031 92.433594 L 204.960938 93.011719 L 204.527344 93.070312 L 204.960938 93.15625 L 204.527344 93.675781 Z M 205.105469 93.300781 " fill-opacity="1" fill-rule="nonzero"/><path fill="#cba95c" d="M 208.195312 84.3125 L 208.226562 84.746094 L 208.3125 84.3125 L 208.859375 84.746094 L 208.484375 84.167969 L 208.917969 84.140625 L 208.484375 84.054688 L 208.917969 83.503906 L 208.339844 83.910156 L 208.3125 83.445312 L 208.226562 83.910156 L 207.675781 83.445312 L 208.082031 84.023438 L 207.617188 84.082031 L 208.050781 84.167969 L 207.617188 84.6875 Z M 208.195312 84.3125 " fill-opacity="1" fill-rule="nonzero"/><path fill="#cba95c" d="M 187.097656 91.652344 L 187.15625 92.085938 L 187.242188 91.652344 L 187.765625 92.085938 L 187.386719 91.507812 L 187.820312 91.480469 L 187.386719 91.394531 L 187.820312 90.84375 L 187.242188 91.25 L 187.214844 90.789062 L 187.128906 91.25 L 186.609375 90.789062 L 186.984375 91.363281 L 186.550781 91.421875 L 186.984375 91.507812 L 186.519531 92.03125 Z M 187.097656 91.652344 " fill-opacity="1" fill-rule="nonzero"/><g fill="#cba95c" fill-opacity="1"><g transform="translate(134.07122, 201.546973)"><g><path d="M 16.046875 0 L 1.609375 0 L 1.609375 -0.53125 C 3.140625 -0.53125 4.25 -0.992188 4.9375 -1.921875 C 5.632812 -2.847656 6.070312 -4.363281 6.25 -6.46875 C 6.4375 -8.570312 6.53125 -11.375 6.53125 -14.875 L 6.53125 -38.625 C 6.53125 -42.15625 6.4375 -44.960938 6.25 -47.046875 C 6.070312 -49.140625 5.632812 -50.648438 4.9375 -51.578125 C 4.25 -52.503906 3.140625 -52.96875 1.609375 -52.96875 L 1.609375 -53.5 L 16.046875 -53.5 L 16.046875 -52.96875 C 14.515625 -52.96875 13.398438 -52.503906 12.703125 -51.578125 C 12.003906 -50.648438 11.566406 -49.140625 11.390625 -47.046875 C 11.210938 -44.960938 11.125 -42.15625 11.125 -38.625 L 11.125 -29.265625 C 11.445312 -29.972656 12.160156 -30.675781 13.265625 -31.375 C 14.367188 -32.070312 15.722656 -32.421875 17.328125 -32.421875 C 19.117188 -32.421875 20.816406 -32.144531 22.421875 -31.59375 C 24.023438 -31.039062 25.59375 -30.488281 27.125 -29.9375 C 28.65625 -29.382812 30.207031 -29.109375 31.78125 -29.109375 C 32.8125 -29.109375 33.726562 -29.382812 34.53125 -29.9375 C 35.332031 -30.488281 35.734375 -31.226562 35.734375 -32.15625 L 36.265625 -32.15625 C 36.265625 -30.582031 35.648438 -29.207031 34.421875 -28.03125 C 33.191406 -26.851562 31.523438 -26.265625 29.421875 -26.265625 C 27.785156 -26.265625 26.285156 -26.503906 24.921875 -26.984375 C 23.566406 -27.472656 22.300781 -28.019531 21.125 -28.625 C 19.945312 -29.226562 18.847656 -29.769531 17.828125 -30.25 C 16.816406 -30.726562 15.832031 -30.96875 14.875 -30.96875 C 13.476562 -30.96875 12.503906 -30.492188 11.953125 -29.546875 C 11.398438 -28.609375 11.125 -27.515625 11.125 -26.265625 L 11.125 -14.875 C 11.125 -11.375 11.210938 -8.570312 11.390625 -6.46875 C 11.566406 -4.363281 12.003906 -2.847656 12.703125 -1.921875 C 13.398438 -0.992188 14.515625 -0.53125 16.046875 -0.53125 Z M 32.953125 -52.96875 L 32.953125 -53.5 L 47.40625 -53.5 L 47.40625 -52.96875 C 45.863281 -52.96875 44.742188 -52.503906 44.046875 -51.578125 C 43.359375 -50.648438 42.925781 -49.140625 42.75 -47.046875 C 42.570312 -44.960938 42.484375 -42.15625 42.484375 -38.625 L 42.484375 -14.875 C 42.484375 -11.375 42.570312 -8.570312 42.75 -6.46875 C 42.925781 -4.363281 43.359375 -2.847656 44.046875 -1.921875 C 44.742188 -0.992188 45.863281 -0.53125 47.40625 -0.53125 L 47.40625 0 L 32.953125 0 L 32.953125 -0.53125 C 34.484375 -0.53125 35.597656 -0.992188 36.296875 -1.921875 C 36.992188 -2.847656 37.429688 -4.363281 37.609375 -6.46875 C 37.785156 -8.570312 37.875 -11.375 37.875 -14.875 L 37.875 -38.625 C 37.875 -42.15625 37.785156 -44.960938 37.609375 -47.046875 C 37.429688 -49.140625 36.992188 -50.648438 36.296875 -51.578125 C 35.597656 -52.503906 34.484375 -52.96875 32.953125 -52.96875 Z M 32.953125 -52.96875 "/></g></g></g><g fill="#cba95c" fill-opacity="1"><g transform="translate(183.073662, 201.546973)"><g><path d="M 1.609375 -53.5 L 10.21875 -53.5 L 30.765625 -10.375 L 46.8125 -53.5 L 56.234375 -53.5 L 56.234375 -52.96875 C 54.691406 -52.96875 53.570312 -52.503906 52.875 -51.578125 C 52.1875 -50.648438 51.753906 -49.140625 51.578125 -47.046875 C 51.398438 -44.960938 51.3125 -42.15625 51.3125 -38.625 L 51.3125 -14.875 C 51.3125 -11.375 51.398438 -8.570312 51.578125 -6.46875 C 51.753906 -4.363281 52.1875 -2.847656 52.875 -1.921875 C 53.570312 -0.992188 54.691406 -0.53125 56.234375 -0.53125 L 56.234375 0 L 41.78125 0 L 41.78125 -0.53125 C 43.3125 -0.53125 44.425781 -0.992188 45.125 -1.921875 C 45.820312 -2.847656 46.257812 -4.363281 46.4375 -6.46875 C 46.613281 -8.570312 46.703125 -11.375 46.703125 -14.875 L 46.703125 -51.734375 C 44.773438 -46.597656 42.863281 -41.476562 40.96875 -36.375 C 39.082031 -31.28125 37.160156 -26.066406 35.203125 -20.734375 C 33.242188 -15.398438 31.15625 -9.789062 28.9375 -3.90625 L 28.46875 -3.90625 C 26.789062 -7.507812 25.226562 -10.851562 23.78125 -13.9375 C 22.332031 -17.019531 20.957031 -19.96875 19.65625 -22.78125 C 18.351562 -25.601562 17.039062 -28.414062 15.71875 -31.21875 C 14.40625 -34.019531 13.050781 -36.925781 11.65625 -39.9375 C 10.269531 -42.945312 8.753906 -46.203125 7.109375 -49.703125 L 7.0625 -26.75 L 7.0625 -19.953125 C 7.0625 -16.066406 7.3125 -12.859375 7.8125 -10.328125 C 8.3125 -7.796875 8.988281 -5.816406 9.84375 -4.390625 C 10.695312 -2.960938 11.660156 -1.960938 12.734375 -1.390625 C 13.804688 -0.816406 14.910156 -0.53125 16.046875 -0.53125 L 16.046875 0 L 1.609375 0 L 1.609375 -0.53125 C 3.140625 -0.53125 4.25 -0.992188 4.9375 -1.921875 C 5.632812 -2.847656 6.070312 -4.363281 6.25 -6.46875 C 6.4375 -8.570312 6.53125 -11.375 6.53125 -14.875 L 6.53125 -38.625 C 6.53125 -42.15625 6.4375 -44.960938 6.25 -47.046875 C 6.070312 -49.140625 5.632812 -50.648438 4.9375 -51.578125 C 4.25 -52.503906 3.140625 -52.96875 1.609375 -52.96875 Z M 1.609375 -53.5 "/></g></g></g><g fill="#cba95c" fill-opacity="1"><g transform="translate(77.294958, 293.05233)"><g><path d="M 11.3125 -14.296875 L 13.421875 -14.296875 L 13.421875 -3.140625 L 3.953125 -14.9375 L 0.5 -14.9375 L 0.5 -14.296875 L 2.484375 -14.296875 L 2.484375 -0.640625 L 0.5 -0.640625 L 0.5 0 L 5.609375 0 C 5.609375 -0.363281 5.472656 -0.570312 5.203125 -0.625 C 5.117188 -0.632812 5.035156 -0.640625 4.953125 -0.640625 L 3.484375 -0.640625 L 3.484375 -12.171875 L 13.265625 0.125 L 14.421875 -0.125 L 14.421875 -14.296875 L 16.40625 -14.296875 L 16.40625 -14.9375 L 11.3125 -14.9375 Z M 11.3125 -14.296875 "/></g></g></g><g fill="#cba95c" fill-opacity="1"><g transform="translate(93.957976, 293.05233)"><g><path d="M 8.84375 -15.1875 C 6.851562 -15.1875 5.140625 -14.53125 3.703125 -13.21875 C 2.148438 -11.78125 1.375 -9.898438 1.375 -7.578125 C 1.375 -4.878906 2.296875 -2.800781 4.140625 -1.34375 C 5.484375 -0.28125 7.023438 0.25 8.765625 0.25 C 10.722656 0.25 12.410156 -0.414062 13.828125 -1.75 C 15.398438 -3.21875 16.1875 -5.125 16.1875 -7.46875 C 16.1875 -10.207031 15.234375 -12.289062 13.328125 -13.71875 C 12.023438 -14.695312 10.53125 -15.1875 8.84375 -15.1875 Z M 8.84375 -0.453125 C 6.4375 -0.453125 4.890625 -1.738281 4.203125 -4.3125 C 3.972656 -5.21875 3.859375 -6.269531 3.859375 -7.46875 C 3.859375 -11.414062 5.054688 -13.707031 7.453125 -14.34375 C 7.859375 -14.445312 8.296875 -14.5 8.765625 -14.5 C 12.035156 -14.457031 13.679688 -12.148438 13.703125 -7.578125 C 13.703125 -3.953125 12.695312 -1.703125 10.6875 -0.828125 C 10.125 -0.578125 9.507812 -0.453125 8.84375 -0.453125 Z M 8.84375 -0.453125 "/></g></g></g><g fill="#cba95c" fill-opacity="1"><g transform="translate(111.517659, 293.05233)"><g/></g></g><g fill="#cba95c" fill-opacity="1"><g transform="translate(116.374593, 293.05233)"><g><path d="M 12.109375 -3.90625 C 12.109375 -5.382812 11.3125 -6.570312 9.71875 -7.46875 C 9.394531 -7.632812 8.421875 -8.078125 6.796875 -8.796875 C 5.316406 -9.421875 4.390625 -10.066406 4.015625 -10.734375 C 3.804688 -11.097656 3.703125 -11.488281 3.703125 -11.90625 C 3.703125 -13.019531 4.242188 -13.789062 5.328125 -14.21875 C 5.796875 -14.40625 6.3125 -14.5 6.875 -14.5 C 8.269531 -14.5 9.332031 -14.023438 10.0625 -13.078125 C 10.539062 -12.429688 10.773438 -11.640625 10.765625 -10.703125 L 11.5 -10.703125 L 11.5 -15.0625 C 11.101562 -15.0625 10.875 -14.9375 10.8125 -14.6875 C 10.78125 -14.570312 10.765625 -14.414062 10.765625 -14.21875 C 9.578125 -14.863281 8.25 -15.1875 6.78125 -15.1875 C 4.976562 -15.1875 3.582031 -14.691406 2.59375 -13.703125 C 1.925781 -13.003906 1.59375 -12.1875 1.59375 -11.25 C 1.59375 -9.863281 2.375 -8.726562 3.9375 -7.84375 C 4.21875 -7.695312 5.164062 -7.273438 6.78125 -6.578125 C 8.269531 -5.910156 9.210938 -5.238281 9.609375 -4.5625 C 9.828125 -4.175781 9.9375 -3.757812 9.9375 -3.3125 C 9.9375 -2.144531 9.375 -1.304688 8.25 -0.796875 C 7.71875 -0.566406 7.125 -0.453125 6.46875 -0.453125 C 3.9375 -0.484375 2.523438 -2.035156 2.234375 -5.109375 L 1.5 -5.109375 L 1.5 0.046875 C 1.894531 0.046875 2.125 -0.0664062 2.1875 -0.296875 C 2.21875 -0.429688 2.234375 -0.671875 2.234375 -1.015625 C 3.515625 -0.171875 4.96875 0.25 6.59375 0.25 C 8.507812 0.25 9.988281 -0.265625 11.03125 -1.296875 C 11.75 -2.023438 12.109375 -2.894531 12.109375 -3.90625 Z M 12.109375 -3.90625 "/></g></g></g><g fill="#cba95c" fill-opacity="1"><g transform="translate(129.724933, 293.05233)"><g><path d="M 10.03125 0 C 10.03125 -0.363281 9.898438 -0.570312 9.640625 -0.625 C 9.554688 -0.632812 9.472656 -0.640625 9.390625 -0.640625 L 8.046875 -0.640625 L 8.046875 -6.203125 L 11.796875 -13.59375 C 12.179688 -14.039062 12.632812 -14.273438 13.15625 -14.296875 C 13.519531 -14.296875 13.722656 -14.425781 13.765625 -14.6875 C 13.785156 -14.769531 13.796875 -14.851562 13.796875 -14.9375 L 9.359375 -14.9375 L 9.359375 -14.296875 L 11.359375 -14.296875 L 7.578125 -7.046875 L 3.609375 -14.296875 L 5.5 -14.296875 L 5.5 -14.9375 L -0.125 -14.9375 L -0.125 -14.296875 L 1.25 -14.296875 L 5.921875 -5.953125 L 5.921875 -0.640625 L 3.9375 -0.640625 L 3.9375 0 Z M 10.03125 0 "/></g></g></g><g fill="#cba95c" fill-opacity="1"><g transform="translate(143.523606, 293.05233)"><g><path d="M 12.109375 -3.90625 C 12.109375 -5.382812 11.3125 -6.570312 9.71875 -7.46875 C 9.394531 -7.632812 8.421875 -8.078125 6.796875 -8.796875 C 5.316406 -9.421875 4.390625 -10.066406 4.015625 -10.734375 C 3.804688 -11.097656 3.703125 -11.488281 3.703125 -11.90625 C 3.703125 -13.019531 4.242188 -13.789062 5.328125 -14.21875 C 5.796875 -14.40625 6.3125 -14.5 6.875 -14.5 C 8.269531 -14.5 9.332031 -14.023438 10.0625 -13.078125 C 10.539062 -12.429688 10.773438 -11.640625 10.765625 -10.703125 L 11.5 -10.703125 L 11.5 -15.0625 C 11.101562 -15.0625 10.875 -14.9375 10.8125 -14.6875 C 10.78125 -14.570312 10.765625 -14.414062 10.765625 -14.21875 C 9.578125 -14.863281 8.25 -15.1875 6.78125 -15.1875 C 4.976562 -15.1875 3.582031 -14.691406 2.59375 -13.703125 C 1.925781 -13.003906 1.59375 -12.1875 1.59375 -11.25 C 1.59375 -9.863281 2.375 -8.726562 3.9375 -7.84375 C 4.21875 -7.695312 5.164062 -7.273438 6.78125 -6.578125 C 8.269531 -5.910156 9.210938 -5.238281 9.609375 -4.5625 C 9.828125 -4.175781 9.9375 -3.757812 9.9375 -3.3125 C 9.9375 -2.144531 9.375 -1.304688 8.25 -0.796875 C 7.71875 -0.566406 7.125 -0.453125 6.46875 -0.453125 C 3.9375 -0.484375 2.523438 -2.035156 2.234375 -5.109375 L 1.5 -5.109375 L 1.5 0.046875 C 1.894531 0.046875 2.125 -0.0664062 2.1875 -0.296875 C 2.21875 -0.429688 2.234375 -0.671875 2.234375 -1.015625 C 3.515625 -0.171875 4.96875 0.25 6.59375 0.25 C 8.507812 0.25 9.988281 -0.265625 11.03125 -1.296875 C 11.75 -2.023438 12.109375 -2.894531 12.109375 -3.90625 Z M 12.109375 -3.90625 "/></g></g></g><g fill="#cba95c" fill-opacity="1"><g transform="translate(156.873946, 293.05233)"><g><path d="M 10.515625 0 C 10.515625 -0.363281 10.378906 -0.570312 10.109375 -0.625 C 10.023438 -0.632812 9.941406 -0.640625 9.859375 -0.640625 L 8.171875 -0.640625 L 8.171875 -14.296875 L 9.609375 -14.296875 C 10.953125 -14.296875 11.847656 -13.484375 12.296875 -11.859375 C 12.296875 -11.785156 12.304688 -11.734375 12.328125 -11.703125 L 12.71875 -10.03125 L 13.421875 -10.03125 L 13.296875 -14.9375 L 1 -14.9375 L 0.875 -10.03125 L 1.5625 -10.03125 L 1.96875 -11.703125 C 2.5 -13.328125 3.40625 -14.191406 4.6875 -14.296875 L 6.03125 -14.296875 L 6.03125 -0.640625 L 3.65625 -0.640625 L 3.65625 0 Z M 10.515625 0 "/></g></g></g><g fill="#cba95c" fill-opacity="1"><g transform="translate(171.170766, 293.05233)"><g><path d="M 12.59375 -10.453125 L 12.46875 -14.9375 L 1 -14.9375 L 1 -14.296875 L 2.984375 -14.296875 L 2.984375 -0.640625 L 1 -0.640625 L 1 0 L 12.46875 0 L 12.59375 -4.484375 L 12.109375 -4.484375 L 11.75 -3.3125 C 11.332031 -1.90625 10.71875 -1.054688 9.90625 -0.765625 C 9.65625 -0.679688 9.390625 -0.640625 9.109375 -0.640625 L 5.125 -0.640625 L 5.125 -7.34375 L 10.265625 -7.34375 L 10.265625 -8.0625 L 5.125 -8.0625 L 5.125 -14.296875 L 9.109375 -14.296875 C 10.304688 -14.296875 11.160156 -13.488281 11.671875 -11.875 C 11.710938 -11.78125 11.738281 -11.695312 11.75 -11.625 L 12.109375 -10.453125 Z M 12.59375 -10.453125 "/></g></g></g><g fill="#cba95c" fill-opacity="1"><g transform="translate(185.019253, 293.05233)"><g><path d="M 19.453125 -14.9375 L 15.46875 -14.9375 L 10.078125 -2.765625 L 4.3125 -14.9375 L 0.75 -14.9375 L 0.75 -14.296875 L 2.734375 -14.296875 L 2.734375 -0.640625 L 0.75 -0.640625 L 0.75 0 L 5.734375 0 C 5.734375 -0.363281 5.597656 -0.570312 5.328125 -0.625 C 5.242188 -0.632812 5.160156 -0.640625 5.078125 -0.640625 L 3.734375 -0.640625 L 3.734375 -11.359375 L 9.1875 0.125 L 9.71875 0.125 L 15.46875 -12.703125 L 15.46875 -0.640625 L 13.46875 -0.640625 L 13.46875 0 L 19.453125 0 C 19.453125 -0.363281 19.316406 -0.570312 19.046875 -0.625 C 18.960938 -0.632812 18.878906 -0.640625 18.796875 -0.640625 L 17.453125 -0.640625 L 17.453125 -14.296875 L 19.453125 -14.296875 Z M 19.453125 -14.9375 "/></g></g></g><g fill="#cba95c" fill-opacity="1"><g transform="translate(205.219115, 293.05233)"><g/></g></g><g fill="#cba95c" fill-opacity="1"><g transform="translate(210.076049, 293.05233)"><g><path d="M 7.09375 0 C 7.09375 -0.363281 6.960938 -0.570312 6.703125 -0.625 C 6.617188 -0.632812 6.535156 -0.640625 6.453125 -0.640625 L 5.125 -0.640625 L 5.125 -14.296875 L 7.09375 -14.296875 L 7.09375 -14.9375 L 1 -14.9375 L 1 -14.296875 L 2.984375 -14.296875 L 2.984375 -0.640625 L 1 -0.640625 L 1 0 Z M 7.09375 0 "/></g></g></g><g fill="#cba95c" fill-opacity="1"><g transform="translate(218.170938, 293.05233)"><g><path d="M 12.109375 -3.90625 C 12.109375 -5.382812 11.3125 -6.570312 9.71875 -7.46875 C 9.394531 -7.632812 8.421875 -8.078125 6.796875 -8.796875 C 5.316406 -9.421875 4.390625 -10.066406 4.015625 -10.734375 C 3.804688 -11.097656 3.703125 -11.488281 3.703125 -11.90625 C 3.703125 -13.019531 4.242188 -13.789062 5.328125 -14.21875 C 5.796875 -14.40625 6.3125 -14.5 6.875 -14.5 C 8.269531 -14.5 9.332031 -14.023438 10.0625 -13.078125 C 10.539062 -12.429688 10.773438 -11.640625 10.765625 -10.703125 L 11.5 -10.703125 L 11.5 -15.0625 C 11.101562 -15.0625 10.875 -14.9375 10.8125 -14.6875 C 10.78125 -14.570312 10.765625 -14.414062 10.765625 -14.21875 C 9.578125 -14.863281 8.25 -15.1875 6.78125 -15.1875 C 4.976562 -15.1875 3.582031 -14.691406 2.59375 -13.703125 C 1.925781 -13.003906 1.59375 -12.1875 1.59375 -11.25 C 1.59375 -9.863281 2.375 -8.726562 3.9375 -7.84375 C 4.21875 -7.695312 5.164062 -7.273438 6.78125 -6.578125 C 8.269531 -5.910156 9.210938 -5.238281 9.609375 -4.5625 C 9.828125 -4.175781 9.9375 -3.757812 9.9375 -3.3125 C 9.9375 -2.144531 9.375 -1.304688 8.25 -0.796875 C 7.71875 -0.566406 7.125 -0.453125 6.46875 -0.453125 C 3.9375 -0.484375 2.523438 -2.035156 2.234375 -5.109375 L 1.5 -5.109375 L 1.5 0.046875 C 1.894531 0.046875 2.125 -0.0664062 2.1875 -0.296875 C 2.21875 -0.429688 2.234375 -0.671875 2.234375 -1.015625 C 3.515625 -0.171875 4.96875 0.25 6.59375 0.25 C 8.507812 0.25 9.988281 -0.265625 11.03125 -1.296875 C 11.75 -2.023438 12.109375 -2.894531 12.109375 -3.90625 Z M 12.109375 -3.90625 "/></g></g></g><g fill="#cba95c" fill-opacity="1"><g transform="translate(231.521279, 293.05233)"><g/></g></g><g fill="#cba95c" fill-opacity="1"><g transform="translate(236.378212, 293.05233)"><g><path d="M 12.109375 -3.90625 C 12.109375 -5.382812 11.3125 -6.570312 9.71875 -7.46875 C 9.394531 -7.632812 8.421875 -8.078125 6.796875 -8.796875 C 5.316406 -9.421875 4.390625 -10.066406 4.015625 -10.734375 C 3.804688 -11.097656 3.703125 -11.488281 3.703125 -11.90625 C 3.703125 -13.019531 4.242188 -13.789062 5.328125 -14.21875 C 5.796875 -14.40625 6.3125 -14.5 6.875 -14.5 C 8.269531 -14.5 9.332031 -14.023438 10.0625 -13.078125 C 10.539062 -12.429688 10.773438 -11.640625 10.765625 -10.703125 L 11.5 -10.703125 L 11.5 -15.0625 C 11.101562 -15.0625 10.875 -14.9375 10.8125 -14.6875 C 10.78125 -14.570312 10.765625 -14.414062 10.765625 -14.21875 C 9.578125 -14.863281 8.25 -15.1875 6.78125 -15.1875 C 4.976562 -15.1875 3.582031 -14.691406 2.59375 -13.703125 C 1.925781 -13.003906 1.59375 -12.1875 1.59375 -11.25 C 1.59375 -9.863281 2.375 -8.726562 3.9375 -7.84375 C 4.21875 -7.695312 5.164062 -7.273438 6.78125 -6.578125 C 8.269531 -5.910156 9.210938 -5.238281 9.609375 -4.5625 C 9.828125 -4.175781 9.9375 -3.757812 9.9375 -3.3125 C 9.9375 -2.144531 9.375 -1.304688 8.25 -0.796875 C 7.71875 -0.566406 7.125 -0.453125 6.46875 -0.453125 C 3.9375 -0.484375 2.523438 -2.035156 2.234375 -5.109375 L 1.5 -5.109375 L 1.5 0.046875 C 1.894531 0.046875 2.125 -0.0664062 2.1875 -0.296875 C 2.21875 -0.429688 2.234375 -0.671875 2.234375 -1.015625 C 3.515625 -0.171875 4.96875 0.25 6.59375 0.25 C 8.507812 0.25 9.988281 -0.265625 11.03125 -1.296875 C 11.75 -2.023438 12.109375 -2.894531 12.109375 -3.90625 Z M 12.109375 -3.90625 "/></g></g></g><g fill="#cba95c" fill-opacity="1"><g transform="translate(249.728552, 293.05233)"><g><path d="M 15.265625 0 C 15.265625 -0.363281 15.128906 -0.570312 14.859375 -0.625 C 14.785156 -0.632812 14.707031 -0.640625 14.625 -0.640625 L 13.765625 -0.640625 L 8.0625 -14.9375 L 7.140625 -14.9375 L 1.5625 -0.640625 L 0 -0.640625 L 0 0 L 4.4375 0 C 4.4375 -0.363281 4.300781 -0.570312 4.03125 -0.625 C 3.945312 -0.632812 3.863281 -0.640625 3.78125 -0.640625 L 2.5625 -0.640625 L 4.4375 -5.484375 L 9.640625 -5.484375 L 11.5 -0.640625 L 9.890625 -0.640625 L 9.890625 0 Z M 9.359375 -6.203125 L 4.703125 -6.203125 L 7.015625 -12.234375 Z M 9.359375 -6.203125 "/></g></g></g><g fill="#cba95c" fill-opacity="1"><g transform="translate(264.996759, 293.05233)"><g><path d="M 8.125 0 L 8.125 -0.640625 L 5.125 -0.640625 L 5.125 -7.34375 L 10.265625 -7.34375 L 10.265625 -8.0625 L 5.125 -8.0625 L 5.125 -14.296875 L 9.109375 -14.296875 C 10.304688 -14.296875 11.160156 -13.488281 11.671875 -11.875 C 11.710938 -11.78125 11.738281 -11.695312 11.75 -11.625 L 12.109375 -10.453125 L 12.59375 -10.453125 L 12.46875 -14.9375 L 1 -14.9375 L 1 -14.296875 L 2.984375 -14.296875 L 2.984375 -0.640625 L 1 -0.640625 L 1 0 Z M 8.125 0 "/></g></g></g><g fill="#cba95c" fill-opacity="1"><g transform="translate(277.848952, 293.05233)"><g><path d="M 12.59375 -10.453125 L 12.46875 -14.9375 L 1 -14.9375 L 1 -14.296875 L 2.984375 -14.296875 L 2.984375 -0.640625 L 1 -0.640625 L 1 0 L 12.46875 0 L 12.59375 -4.484375 L 12.109375 -4.484375 L 11.75 -3.3125 C 11.332031 -1.90625 10.71875 -1.054688 9.90625 -0.765625 C 9.65625 -0.679688 9.390625 -0.640625 9.109375 -0.640625 L 5.125 -0.640625 L 5.125 -7.34375 L 10.265625 -7.34375 L 10.265625 -8.0625 L 5.125 -8.0625 L 5.125 -14.296875 L 9.109375 -14.296875 C 10.304688 -14.296875 11.160156 -13.488281 11.671875 -11.875 C 11.710938 -11.78125 11.738281 -11.695312 11.75 -11.625 L 12.109375 -10.453125 Z M 12.59375 -10.453125 "/></g></g></g></svg>