<svg xmlns="http://www.w3.org/2000/svg" xmlns:xlink="http://www.w3.org/1999/xlink" width="500" zoomAndPan="magnify" viewBox="0 0 375 374.999991" height="500" preserveAspectRatio="xMidYMid meet" version="1.0"><defs><g/><clipPath id="5c01a0f97c"><path d="M 112.5 201 L 262.5 201 L 262.5 212.25 L 112.5 212.25 Z M 112.5 201 " clip-rule="nonzero"/></clipPath><clipPath id="db8b27df98"><path d="M 256.929688 202.046875 C 256.929688 203.855469 255.507812 205.324219 253.753906 205.324219 L 194.871094 205.324219 C 194.746094 205.324219 194.648438 205.21875 194.648438 205.09375 C 194.648438 204.964844 194.746094 204.859375 194.871094 204.859375 L 253.753906 204.859375 C 255.257812 204.859375 256.480469 203.597656 256.480469 202.046875 C 256.480469 201.917969 256.582031 201.816406 256.707031 201.816406 C 256.828125 201.816406 256.929688 201.917969 256.929688 202.046875 Z M 253.753906 206.863281 L 194.871094 206.863281 C 194.746094 206.863281 194.648438 206.96875 194.648438 207.097656 C 194.648438 207.226562 194.746094 207.328125 194.871094 207.328125 L 253.753906 207.328125 C 255.257812 207.328125 256.480469 208.589844 256.480469 210.140625 C 256.480469 210.269531 256.582031 210.375 256.707031 210.375 C 256.828125 210.375 256.929688 210.269531 256.929688 210.140625 C 256.929688 208.335938 255.507812 206.863281 253.753906 206.863281 Z M 188.542969 205.996094 L 189.578125 203.78125 L 187.808594 205.429688 L 187.027344 203.105469 L 186.90625 205.5625 L 184.757812 204.492188 L 186.355469 206.316406 L 184.105469 207.125 L 186.484375 207.253906 L 185.449219 209.46875 L 187.214844 207.820312 L 188 210.140625 L 188.121094 207.683594 L 190.265625 208.757812 L 188.671875 206.929688 L 190.921875 206.121094 Z M 192.960938 206.625 C 192.960938 209.726562 190.519531 212.25 187.511719 212.25 C 184.507812 212.25 182.0625 209.726562 182.0625 206.625 C 182.0625 203.523438 184.507812 201 187.511719 201 C 190.519531 201 192.960938 203.523438 192.960938 206.625 Z M 192.511719 206.625 C 192.511719 203.777344 190.269531 201.460938 187.511719 201.460938 C 184.757812 201.460938 182.511719 203.777344 182.511719 206.625 C 182.511719 209.46875 184.757812 211.785156 187.511719 211.785156 C 190.269531 211.785156 192.511719 209.46875 192.511719 206.625 Z M 259.964844 203.667969 L 257.566406 206.144531 L 259.964844 208.621094 L 262.363281 206.144531 Z M 180.140625 204.859375 L 121.257812 204.859375 C 119.753906 204.859375 118.53125 203.597656 118.53125 202.046875 C 118.53125 201.917969 118.429688 201.816406 118.304688 201.816406 C 118.183594 201.816406 118.082031 201.917969 118.082031 202.046875 C 118.082031 203.855469 119.503906 205.324219 121.257812 205.324219 L 180.140625 205.324219 C 180.265625 205.324219 180.363281 205.21875 180.363281 205.09375 C 180.363281 204.964844 180.265625 204.859375 180.140625 204.859375 Z M 180.140625 206.863281 L 121.257812 206.863281 C 119.503906 206.863281 118.082031 208.335938 118.082031 210.140625 C 118.082031 210.269531 118.183594 210.375 118.304688 210.375 C 118.429688 210.375 118.53125 210.269531 118.53125 210.140625 C 118.53125 208.589844 119.753906 207.328125 121.257812 207.328125 L 180.140625 207.328125 C 180.265625 207.328125 180.363281 207.226562 180.363281 207.097656 C 180.363281 206.96875 180.265625 206.863281 180.140625 206.863281 Z M 112.648438 206.144531 L 115.046875 208.621094 L 117.445312 206.144531 L 115.046875 203.667969 Z M 112.648438 206.144531 " clip-rule="nonzero"/></clipPath><linearGradient x1="-0.00000632472" gradientTransform="matrix(0.299408, 0, 0, 0.309066, 112.648096, 200.999005)" y1="18.200001" x2="500.039214" gradientUnits="userSpaceOnUse" y2="18.200001" id="46de979579"><stop stop-opacity="1" stop-color="rgb(84.698486%, 67.098999%, 23.899841%)" offset="0"/><stop stop-opacity="1" stop-color="rgb(84.803772%, 67.308044%, 24.186707%)" offset="0.00390625"/><stop stop-opacity="1" stop-color="rgb(84.909058%, 67.518616%, 24.475098%)" offset="0.0078125"/><stop stop-opacity="1" stop-color="rgb(85.012817%, 67.727661%, 24.763489%)" offset="0.0117187"/><stop stop-opacity="1" stop-color="rgb(85.118103%, 67.936707%, 25.05188%)" offset="0.015625"/><stop stop-opacity="1" stop-color="rgb(85.221863%, 68.145752%, 25.340271%)" offset="0.0195312"/><stop stop-opacity="1" stop-color="rgb(85.327148%, 68.356323%, 25.628662%)" offset="0.0234375"/><stop stop-opacity="1" stop-color="rgb(85.432434%, 68.565369%, 25.917053%)" offset="0.0273438"/><stop stop-opacity="1" stop-color="rgb(85.53772%, 68.774414%, 26.205444%)" offset="0.03125"/><stop stop-opacity="1" stop-color="rgb(85.641479%, 68.983459%, 26.49231%)" offset="0.0351563"/><stop stop-opacity="1" stop-color="rgb(85.746765%, 69.194031%, 26.780701%)" offset="0.0390625"/><stop stop-opacity="1" stop-color="rgb(85.850525%, 69.403076%, 27.069092%)" offset="0.0429688"/><stop stop-opacity="1" stop-color="rgb(85.955811%, 69.612122%, 27.357483%)" offset="0.046875"/><stop stop-opacity="1" stop-color="rgb(86.05957%, 69.821167%, 27.645874%)" offset="0.0507812"/><stop stop-opacity="1" stop-color="rgb(86.164856%, 70.031738%, 27.934265%)" offset="0.0546875"/><stop stop-opacity="1" stop-color="rgb(86.270142%, 70.240784%, 28.222656%)" offset="0.0585937"/><stop stop-opacity="1" stop-color="rgb(86.375427%, 70.449829%, 28.511047%)" offset="0.0625"/><stop stop-opacity="1" stop-color="rgb(86.479187%, 70.658875%, 28.797913%)" offset="0.0664062"/><stop stop-opacity="1" stop-color="rgb(86.584473%, 70.869446%, 29.086304%)" offset="0.0703125"/><stop stop-opacity="1" stop-color="rgb(86.688232%, 71.078491%, 29.374695%)" offset="0.0742188"/><stop stop-opacity="1" stop-color="rgb(86.793518%, 71.289062%, 29.663086%)" offset="0.078125"/><stop stop-opacity="1" stop-color="rgb(86.897278%, 71.498108%, 29.951477%)" offset="0.0820312"/><stop stop-opacity="1" stop-color="rgb(87.002563%, 71.707153%, 30.239868%)" offset="0.0859375"/><stop stop-opacity="1" stop-color="rgb(87.107849%, 71.916199%, 30.526733%)" offset="0.0898437"/><stop stop-opacity="1" stop-color="rgb(87.213135%, 72.12677%, 30.815125%)" offset="0.09375"/><stop stop-opacity="1" stop-color="rgb(87.316895%, 72.335815%, 31.103516%)" offset="0.0976562"/><stop stop-opacity="1" stop-color="rgb(87.42218%, 72.544861%, 31.391907%)" offset="0.101562"/><stop stop-opacity="1" stop-color="rgb(87.52594%, 72.753906%, 31.680298%)" offset="0.105469"/><stop stop-opacity="1" stop-color="rgb(87.631226%, 72.964478%, 31.968689%)" offset="0.109375"/><stop stop-opacity="1" stop-color="rgb(87.736511%, 73.173523%, 32.25708%)" offset="0.113281"/><stop stop-opacity="1" stop-color="rgb(87.841797%, 73.382568%, 32.545471%)" offset="0.117187"/><stop stop-opacity="1" stop-color="rgb(87.945557%, 73.591614%, 32.832336%)" offset="0.121094"/><stop stop-opacity="1" stop-color="rgb(88.050842%, 73.802185%, 33.120728%)" offset="0.125"/><stop stop-opacity="1" stop-color="rgb(88.154602%, 74.01123%, 33.409119%)" offset="0.128906"/><stop stop-opacity="1" stop-color="rgb(88.259888%, 74.220276%, 33.69751%)" offset="0.132812"/><stop stop-opacity="1" stop-color="rgb(88.363647%, 74.429321%, 33.985901%)" offset="0.136719"/><stop stop-opacity="1" stop-color="rgb(88.468933%, 74.639893%, 34.274292%)" offset="0.140625"/><stop stop-opacity="1" stop-color="rgb(88.574219%, 74.848938%, 34.562683%)" offset="0.144531"/><stop stop-opacity="1" stop-color="rgb(88.679504%, 75.057983%, 34.851074%)" offset="0.148438"/><stop stop-opacity="1" stop-color="rgb(88.783264%, 75.267029%, 35.137939%)" offset="0.152344"/><stop stop-opacity="1" stop-color="rgb(88.88855%, 75.4776%, 35.426331%)" offset="0.15625"/><stop stop-opacity="1" stop-color="rgb(88.99231%, 75.686646%, 35.714722%)" offset="0.160156"/><stop stop-opacity="1" stop-color="rgb(89.097595%, 75.895691%, 36.003113%)" offset="0.164062"/><stop stop-opacity="1" stop-color="rgb(89.201355%, 76.104736%, 36.291504%)" offset="0.167969"/><stop stop-opacity="1" stop-color="rgb(89.306641%, 76.315308%, 36.579895%)" offset="0.171875"/><stop stop-opacity="1" stop-color="rgb(89.411926%, 76.524353%, 36.868286%)" offset="0.175781"/><stop stop-opacity="1" stop-color="rgb(89.517212%, 76.733398%, 37.156677%)" offset="0.179687"/><stop stop-opacity="1" stop-color="rgb(89.620972%, 76.942444%, 37.443542%)" offset="0.183594"/><stop stop-opacity="1" stop-color="rgb(89.726257%, 77.153015%, 37.731934%)" offset="0.1875"/><stop stop-opacity="1" stop-color="rgb(89.830017%, 77.362061%, 38.020325%)" offset="0.191406"/><stop stop-opacity="1" stop-color="rgb(89.935303%, 77.572632%, 38.308716%)" offset="0.195312"/><stop stop-opacity="1" stop-color="rgb(90.039062%, 77.781677%, 38.597107%)" offset="0.199219"/><stop stop-opacity="1" stop-color="rgb(90.144348%, 77.990723%, 38.885498%)" offset="0.203125"/><stop stop-opacity="1" stop-color="rgb(90.249634%, 78.199768%, 39.173889%)" offset="0.207031"/><stop stop-opacity="1" stop-color="rgb(90.354919%, 78.410339%, 39.46228%)" offset="0.210937"/><stop stop-opacity="1" stop-color="rgb(90.458679%, 78.619385%, 39.749146%)" offset="0.214844"/><stop stop-opacity="1" stop-color="rgb(90.563965%, 78.82843%, 40.037537%)" offset="0.21875"/><stop stop-opacity="1" stop-color="rgb(90.667725%, 79.037476%, 40.325928%)" offset="0.222656"/><stop stop-opacity="1" stop-color="rgb(90.77301%, 79.248047%, 40.614319%)" offset="0.226562"/><stop stop-opacity="1" stop-color="rgb(90.878296%, 79.457092%, 40.90271%)" offset="0.230469"/><stop stop-opacity="1" stop-color="rgb(90.983582%, 79.666138%, 41.191101%)" offset="0.234375"/><stop stop-opacity="1" stop-color="rgb(91.087341%, 79.875183%, 41.477966%)" offset="0.238281"/><stop stop-opacity="1" stop-color="rgb(91.192627%, 80.085754%, 41.766357%)" offset="0.242187"/><stop stop-opacity="1" stop-color="rgb(91.296387%, 80.2948%, 42.054749%)" offset="0.246094"/><stop stop-opacity="1" stop-color="rgb(91.401672%, 80.503845%, 42.34314%)" offset="0.25"/><stop stop-opacity="1" stop-color="rgb(91.505432%, 80.712891%, 42.631531%)" offset="0.253906"/><stop stop-opacity="1" stop-color="rgb(91.610718%, 80.923462%, 42.919922%)" offset="0.257812"/><stop stop-opacity="1" stop-color="rgb(91.716003%, 81.132507%, 43.208313%)" offset="0.261719"/><stop stop-opacity="1" stop-color="rgb(91.821289%, 81.341553%, 43.496704%)" offset="0.265625"/><stop stop-opacity="1" stop-color="rgb(91.925049%, 81.550598%, 43.783569%)" offset="0.269531"/><stop stop-opacity="1" stop-color="rgb(92.030334%, 81.761169%, 44.07196%)" offset="0.273437"/><stop stop-opacity="1" stop-color="rgb(92.134094%, 81.970215%, 44.360352%)" offset="0.277344"/><stop stop-opacity="1" stop-color="rgb(92.23938%, 82.17926%, 44.648743%)" offset="0.28125"/><stop stop-opacity="1" stop-color="rgb(92.34314%, 82.388306%, 44.937134%)" offset="0.285156"/><stop stop-opacity="1" stop-color="rgb(92.448425%, 82.598877%, 45.225525%)" offset="0.289062"/><stop stop-opacity="1" stop-color="rgb(92.553711%, 82.807922%, 45.513916%)" offset="0.292969"/><stop stop-opacity="1" stop-color="rgb(92.658997%, 83.018494%, 45.802307%)" offset="0.296875"/><stop stop-opacity="1" stop-color="rgb(92.762756%, 83.227539%, 46.089172%)" offset="0.300781"/><stop stop-opacity="1" stop-color="rgb(92.868042%, 83.436584%, 46.377563%)" offset="0.304687"/><stop stop-opacity="1" stop-color="rgb(92.971802%, 83.64563%, 46.665955%)" offset="0.308594"/><stop stop-opacity="1" stop-color="rgb(93.077087%, 83.856201%, 46.954346%)" offset="0.3125"/><stop stop-opacity="1" stop-color="rgb(93.180847%, 84.065247%, 47.242737%)" offset="0.316406"/><stop stop-opacity="1" stop-color="rgb(93.286133%, 84.274292%, 47.531128%)" offset="0.320312"/><stop stop-opacity="1" stop-color="rgb(93.391418%, 84.483337%, 47.819519%)" offset="0.324219"/><stop stop-opacity="1" stop-color="rgb(93.496704%, 84.693909%, 48.10791%)" offset="0.328125"/><stop stop-opacity="1" stop-color="rgb(93.600464%, 84.902954%, 48.394775%)" offset="0.332031"/><stop stop-opacity="1" stop-color="rgb(93.70575%, 85.112%, 48.683167%)" offset="0.335937"/><stop stop-opacity="1" stop-color="rgb(93.809509%, 85.321045%, 48.971558%)" offset="0.339844"/><stop stop-opacity="1" stop-color="rgb(93.914795%, 85.531616%, 49.259949%)" offset="0.34375"/><stop stop-opacity="1" stop-color="rgb(94.020081%, 85.740662%, 49.54834%)" offset="0.347656"/><stop stop-opacity="1" stop-color="rgb(94.125366%, 85.949707%, 49.836731%)" offset="0.351562"/><stop stop-opacity="1" stop-color="rgb(94.229126%, 86.158752%, 50.125122%)" offset="0.355469"/><stop stop-opacity="1" stop-color="rgb(94.334412%, 86.369324%, 50.413513%)" offset="0.359375"/><stop stop-opacity="1" stop-color="rgb(94.438171%, 86.578369%, 50.700378%)" offset="0.363281"/><stop stop-opacity="1" stop-color="rgb(94.543457%, 86.787415%, 50.98877%)" offset="0.367187"/><stop stop-opacity="1" stop-color="rgb(94.647217%, 86.99646%, 51.277161%)" offset="0.371094"/><stop stop-opacity="1" stop-color="rgb(94.752502%, 87.207031%, 51.565552%)" offset="0.375"/><stop stop-opacity="1" stop-color="rgb(94.857788%, 87.416077%, 51.853943%)" offset="0.378906"/><stop stop-opacity="1" stop-color="rgb(94.963074%, 87.625122%, 52.142334%)" offset="0.382812"/><stop stop-opacity="1" stop-color="rgb(95.066833%, 87.834167%, 52.430725%)" offset="0.386719"/><stop stop-opacity="1" stop-color="rgb(95.172119%, 88.044739%, 52.719116%)" offset="0.390625"/><stop stop-opacity="1" stop-color="rgb(95.275879%, 88.253784%, 53.005981%)" offset="0.394531"/><stop stop-opacity="1" stop-color="rgb(95.381165%, 88.464355%, 53.294373%)" offset="0.398437"/><stop stop-opacity="1" stop-color="rgb(95.484924%, 88.673401%, 53.582764%)" offset="0.402344"/><stop stop-opacity="1" stop-color="rgb(95.59021%, 88.882446%, 53.871155%)" offset="0.40625"/><stop stop-opacity="1" stop-color="rgb(95.695496%, 89.091492%, 54.159546%)" offset="0.410156"/><stop stop-opacity="1" stop-color="rgb(95.800781%, 89.302063%, 54.447937%)" offset="0.414062"/><stop stop-opacity="1" stop-color="rgb(95.904541%, 89.511108%, 54.734802%)" offset="0.417969"/><stop stop-opacity="1" stop-color="rgb(96.009827%, 89.720154%, 55.023193%)" offset="0.421875"/><stop stop-opacity="1" stop-color="rgb(96.113586%, 89.929199%, 55.311584%)" offset="0.425781"/><stop stop-opacity="1" stop-color="rgb(96.218872%, 90.139771%, 55.599976%)" offset="0.429687"/><stop stop-opacity="1" stop-color="rgb(96.324158%, 90.348816%, 55.888367%)" offset="0.433594"/><stop stop-opacity="1" stop-color="rgb(96.429443%, 90.557861%, 56.176758%)" offset="0.4375"/><stop stop-opacity="1" stop-color="rgb(96.533203%, 90.766907%, 56.465149%)" offset="0.441406"/><stop stop-opacity="1" stop-color="rgb(96.638489%, 90.977478%, 56.75354%)" offset="0.445312"/><stop stop-opacity="1" stop-color="rgb(96.742249%, 91.186523%, 57.040405%)" offset="0.449219"/><stop stop-opacity="1" stop-color="rgb(96.847534%, 91.395569%, 57.328796%)" offset="0.453125"/><stop stop-opacity="1" stop-color="rgb(96.951294%, 91.604614%, 57.617188%)" offset="0.457031"/><stop stop-opacity="1" stop-color="rgb(97.05658%, 91.815186%, 57.905579%)" offset="0.460937"/><stop stop-opacity="1" stop-color="rgb(97.161865%, 92.024231%, 58.19397%)" offset="0.464844"/><stop stop-opacity="1" stop-color="rgb(97.267151%, 92.233276%, 58.482361%)" offset="0.46875"/><stop stop-opacity="1" stop-color="rgb(97.370911%, 92.442322%, 58.770752%)" offset="0.472656"/><stop stop-opacity="1" stop-color="rgb(97.476196%, 92.652893%, 59.059143%)" offset="0.476562"/><stop stop-opacity="1" stop-color="rgb(97.579956%, 92.861938%, 59.346008%)" offset="0.480469"/><stop stop-opacity="1" stop-color="rgb(97.685242%, 93.070984%, 59.634399%)" offset="0.484375"/><stop stop-opacity="1" stop-color="rgb(97.789001%, 93.280029%, 59.922791%)" offset="0.488281"/><stop stop-opacity="1" stop-color="rgb(97.894287%, 93.490601%, 60.211182%)" offset="0.492187"/><stop stop-opacity="1" stop-color="rgb(97.999573%, 93.699646%, 60.499573%)" offset="0.496094"/><stop stop-opacity="1" stop-color="rgb(98.104858%, 93.908691%, 60.787964%)" offset="0.5"/><stop stop-opacity="1" stop-color="rgb(98.208618%, 94.117737%, 61.076355%)" offset="0.503906"/><stop stop-opacity="1" stop-color="rgb(98.313904%, 94.328308%, 61.364746%)" offset="0.507812"/><stop stop-opacity="1" stop-color="rgb(98.291016%, 94.284058%, 61.303711%)" offset="0.515625"/><stop stop-opacity="1" stop-color="rgb(98.15979%, 94.020081%, 60.940552%)" offset="0.519531"/><stop stop-opacity="1" stop-color="rgb(98.051453%, 93.80188%, 60.639954%)" offset="0.523437"/><stop stop-opacity="1" stop-color="rgb(97.941589%, 93.582153%, 60.339355%)" offset="0.527344"/><stop stop-opacity="1" stop-color="rgb(97.831726%, 93.363953%, 60.038757%)" offset="0.53125"/><stop stop-opacity="1" stop-color="rgb(97.721863%, 93.145752%, 59.736633%)" offset="0.535156"/><stop stop-opacity="1" stop-color="rgb(97.613525%, 92.927551%, 59.436035%)" offset="0.539062"/><stop stop-opacity="1" stop-color="rgb(97.503662%, 92.707825%, 59.133911%)" offset="0.542969"/><stop stop-opacity="1" stop-color="rgb(97.393799%, 92.489624%, 58.833313%)" offset="0.546875"/><stop stop-opacity="1" stop-color="rgb(97.283936%, 92.269897%, 58.531189%)" offset="0.550781"/><stop stop-opacity="1" stop-color="rgb(97.175598%, 92.051697%, 58.230591%)" offset="0.554687"/><stop stop-opacity="1" stop-color="rgb(97.065735%, 91.83197%, 57.929993%)" offset="0.558594"/><stop stop-opacity="1" stop-color="rgb(96.955872%, 91.61377%, 57.629395%)" offset="0.5625"/><stop stop-opacity="1" stop-color="rgb(96.846008%, 91.394043%, 57.327271%)" offset="0.566406"/><stop stop-opacity="1" stop-color="rgb(96.737671%, 91.175842%, 57.026672%)" offset="0.570312"/><stop stop-opacity="1" stop-color="rgb(96.627808%, 90.956116%, 56.724548%)" offset="0.574219"/><stop stop-opacity="1" stop-color="rgb(96.517944%, 90.737915%, 56.42395%)" offset="0.578125"/><stop stop-opacity="1" stop-color="rgb(96.408081%, 90.518188%, 56.121826%)" offset="0.582031"/><stop stop-opacity="1" stop-color="rgb(96.299744%, 90.299988%, 55.821228%)" offset="0.585937"/><stop stop-opacity="1" stop-color="rgb(96.18988%, 90.080261%, 55.52063%)" offset="0.589844"/><stop stop-opacity="1" stop-color="rgb(96.081543%, 89.862061%, 55.220032%)" offset="0.59375"/><stop stop-opacity="1" stop-color="rgb(95.97168%, 89.642334%, 54.917908%)" offset="0.597656"/><stop stop-opacity="1" stop-color="rgb(95.861816%, 89.424133%, 54.61731%)" offset="0.601562"/><stop stop-opacity="1" stop-color="rgb(95.751953%, 89.205933%, 54.315186%)" offset="0.605469"/><stop stop-opacity="1" stop-color="rgb(95.643616%, 88.987732%, 54.014587%)" offset="0.609375"/><stop stop-opacity="1" stop-color="rgb(95.533752%, 88.768005%, 53.712463%)" offset="0.613281"/><stop stop-opacity="1" stop-color="rgb(95.423889%, 88.549805%, 53.411865%)" offset="0.617187"/><stop stop-opacity="1" stop-color="rgb(95.314026%, 88.330078%, 53.111267%)" offset="0.621094"/><stop stop-opacity="1" stop-color="rgb(95.205688%, 88.111877%, 52.810669%)" offset="0.625"/><stop stop-opacity="1" stop-color="rgb(95.095825%, 87.892151%, 52.508545%)" offset="0.628906"/><stop stop-opacity="1" stop-color="rgb(94.985962%, 87.67395%, 52.207947%)" offset="0.632812"/><stop stop-opacity="1" stop-color="rgb(94.876099%, 87.454224%, 51.905823%)" offset="0.636719"/><stop stop-opacity="1" stop-color="rgb(94.767761%, 87.236023%, 51.605225%)" offset="0.640625"/><stop stop-opacity="1" stop-color="rgb(94.657898%, 87.016296%, 51.304626%)" offset="0.644531"/><stop stop-opacity="1" stop-color="rgb(94.548035%, 86.798096%, 51.004028%)" offset="0.648437"/><stop stop-opacity="1" stop-color="rgb(94.438171%, 86.578369%, 50.701904%)" offset="0.652344"/><stop stop-opacity="1" stop-color="rgb(94.329834%, 86.360168%, 50.401306%)" offset="0.65625"/><stop stop-opacity="1" stop-color="rgb(94.219971%, 86.140442%, 50.099182%)" offset="0.660156"/><stop stop-opacity="1" stop-color="rgb(94.111633%, 85.922241%, 49.798584%)" offset="0.664062"/><stop stop-opacity="1" stop-color="rgb(94.00177%, 85.702515%, 49.49646%)" offset="0.667969"/><stop stop-opacity="1" stop-color="rgb(93.891907%, 85.484314%, 49.195862%)" offset="0.671875"/><stop stop-opacity="1" stop-color="rgb(93.782043%, 85.266113%, 48.895264%)" offset="0.675781"/><stop stop-opacity="1" stop-color="rgb(93.673706%, 85.047913%, 48.594666%)" offset="0.679687"/><stop stop-opacity="1" stop-color="rgb(93.563843%, 84.828186%, 48.292542%)" offset="0.683594"/><stop stop-opacity="1" stop-color="rgb(93.453979%, 84.609985%, 47.991943%)" offset="0.6875"/><stop stop-opacity="1" stop-color="rgb(93.344116%, 84.390259%, 47.689819%)" offset="0.691406"/><stop stop-opacity="1" stop-color="rgb(93.235779%, 84.172058%, 47.389221%)" offset="0.695312"/><stop stop-opacity="1" stop-color="rgb(93.125916%, 83.952332%, 47.087097%)" offset="0.699219"/><stop stop-opacity="1" stop-color="rgb(93.016052%, 83.734131%, 46.786499%)" offset="0.703125"/><stop stop-opacity="1" stop-color="rgb(92.906189%, 83.514404%, 46.485901%)" offset="0.707031"/><stop stop-opacity="1" stop-color="rgb(92.797852%, 83.296204%, 46.185303%)" offset="0.710937"/><stop stop-opacity="1" stop-color="rgb(92.687988%, 83.076477%, 45.883179%)" offset="0.714844"/><stop stop-opacity="1" stop-color="rgb(92.578125%, 82.858276%, 45.582581%)" offset="0.71875"/><stop stop-opacity="1" stop-color="rgb(92.468262%, 82.63855%, 45.280457%)" offset="0.722656"/><stop stop-opacity="1" stop-color="rgb(92.359924%, 82.420349%, 44.979858%)" offset="0.726562"/><stop stop-opacity="1" stop-color="rgb(92.250061%, 82.200623%, 44.677734%)" offset="0.730469"/><stop stop-opacity="1" stop-color="rgb(92.141724%, 81.982422%, 44.377136%)" offset="0.734375"/><stop stop-opacity="1" stop-color="rgb(92.03186%, 81.762695%, 44.076538%)" offset="0.738281"/><stop stop-opacity="1" stop-color="rgb(91.921997%, 81.544495%, 43.77594%)" offset="0.742187"/><stop stop-opacity="1" stop-color="rgb(91.812134%, 81.326294%, 43.473816%)" offset="0.746094"/><stop stop-opacity="1" stop-color="rgb(91.703796%, 81.108093%, 43.173218%)" offset="0.75"/><stop stop-opacity="1" stop-color="rgb(91.593933%, 80.888367%, 42.871094%)" offset="0.753906"/><stop stop-opacity="1" stop-color="rgb(91.48407%, 80.670166%, 42.570496%)" offset="0.757812"/><stop stop-opacity="1" stop-color="rgb(91.374207%, 80.450439%, 42.269897%)" offset="0.761719"/><stop stop-opacity="1" stop-color="rgb(91.265869%, 80.232239%, 41.969299%)" offset="0.765625"/><stop stop-opacity="1" stop-color="rgb(91.156006%, 80.012512%, 41.667175%)" offset="0.769531"/><stop stop-opacity="1" stop-color="rgb(91.046143%, 79.794312%, 41.366577%)" offset="0.773437"/><stop stop-opacity="1" stop-color="rgb(90.936279%, 79.574585%, 41.064453%)" offset="0.777344"/><stop stop-opacity="1" stop-color="rgb(90.827942%, 79.356384%, 40.763855%)" offset="0.78125"/><stop stop-opacity="1" stop-color="rgb(90.718079%, 79.136658%, 40.461731%)" offset="0.785156"/><stop stop-opacity="1" stop-color="rgb(90.608215%, 78.918457%, 40.161133%)" offset="0.789062"/><stop stop-opacity="1" stop-color="rgb(90.498352%, 78.69873%, 39.860535%)" offset="0.792969"/><stop stop-opacity="1" stop-color="rgb(90.390015%, 78.48053%, 39.559937%)" offset="0.796875"/><stop stop-opacity="1" stop-color="rgb(90.280151%, 78.260803%, 39.257812%)" offset="0.800781"/><stop stop-opacity="1" stop-color="rgb(90.171814%, 78.042603%, 38.957214%)" offset="0.804688"/><stop stop-opacity="1" stop-color="rgb(90.061951%, 77.822876%, 38.65509%)" offset="0.808594"/><stop stop-opacity="1" stop-color="rgb(89.952087%, 77.604675%, 38.354492%)" offset="0.8125"/><stop stop-opacity="1" stop-color="rgb(89.842224%, 77.386475%, 38.052368%)" offset="0.816406"/><stop stop-opacity="1" stop-color="rgb(89.733887%, 77.168274%, 37.75177%)" offset="0.820312"/><stop stop-opacity="1" stop-color="rgb(89.624023%, 76.948547%, 37.451172%)" offset="0.824219"/><stop stop-opacity="1" stop-color="rgb(89.51416%, 76.730347%, 37.150574%)" offset="0.828125"/><stop stop-opacity="1" stop-color="rgb(89.404297%, 76.51062%, 36.84845%)" offset="0.832031"/><stop stop-opacity="1" stop-color="rgb(89.295959%, 76.292419%, 36.547852%)" offset="0.835937"/><stop stop-opacity="1" stop-color="rgb(89.186096%, 76.072693%, 36.245728%)" offset="0.839844"/><stop stop-opacity="1" stop-color="rgb(89.076233%, 75.854492%, 35.945129%)" offset="0.84375"/><stop stop-opacity="1" stop-color="rgb(88.96637%, 75.634766%, 35.643005%)" offset="0.847656"/><stop stop-opacity="1" stop-color="rgb(88.858032%, 75.416565%, 35.342407%)" offset="0.851562"/><stop stop-opacity="1" stop-color="rgb(88.748169%, 75.196838%, 35.041809%)" offset="0.855469"/><stop stop-opacity="1" stop-color="rgb(88.638306%, 74.978638%, 34.741211%)" offset="0.859375"/><stop stop-opacity="1" stop-color="rgb(88.528442%, 74.758911%, 34.439087%)" offset="0.863281"/><stop stop-opacity="1" stop-color="rgb(88.420105%, 74.54071%, 34.138489%)" offset="0.867187"/><stop stop-opacity="1" stop-color="rgb(88.310242%, 74.320984%, 33.836365%)" offset="0.871094"/><stop stop-opacity="1" stop-color="rgb(88.201904%, 74.102783%, 33.535767%)" offset="0.875"/><stop stop-opacity="1" stop-color="rgb(88.092041%, 73.883057%, 33.235168%)" offset="0.878906"/><stop stop-opacity="1" stop-color="rgb(87.982178%, 73.664856%, 32.93457%)" offset="0.882812"/><stop stop-opacity="1" stop-color="rgb(87.872314%, 73.446655%, 32.632446%)" offset="0.886719"/><stop stop-opacity="1" stop-color="rgb(87.763977%, 73.228455%, 32.331848%)" offset="0.890625"/><stop stop-opacity="1" stop-color="rgb(87.654114%, 73.008728%, 32.029724%)" offset="0.894531"/><stop stop-opacity="1" stop-color="rgb(87.54425%, 72.790527%, 31.729126%)" offset="0.898437"/><stop stop-opacity="1" stop-color="rgb(87.434387%, 72.570801%, 31.427002%)" offset="0.902344"/><stop stop-opacity="1" stop-color="rgb(87.32605%, 72.3526%, 31.126404%)" offset="0.90625"/><stop stop-opacity="1" stop-color="rgb(87.216187%, 72.132874%, 30.825806%)" offset="0.910156"/><stop stop-opacity="1" stop-color="rgb(87.106323%, 71.914673%, 30.525208%)" offset="0.914062"/><stop stop-opacity="1" stop-color="rgb(86.99646%, 71.694946%, 30.223083%)" offset="0.917969"/><stop stop-opacity="1" stop-color="rgb(86.888123%, 71.476746%, 29.922485%)" offset="0.921875"/><stop stop-opacity="1" stop-color="rgb(86.778259%, 71.257019%, 29.620361%)" offset="0.925781"/><stop stop-opacity="1" stop-color="rgb(86.668396%, 71.038818%, 29.319763%)" offset="0.929687"/><stop stop-opacity="1" stop-color="rgb(86.558533%, 70.819092%, 29.017639%)" offset="0.933594"/><stop stop-opacity="1" stop-color="rgb(86.450195%, 70.600891%, 28.717041%)" offset="0.9375"/><stop stop-opacity="1" stop-color="rgb(86.340332%, 70.381165%, 28.416443%)" offset="0.941406"/><stop stop-opacity="1" stop-color="rgb(86.231995%, 70.162964%, 28.115845%)" offset="0.945312"/><stop stop-opacity="1" stop-color="rgb(86.122131%, 69.943237%, 27.813721%)" offset="0.949219"/><stop stop-opacity="1" stop-color="rgb(86.012268%, 69.725037%, 27.513123%)" offset="0.953125"/><stop stop-opacity="1" stop-color="rgb(85.902405%, 69.506836%, 27.210999%)" offset="0.957031"/><stop stop-opacity="1" stop-color="rgb(85.794067%, 69.288635%, 26.9104%)" offset="0.960937"/><stop stop-opacity="1" stop-color="rgb(85.684204%, 69.068909%, 26.609802%)" offset="0.964844"/><stop stop-opacity="1" stop-color="rgb(85.574341%, 68.850708%, 26.309204%)" offset="0.96875"/><stop stop-opacity="1" stop-color="rgb(85.464478%, 68.630981%, 26.00708%)" offset="0.972656"/><stop stop-opacity="1" stop-color="rgb(85.35614%, 68.412781%, 25.706482%)" offset="0.976562"/><stop stop-opacity="1" stop-color="rgb(85.246277%, 68.193054%, 25.404358%)" offset="0.980469"/><stop stop-opacity="1" stop-color="rgb(85.136414%, 67.974854%, 25.10376%)" offset="0.984375"/><stop stop-opacity="1" stop-color="rgb(85.02655%, 67.755127%, 24.801636%)" offset="0.988281"/><stop stop-opacity="1" stop-color="rgb(84.918213%, 67.536926%, 24.501038%)" offset="0.992187"/><stop stop-opacity="1" stop-color="rgb(84.80835%, 67.3172%, 24.200439%)" offset="0.996094"/><stop stop-opacity="1" stop-color="rgb(84.698486%, 67.098999%, 23.899841%)" offset="1"/></linearGradient></defs><g clip-path="url(#5c01a0f97c)"><g clip-path="url(#db8b27df98)"><path fill="url(#46de979579)" d="M 112.648438 201 L 112.648438 212.25 L 262.363281 212.25 L 262.363281 201 Z M 112.648438 201 " fill-rule="nonzero"/></g></g><g fill="#cba95c" fill-opacity="1"><g transform="translate(-0.0437277, 195.749987)"><g><path d="M 6.75 0 L 0.671875 0 L 0.671875 -0.21875 C 1.316406 -0.21875 1.785156 -0.410156 2.078125 -0.796875 C 2.367188 -1.191406 2.550781 -1.832031 2.625 -2.71875 C 2.707031 -3.601562 2.75 -4.78125 2.75 -6.25 L 2.75 -16.25 C 2.75 -17.726562 2.707031 -18.90625 2.625 -19.78125 C 2.550781 -20.664062 2.367188 -21.300781 2.078125 -21.6875 C 1.785156 -22.082031 1.316406 -22.28125 0.671875 -22.28125 L 0.671875 -22.5 L 6.75 -22.5 L 6.75 -22.28125 C 6.101562 -22.28125 5.632812 -22.082031 5.34375 -21.6875 C 5.050781 -21.300781 4.867188 -20.664062 4.796875 -19.78125 C 4.722656 -18.90625 4.6875 -17.726562 4.6875 -16.25 L 4.6875 -12.3125 C 4.8125 -12.601562 5.109375 -12.894531 5.578125 -13.1875 C 6.046875 -13.488281 6.617188 -13.640625 7.296875 -13.640625 C 8.046875 -13.640625 8.753906 -13.519531 9.421875 -13.28125 C 10.097656 -13.050781 10.757812 -12.816406 11.40625 -12.578125 C 12.050781 -12.347656 12.703125 -12.234375 13.359375 -12.234375 C 13.796875 -12.234375 14.179688 -12.347656 14.515625 -12.578125 C 14.859375 -12.816406 15.03125 -13.128906 15.03125 -13.515625 L 15.25 -13.515625 C 15.25 -12.859375 14.988281 -12.28125 14.46875 -11.78125 C 13.957031 -11.289062 13.257812 -11.046875 12.375 -11.046875 C 11.6875 -11.046875 11.054688 -11.144531 10.484375 -11.34375 C 9.910156 -11.550781 9.375 -11.78125 8.875 -12.03125 C 8.382812 -12.289062 7.925781 -12.519531 7.5 -12.71875 C 7.070312 -12.925781 6.65625 -13.03125 6.25 -13.03125 C 5.664062 -13.03125 5.257812 -12.828125 5.03125 -12.421875 C 4.800781 -12.023438 4.6875 -11.566406 4.6875 -11.046875 L 4.6875 -6.25 C 4.6875 -4.78125 4.722656 -3.601562 4.796875 -2.71875 C 4.867188 -1.832031 5.050781 -1.191406 5.34375 -0.796875 C 5.632812 -0.410156 6.101562 -0.21875 6.75 -0.21875 Z M 13.859375 -22.28125 L 13.859375 -22.5 L 19.9375 -22.5 L 19.9375 -22.28125 C 19.289062 -22.28125 18.820312 -22.082031 18.53125 -21.6875 C 18.238281 -21.300781 18.050781 -20.664062 17.96875 -19.78125 C 17.894531 -18.90625 17.859375 -17.726562 17.859375 -16.25 L 17.859375 -6.25 C 17.859375 -4.78125 17.894531 -3.601562 17.96875 -2.71875 C 18.050781 -1.832031 18.238281 -1.191406 18.53125 -0.796875 C 18.820312 -0.410156 19.289062 -0.21875 19.9375 -0.21875 L 19.9375 0 L 13.859375 0 L 13.859375 -0.21875 C 14.503906 -0.21875 14.972656 -0.410156 15.265625 -0.796875 C 15.554688 -1.191406 15.738281 -1.832031 15.8125 -2.71875 C 15.894531 -3.601562 15.9375 -4.78125 15.9375 -6.25 L 15.9375 -16.25 C 15.9375 -17.726562 15.894531 -18.90625 15.8125 -19.78125 C 15.738281 -20.664062 15.554688 -21.300781 15.265625 -21.6875 C 14.972656 -22.082031 14.503906 -22.28125 13.859375 -22.28125 Z M 13.859375 -22.28125 "/></g></g></g><g fill="#cba95c" fill-opacity="1"><g transform="translate(20.566256, 195.749987)"><g><path d="M 0.671875 -22.28125 L 0.671875 -22.5 L 16.78125 -22.5 L 16.78125 -19.46875 L 16.5625 -19.46875 L 16.5625 -19.546875 C 16.5625 -20.296875 15.851562 -20.9375 14.4375 -21.46875 C 13.019531 -22.007812 11.015625 -22.28125 8.421875 -22.28125 L 4.6875 -22.28125 L 4.6875 -12.59375 C 5.03125 -12.925781 5.421875 -13.179688 5.859375 -13.359375 C 6.304688 -13.546875 6.785156 -13.640625 7.296875 -13.640625 C 7.847656 -13.640625 8.351562 -13.566406 8.8125 -13.421875 C 9.269531 -13.273438 9.703125 -13.113281 10.109375 -12.9375 C 10.523438 -12.757812 10.941406 -12.597656 11.359375 -12.453125 C 11.785156 -12.304688 12.242188 -12.234375 12.734375 -12.234375 C 13.171875 -12.234375 13.554688 -12.347656 13.890625 -12.578125 C 14.234375 -12.816406 14.40625 -13.128906 14.40625 -13.515625 L 14.625 -13.515625 C 14.625 -12.859375 14.363281 -12.28125 13.84375 -11.78125 C 13.332031 -11.289062 12.632812 -11.046875 11.75 -11.046875 C 11.050781 -11.046875 10.445312 -11.140625 9.9375 -11.328125 C 9.4375 -11.523438 8.984375 -11.75 8.578125 -12 C 8.171875 -12.257812 7.78125 -12.488281 7.40625 -12.6875 C 7.039062 -12.894531 6.65625 -13.007812 6.25 -13.03125 C 5.925781 -13.039062 5.628906 -12.96875 5.359375 -12.8125 C 5.085938 -12.664062 4.863281 -12.472656 4.6875 -12.234375 L 4.6875 -0.21875 L 7.5625 -0.21875 C 7.914062 -0.21875 8.378906 -0.226562 8.953125 -0.25 C 9.535156 -0.28125 10.164062 -0.332031 10.84375 -0.40625 C 11.519531 -0.476562 12.191406 -0.59375 12.859375 -0.75 C 13.523438 -0.90625 14.140625 -1.109375 14.703125 -1.359375 C 15.265625 -1.617188 15.710938 -1.941406 16.046875 -2.328125 C 16.390625 -2.710938 16.5625 -3.175781 16.5625 -3.71875 L 16.78125 -3.71875 L 16.78125 0 L 0.671875 0 L 0.671875 -0.21875 C 1.316406 -0.21875 1.785156 -0.410156 2.078125 -0.796875 C 2.367188 -1.191406 2.550781 -1.832031 2.625 -2.71875 C 2.707031 -3.601562 2.75 -4.78125 2.75 -6.25 L 2.75 -16.25 C 2.75 -17.726562 2.707031 -18.90625 2.625 -19.78125 C 2.550781 -20.664062 2.367188 -21.300781 2.078125 -21.6875 C 1.785156 -22.082031 1.316406 -22.28125 0.671875 -22.28125 Z M 0.671875 -22.28125 "/></g></g></g><g fill="#cba95c" fill-opacity="1"><g transform="translate(38.026243, 195.749987)"><g><path d="M 0.671875 -22.5 L 4.296875 -22.5 L 12.9375 -4.359375 L 19.6875 -22.5 L 23.640625 -22.5 L 23.640625 -22.28125 C 23.003906 -22.28125 22.535156 -22.082031 22.234375 -21.6875 C 21.941406 -21.300781 21.757812 -20.664062 21.6875 -19.78125 C 21.613281 -18.90625 21.578125 -17.726562 21.578125 -16.25 L 21.578125 -6.25 C 21.578125 -4.78125 21.613281 -3.601562 21.6875 -2.71875 C 21.757812 -1.832031 21.941406 -1.191406 22.234375 -0.796875 C 22.535156 -0.410156 23.003906 -0.21875 23.640625 -0.21875 L 23.640625 0 L 17.578125 0 L 17.578125 -0.21875 C 18.222656 -0.21875 18.691406 -0.410156 18.984375 -0.796875 C 19.273438 -1.191406 19.457031 -1.832031 19.53125 -2.71875 C 19.601562 -3.601562 19.640625 -4.78125 19.640625 -6.25 L 19.640625 -21.75 C 18.828125 -19.59375 18.023438 -17.441406 17.234375 -15.296875 C 16.441406 -13.148438 15.628906 -10.957031 14.796875 -8.71875 C 13.972656 -6.476562 13.097656 -4.117188 12.171875 -1.640625 L 11.96875 -1.640625 C 11.257812 -3.160156 10.601562 -4.566406 10 -5.859375 C 9.394531 -7.160156 8.816406 -8.398438 8.265625 -9.578125 C 7.722656 -10.765625 7.171875 -11.945312 6.609375 -13.125 C 6.054688 -14.300781 5.488281 -15.523438 4.90625 -16.796875 C 4.320312 -18.066406 3.6875 -19.4375 3 -20.90625 L 2.96875 -11.25 L 2.96875 -8.390625 C 2.96875 -6.753906 3.070312 -5.40625 3.28125 -4.34375 C 3.488281 -3.28125 3.773438 -2.445312 4.140625 -1.84375 C 4.503906 -1.238281 4.910156 -0.816406 5.359375 -0.578125 C 5.804688 -0.335938 6.269531 -0.21875 6.75 -0.21875 L 6.75 0 L 0.671875 0 L 0.671875 -0.21875 C 1.316406 -0.21875 1.785156 -0.410156 2.078125 -0.796875 C 2.367188 -1.191406 2.550781 -1.832031 2.625 -2.71875 C 2.707031 -3.601562 2.75 -4.78125 2.75 -6.25 L 2.75 -16.25 C 2.75 -17.726562 2.707031 -18.90625 2.625 -19.78125 C 2.550781 -20.664062 2.367188 -21.300781 2.078125 -21.6875 C 1.785156 -22.082031 1.316406 -22.28125 0.671875 -22.28125 Z M 0.671875 -22.5 "/></g></g></g><g fill="#cba95c" fill-opacity="1"><g transform="translate(62.348713, 195.749987)"><g><path d="M 0.671875 -3.9375 C 0.671875 -4.863281 0.890625 -5.695312 1.328125 -6.4375 C 1.765625 -7.1875 2.320312 -7.863281 3 -8.46875 C 3.6875 -9.070312 4.410156 -9.625 5.171875 -10.125 C 5.941406 -10.632812 6.664062 -11.101562 7.34375 -11.53125 C 8.03125 -11.957031 8.585938 -12.363281 9.015625 -12.75 C 9.453125 -13.144531 9.671875 -13.535156 9.671875 -13.921875 C 9.671875 -14.140625 9.617188 -14.296875 9.515625 -14.390625 C 9.410156 -14.484375 9.285156 -14.53125 9.140625 -14.53125 C 8.867188 -14.53125 8.613281 -14.410156 8.375 -14.171875 C 8.144531 -13.929688 7.914062 -13.65625 7.6875 -13.34375 C 7.46875 -13.039062 7.222656 -12.769531 6.953125 -12.53125 C 6.691406 -12.289062 6.40625 -12.171875 6.09375 -12.171875 C 5.78125 -12.171875 5.585938 -12.296875 5.515625 -12.546875 C 5.453125 -12.804688 5.472656 -13.078125 5.578125 -13.359375 C 5.921875 -14.265625 6.234375 -15.101562 6.515625 -15.875 C 6.804688 -16.644531 7.085938 -17.394531 7.359375 -18.125 C 7.640625 -18.851562 7.925781 -19.609375 8.21875 -20.390625 C 8.507812 -21.171875 8.835938 -22.023438 9.203125 -22.953125 L 9.421875 -22.953125 L 16.625 -3.9375 C 17.125 -2.707031 17.585938 -1.78125 18.015625 -1.15625 C 18.453125 -0.53125 19.015625 -0.21875 19.703125 -0.21875 L 19.703125 0 L 12.328125 0 L 12.328125 -0.21875 C 13.117188 -0.21875 13.722656 -0.320312 14.140625 -0.53125 C 14.554688 -0.75 14.820312 -1.046875 14.9375 -1.421875 C 15.0625 -1.796875 15.078125 -2.226562 14.984375 -2.71875 C 14.890625 -3.21875 14.738281 -3.75 14.53125 -4.3125 L 11.75 -11.671875 C 11.832031 -10.953125 11.875 -10.054688 11.875 -8.984375 C 11.875 -7.160156 11.59375 -5.535156 11.03125 -4.109375 C 10.46875 -2.691406 9.65625 -1.578125 8.59375 -0.765625 C 7.539062 0.046875 6.265625 0.453125 4.765625 0.453125 C 3.898438 0.453125 3.160156 0.25 2.546875 -0.15625 C 1.941406 -0.5625 1.476562 -1.097656 1.15625 -1.765625 C 0.832031 -2.429688 0.671875 -3.15625 0.671875 -3.9375 Z M 2.59375 -4.359375 C 2.59375 -3.316406 2.90625 -2.429688 3.53125 -1.703125 C 4.164062 -0.984375 5.03125 -0.625 6.125 -0.625 C 7.0625 -0.625 7.875 -0.878906 8.5625 -1.390625 C 9.257812 -1.898438 9.835938 -2.566406 10.296875 -3.390625 C 10.753906 -4.222656 11.09375 -5.125 11.3125 -6.09375 C 11.539062 -7.070312 11.65625 -8.019531 11.65625 -8.9375 C 11.65625 -9.769531 11.628906 -10.515625 11.578125 -11.171875 C 11.523438 -11.835938 11.394531 -12.5 11.1875 -13.15625 L 8.453125 -20.34375 L 5.875 -13.453125 C 5.71875 -13.066406 5.671875 -12.789062 5.734375 -12.625 C 5.804688 -12.46875 5.9375 -12.390625 6.125 -12.390625 C 6.375 -12.390625 6.617188 -12.507812 6.859375 -12.75 C 7.097656 -13 7.335938 -13.273438 7.578125 -13.578125 C 7.816406 -13.890625 8.066406 -14.164062 8.328125 -14.40625 C 8.597656 -14.644531 8.882812 -14.765625 9.1875 -14.765625 C 9.394531 -14.765625 9.566406 -14.691406 9.703125 -14.546875 C 9.847656 -14.398438 9.921875 -14.175781 9.921875 -13.875 C 9.921875 -13.382812 9.742188 -12.929688 9.390625 -12.515625 C 9.035156 -12.109375 8.582031 -11.707031 8.03125 -11.3125 C 7.476562 -10.925781 6.882812 -10.515625 6.25 -10.078125 C 5.625 -9.640625 5.03125 -9.15625 4.46875 -8.625 C 3.914062 -8.09375 3.460938 -7.484375 3.109375 -6.796875 C 2.765625 -6.109375 2.59375 -5.296875 2.59375 -4.359375 Z M 2.59375 -4.359375 "/></g></g></g><g fill="#cba95c" fill-opacity="1"><g transform="translate(82.058687, 195.749987)"><g><path d="M 0.671875 -22.5 L 4.609375 -22.5 L 17.21875 -3.28125 L 17.21875 -13.09375 C 17.21875 -15.28125 17.035156 -17.046875 16.671875 -18.390625 C 16.304688 -19.734375 15.835938 -20.71875 15.265625 -21.34375 C 14.691406 -21.96875 14.082031 -22.28125 13.4375 -22.28125 L 13.4375 -22.5 L 19.5 -22.5 L 19.5 -22.28125 C 18.863281 -22.28125 18.394531 -22.082031 18.09375 -21.6875 C 17.800781 -21.300781 17.617188 -20.664062 17.546875 -19.78125 C 17.472656 -18.90625 17.4375 -17.726562 17.4375 -16.25 L 17.4375 0.453125 L 17.21875 0.453125 L 2.96875 -21.234375 L 2.96875 -9.40625 C 2.96875 -7.226562 3.144531 -5.460938 3.5 -4.109375 C 3.863281 -2.765625 4.332031 -1.78125 4.90625 -1.15625 C 5.488281 -0.53125 6.101562 -0.21875 6.75 -0.21875 L 6.75 0 L 0.671875 0 L 0.671875 -0.21875 C 1.316406 -0.21875 1.785156 -0.410156 2.078125 -0.796875 C 2.367188 -1.191406 2.550781 -1.832031 2.625 -2.71875 C 2.707031 -3.601562 2.75 -4.78125 2.75 -6.25 L 2.75 -16.25 C 2.75 -17.726562 2.707031 -18.90625 2.625 -19.78125 C 2.550781 -20.664062 2.367188 -21.300781 2.078125 -21.6875 C 1.785156 -22.082031 1.316406 -22.28125 0.671875 -22.28125 Z M 0.671875 -22.5 "/></g></g></g><g fill="#cba95c" fill-opacity="1"><g transform="translate(102.241166, 195.749987)"><g><path d="M 0.671875 -22.5 L 16.40625 -22.5 L 16.40625 -19.46875 L 16.171875 -19.46875 C 16.171875 -19.488281 16.175781 -19.492188 16.1875 -19.484375 C 16.195312 -19.484375 16.203125 -19.503906 16.203125 -19.546875 C 16.203125 -20.054688 15.910156 -20.515625 15.328125 -20.921875 C 14.753906 -21.328125 13.960938 -21.65625 12.953125 -21.90625 C 11.941406 -22.15625 10.789062 -22.28125 9.5 -22.28125 L 9.5 -6.25 C 9.5 -4.78125 9.519531 -3.601562 9.5625 -2.71875 C 9.601562 -1.832031 9.753906 -1.191406 10.015625 -0.796875 C 10.285156 -0.410156 10.742188 -0.21875 11.390625 -0.21875 L 11.390625 0 L 5.515625 0 L 5.515625 -0.21875 C 6.160156 -0.21875 6.628906 -0.410156 6.921875 -0.796875 C 7.210938 -1.191406 7.394531 -1.832031 7.46875 -2.71875 C 7.539062 -3.601562 7.578125 -4.78125 7.578125 -6.25 L 7.578125 -22.28125 C 6.285156 -22.28125 5.132812 -22.15625 4.125 -21.90625 C 3.113281 -21.65625 2.316406 -21.328125 1.734375 -20.921875 C 1.160156 -20.515625 0.875 -20.054688 0.875 -19.546875 C 0.875 -19.503906 0.878906 -19.484375 0.890625 -19.484375 C 0.898438 -19.492188 0.90625 -19.488281 0.90625 -19.46875 L 0.671875 -19.46875 Z M 0.671875 -22.5 "/></g></g></g><g fill="#cba95c" fill-opacity="1"><g transform="translate(119.318645, 195.749987)"><g><path d="M 6.75 0 L 0.671875 0 L 0.671875 -0.21875 C 1.316406 -0.21875 1.785156 -0.410156 2.078125 -0.796875 C 2.367188 -1.191406 2.550781 -1.832031 2.625 -2.71875 C 2.707031 -3.601562 2.75 -4.78125 2.75 -6.25 L 2.75 -16.25 C 2.75 -17.726562 2.707031 -18.90625 2.625 -19.78125 C 2.550781 -20.664062 2.367188 -21.300781 2.078125 -21.6875 C 1.785156 -22.082031 1.316406 -22.28125 0.671875 -22.28125 L 0.671875 -22.5 L 6.75 -22.5 L 6.75 -22.28125 C 6.101562 -22.28125 5.632812 -22.082031 5.34375 -21.6875 C 5.050781 -21.300781 4.867188 -20.664062 4.796875 -19.78125 C 4.722656 -18.90625 4.6875 -17.726562 4.6875 -16.25 L 4.6875 -12.3125 C 4.8125 -12.601562 5.109375 -12.894531 5.578125 -13.1875 C 6.046875 -13.488281 6.617188 -13.640625 7.296875 -13.640625 C 8.046875 -13.640625 8.753906 -13.519531 9.421875 -13.28125 C 10.097656 -13.050781 10.757812 -12.816406 11.40625 -12.578125 C 12.050781 -12.347656 12.703125 -12.234375 13.359375 -12.234375 C 13.796875 -12.234375 14.179688 -12.347656 14.515625 -12.578125 C 14.859375 -12.816406 15.03125 -13.128906 15.03125 -13.515625 L 15.25 -13.515625 C 15.25 -12.859375 14.988281 -12.28125 14.46875 -11.78125 C 13.957031 -11.289062 13.257812 -11.046875 12.375 -11.046875 C 11.6875 -11.046875 11.054688 -11.144531 10.484375 -11.34375 C 9.910156 -11.550781 9.375 -11.78125 8.875 -12.03125 C 8.382812 -12.289062 7.925781 -12.519531 7.5 -12.71875 C 7.070312 -12.925781 6.65625 -13.03125 6.25 -13.03125 C 5.664062 -13.03125 5.257812 -12.828125 5.03125 -12.421875 C 4.800781 -12.023438 4.6875 -11.566406 4.6875 -11.046875 L 4.6875 -6.25 C 4.6875 -4.78125 4.722656 -3.601562 4.796875 -2.71875 C 4.867188 -1.832031 5.050781 -1.191406 5.34375 -0.796875 C 5.632812 -0.410156 6.101562 -0.21875 6.75 -0.21875 Z M 13.859375 -22.28125 L 13.859375 -22.5 L 19.9375 -22.5 L 19.9375 -22.28125 C 19.289062 -22.28125 18.820312 -22.082031 18.53125 -21.6875 C 18.238281 -21.300781 18.050781 -20.664062 17.96875 -19.78125 C 17.894531 -18.90625 17.859375 -17.726562 17.859375 -16.25 L 17.859375 -6.25 C 17.859375 -4.78125 17.894531 -3.601562 17.96875 -2.71875 C 18.050781 -1.832031 18.238281 -1.191406 18.53125 -0.796875 C 18.820312 -0.410156 19.289062 -0.21875 19.9375 -0.21875 L 19.9375 0 L 13.859375 0 L 13.859375 -0.21875 C 14.503906 -0.21875 14.972656 -0.410156 15.265625 -0.796875 C 15.554688 -1.191406 15.738281 -1.832031 15.8125 -2.71875 C 15.894531 -3.601562 15.9375 -4.78125 15.9375 -6.25 L 15.9375 -16.25 C 15.9375 -17.726562 15.894531 -18.90625 15.8125 -19.78125 C 15.738281 -20.664062 15.554688 -21.300781 15.265625 -21.6875 C 14.972656 -22.082031 14.503906 -22.28125 13.859375 -22.28125 Z M 13.859375 -22.28125 "/></g></g></g><g fill="#cba95c" fill-opacity="1"><g transform="translate(139.928629, 195.749987)"><g/></g></g><g fill="#cba95c" fill-opacity="1"><g transform="translate(147.803617, 195.749987)"><g><path d="M 14.5625 -20.359375 C 14.5625 -20.785156 14.492188 -21.203125 14.359375 -21.609375 C 14.222656 -22.023438 14.023438 -22.320312 13.765625 -22.5 L 16 -22.5 C 16.207031 -22.300781 16.367188 -22.003906 16.484375 -21.609375 C 16.609375 -21.222656 16.671875 -20.820312 16.671875 -20.40625 C 16.671875 -19.414062 16.472656 -18.539062 16.078125 -17.78125 C 15.691406 -17.03125 15.171875 -16.375 14.515625 -15.8125 C 13.867188 -15.25 13.160156 -14.757812 12.390625 -14.34375 C 11.617188 -13.925781 10.84375 -13.566406 10.0625 -13.265625 C 9.289062 -12.972656 8.578125 -12.710938 7.921875 -12.484375 C 7.273438 -12.265625 6.753906 -12.054688 6.359375 -11.859375 C 5.972656 -11.660156 5.78125 -11.457031 5.78125 -11.25 C 5.78125 -11 5.921875 -10.800781 6.203125 -10.65625 C 6.492188 -10.507812 6.875 -10.375 7.34375 -10.25 C 7.820312 -10.125 8.332031 -9.957031 8.875 -9.75 C 9.425781 -9.550781 9.972656 -9.265625 10.515625 -8.890625 C 11.066406 -8.515625 11.5625 -8.003906 12 -7.359375 C 12.519531 -6.578125 13.046875 -5.765625 13.578125 -4.921875 C 14.109375 -4.085938 14.65625 -3.316406 15.21875 -2.609375 C 15.78125 -1.898438 16.351562 -1.320312 16.9375 -0.875 C 17.519531 -0.4375 18.132812 -0.21875 18.78125 -0.21875 L 18.78125 0 L 15.34375 0 C 15.09375 0 14.84375 -0.101562 14.59375 -0.3125 C 14.34375 -0.519531 14.035156 -0.875 13.671875 -1.375 C 13.316406 -1.882812 12.859375 -2.570312 12.296875 -3.4375 C 11.734375 -4.3125 11.007812 -5.414062 10.125 -6.75 C 9.625 -7.5 9.144531 -8.09375 8.6875 -8.53125 C 8.238281 -8.976562 7.820312 -9.328125 7.4375 -9.578125 C 7.050781 -9.835938 6.71875 -10.039062 6.4375 -10.1875 C 6.164062 -10.34375 5.953125 -10.492188 5.796875 -10.640625 C 5.640625 -10.796875 5.5625 -11 5.5625 -11.25 C 5.5625 -11.53125 5.722656 -11.796875 6.046875 -12.046875 C 6.367188 -12.304688 6.796875 -12.566406 7.328125 -12.828125 C 7.867188 -13.097656 8.457031 -13.390625 9.09375 -13.703125 C 9.738281 -14.015625 10.378906 -14.367188 11.015625 -14.765625 C 11.648438 -15.171875 12.238281 -15.632812 12.78125 -16.15625 C 13.320312 -16.675781 13.753906 -17.28125 14.078125 -17.96875 C 14.398438 -18.664062 14.5625 -19.460938 14.5625 -20.359375 Z M 0.671875 0 L 0.671875 -0.21875 C 1.316406 -0.21875 1.785156 -0.410156 2.078125 -0.796875 C 2.367188 -1.191406 2.550781 -1.832031 2.625 -2.71875 C 2.707031 -3.601562 2.75 -4.78125 2.75 -6.25 L 2.75 -16.25 C 2.75 -17.726562 2.707031 -18.90625 2.625 -19.78125 C 2.550781 -20.664062 2.367188 -21.300781 2.078125 -21.6875 C 1.785156 -22.082031 1.316406 -22.28125 0.671875 -22.28125 L 0.671875 -22.5 L 6.734375 -22.5 L 6.734375 -22.28125 C 6.085938 -22.28125 5.613281 -22.082031 5.3125 -21.6875 C 5.019531 -21.300781 4.835938 -20.664062 4.765625 -19.78125 C 4.691406 -18.90625 4.65625 -17.726562 4.65625 -16.25 L 4.65625 -6.25 C 4.65625 -4.78125 4.691406 -3.601562 4.765625 -2.71875 C 4.835938 -1.832031 5.019531 -1.191406 5.3125 -0.796875 C 5.613281 -0.410156 6.085938 -0.21875 6.734375 -0.21875 L 6.734375 0 Z M 0.671875 0 "/></g></g></g><g fill="#cba95c" fill-opacity="1"><g transform="translate(166.816098, 195.749987)"><g><path d="M 0.671875 -3.9375 C 0.671875 -4.863281 0.890625 -5.695312 1.328125 -6.4375 C 1.765625 -7.1875 2.320312 -7.863281 3 -8.46875 C 3.6875 -9.070312 4.410156 -9.625 5.171875 -10.125 C 5.941406 -10.632812 6.664062 -11.101562 7.34375 -11.53125 C 8.03125 -11.957031 8.585938 -12.363281 9.015625 -12.75 C 9.453125 -13.144531 9.671875 -13.535156 9.671875 -13.921875 C 9.671875 -14.140625 9.617188 -14.296875 9.515625 -14.390625 C 9.410156 -14.484375 9.285156 -14.53125 9.140625 -14.53125 C 8.867188 -14.53125 8.613281 -14.410156 8.375 -14.171875 C 8.144531 -13.929688 7.914062 -13.65625 7.6875 -13.34375 C 7.46875 -13.039062 7.222656 -12.769531 6.953125 -12.53125 C 6.691406 -12.289062 6.40625 -12.171875 6.09375 -12.171875 C 5.78125 -12.171875 5.585938 -12.296875 5.515625 -12.546875 C 5.453125 -12.804688 5.472656 -13.078125 5.578125 -13.359375 C 5.921875 -14.265625 6.234375 -15.101562 6.515625 -15.875 C 6.804688 -16.644531 7.085938 -17.394531 7.359375 -18.125 C 7.640625 -18.851562 7.925781 -19.609375 8.21875 -20.390625 C 8.507812 -21.171875 8.835938 -22.023438 9.203125 -22.953125 L 9.421875 -22.953125 L 16.625 -3.9375 C 17.125 -2.707031 17.585938 -1.78125 18.015625 -1.15625 C 18.453125 -0.53125 19.015625 -0.21875 19.703125 -0.21875 L 19.703125 0 L 12.328125 0 L 12.328125 -0.21875 C 13.117188 -0.21875 13.722656 -0.320312 14.140625 -0.53125 C 14.554688 -0.75 14.820312 -1.046875 14.9375 -1.421875 C 15.0625 -1.796875 15.078125 -2.226562 14.984375 -2.71875 C 14.890625 -3.21875 14.738281 -3.75 14.53125 -4.3125 L 11.75 -11.671875 C 11.832031 -10.953125 11.875 -10.054688 11.875 -8.984375 C 11.875 -7.160156 11.59375 -5.535156 11.03125 -4.109375 C 10.46875 -2.691406 9.65625 -1.578125 8.59375 -0.765625 C 7.539062 0.046875 6.265625 0.453125 4.765625 0.453125 C 3.898438 0.453125 3.160156 0.25 2.546875 -0.15625 C 1.941406 -0.5625 1.476562 -1.097656 1.15625 -1.765625 C 0.832031 -2.429688 0.671875 -3.15625 0.671875 -3.9375 Z M 2.59375 -4.359375 C 2.59375 -3.316406 2.90625 -2.429688 3.53125 -1.703125 C 4.164062 -0.984375 5.03125 -0.625 6.125 -0.625 C 7.0625 -0.625 7.875 -0.878906 8.5625 -1.390625 C 9.257812 -1.898438 9.835938 -2.566406 10.296875 -3.390625 C 10.753906 -4.222656 11.09375 -5.125 11.3125 -6.09375 C 11.539062 -7.070312 11.65625 -8.019531 11.65625 -8.9375 C 11.65625 -9.769531 11.628906 -10.515625 11.578125 -11.171875 C 11.523438 -11.835938 11.394531 -12.5 11.1875 -13.15625 L 8.453125 -20.34375 L 5.875 -13.453125 C 5.71875 -13.066406 5.671875 -12.789062 5.734375 -12.625 C 5.804688 -12.46875 5.9375 -12.390625 6.125 -12.390625 C 6.375 -12.390625 6.617188 -12.507812 6.859375 -12.75 C 7.097656 -13 7.335938 -13.273438 7.578125 -13.578125 C 7.816406 -13.890625 8.066406 -14.164062 8.328125 -14.40625 C 8.597656 -14.644531 8.882812 -14.765625 9.1875 -14.765625 C 9.394531 -14.765625 9.566406 -14.691406 9.703125 -14.546875 C 9.847656 -14.398438 9.921875 -14.175781 9.921875 -13.875 C 9.921875 -13.382812 9.742188 -12.929688 9.390625 -12.515625 C 9.035156 -12.109375 8.582031 -11.707031 8.03125 -11.3125 C 7.476562 -10.925781 6.882812 -10.515625 6.25 -10.078125 C 5.625 -9.640625 5.03125 -9.15625 4.46875 -8.625 C 3.914062 -8.09375 3.460938 -7.484375 3.109375 -6.796875 C 2.765625 -6.109375 2.59375 -5.296875 2.59375 -4.359375 Z M 2.59375 -4.359375 "/></g></g></g><g fill="#cba95c" fill-opacity="1"><g transform="translate(186.526072, 195.749987)"><g><path d="M 0.671875 0 L 0.671875 -0.21875 C 1.316406 -0.21875 1.785156 -0.410156 2.078125 -0.796875 C 2.367188 -1.191406 2.550781 -1.832031 2.625 -2.71875 C 2.707031 -3.601562 2.75 -4.78125 2.75 -6.25 L 2.75 -16.25 C 2.75 -17.726562 2.707031 -18.90625 2.625 -19.78125 C 2.550781 -20.664062 2.367188 -21.300781 2.078125 -21.6875 C 1.785156 -22.082031 1.316406 -22.28125 0.671875 -22.28125 L 0.671875 -22.5 L 3.375 -22.5 C 4.195312 -22.5 4.945312 -22.535156 5.625 -22.609375 C 6.3125 -22.679688 7.003906 -22.753906 7.703125 -22.828125 C 8.398438 -22.910156 9.1875 -22.953125 10.0625 -22.953125 C 11.664062 -22.953125 13.019531 -22.675781 14.125 -22.125 C 15.238281 -21.582031 16.082031 -20.835938 16.65625 -19.890625 C 17.238281 -18.941406 17.53125 -17.851562 17.53125 -16.625 C 17.53125 -15.601562 17.265625 -14.640625 16.734375 -13.734375 C 16.203125 -12.835938 15.453125 -12.113281 14.484375 -11.5625 C 13.523438 -11.019531 12.394531 -10.75 11.09375 -10.75 C 10.570312 -10.75 10.082031 -10.820312 9.625 -10.96875 C 9.175781 -11.113281 8.769531 -11.28125 8.40625 -11.46875 C 8.039062 -11.664062 7.707031 -11.832031 7.40625 -11.96875 C 7.101562 -12.113281 6.832031 -12.1875 6.59375 -12.1875 C 6.457031 -12.1875 6.3125 -12.15625 6.15625 -12.09375 C 6.007812 -12.03125 5.9375 -11.867188 5.9375 -11.609375 C 5.9375 -11.328125 6.101562 -11.070312 6.4375 -10.84375 C 6.769531 -10.613281 7.195312 -10.382812 7.71875 -10.15625 C 8.238281 -9.9375 8.800781 -9.691406 9.40625 -9.421875 C 10.007812 -9.148438 10.585938 -8.820312 11.140625 -8.4375 C 11.691406 -8.050781 12.148438 -7.570312 12.515625 -7 C 12.960938 -6.3125 13.425781 -5.570312 13.90625 -4.78125 C 14.382812 -3.988281 14.890625 -3.25 15.421875 -2.5625 C 15.953125 -1.875 16.507812 -1.3125 17.09375 -0.875 C 17.6875 -0.4375 18.300781 -0.21875 18.9375 -0.21875 L 18.9375 0 L 15.5 0 C 15.25 0 15 -0.101562 14.75 -0.3125 C 14.5 -0.519531 14.191406 -0.875 13.828125 -1.375 C 13.472656 -1.882812 13.015625 -2.570312 12.453125 -3.4375 C 11.890625 -4.3125 11.164062 -5.414062 10.28125 -6.75 C 9.738281 -7.570312 9.195312 -8.222656 8.65625 -8.703125 C 8.125 -9.179688 7.632812 -9.566406 7.1875 -9.859375 C 6.75 -10.160156 6.394531 -10.441406 6.125 -10.703125 C 5.851562 -10.960938 5.71875 -11.28125 5.71875 -11.65625 C 5.71875 -11.925781 5.796875 -12.117188 5.953125 -12.234375 C 6.117188 -12.359375 6.300781 -12.421875 6.5 -12.421875 C 6.832031 -12.421875 7.15625 -12.351562 7.46875 -12.21875 C 7.78125 -12.09375 8.101562 -11.941406 8.4375 -11.765625 C 8.78125 -11.597656 9.15625 -11.453125 9.5625 -11.328125 C 9.96875 -11.203125 10.429688 -11.140625 10.953125 -11.140625 C 11.660156 -11.140625 12.296875 -11.296875 12.859375 -11.609375 C 13.429688 -11.921875 13.921875 -12.335938 14.328125 -12.859375 C 14.734375 -13.378906 15.046875 -13.960938 15.265625 -14.609375 C 15.484375 -15.265625 15.59375 -15.929688 15.59375 -16.609375 C 15.59375 -17.847656 15.3125 -18.914062 14.75 -19.8125 C 14.195312 -20.71875 13.410156 -21.414062 12.390625 -21.90625 C 11.378906 -22.394531 10.175781 -22.640625 8.78125 -22.640625 C 7.945312 -22.640625 7.222656 -22.582031 6.609375 -22.46875 C 5.992188 -22.351562 5.34375 -22.171875 4.65625 -21.921875 L 4.65625 -6.25 C 4.65625 -4.78125 4.691406 -3.601562 4.765625 -2.71875 C 4.835938 -1.832031 5.019531 -1.191406 5.3125 -0.796875 C 5.613281 -0.410156 6.085938 -0.21875 6.734375 -0.21875 L 6.734375 0 Z M 0.671875 0 "/></g></g></g><g fill="#cba95c" fill-opacity="1"><g transform="translate(206.146062, 195.749987)"><g><path d="M 0.671875 -3.9375 C 0.671875 -4.863281 0.890625 -5.695312 1.328125 -6.4375 C 1.765625 -7.1875 2.320312 -7.863281 3 -8.46875 C 3.6875 -9.070312 4.410156 -9.625 5.171875 -10.125 C 5.941406 -10.632812 6.664062 -11.101562 7.34375 -11.53125 C 8.03125 -11.957031 8.585938 -12.363281 9.015625 -12.75 C 9.453125 -13.144531 9.671875 -13.535156 9.671875 -13.921875 C 9.671875 -14.140625 9.617188 -14.296875 9.515625 -14.390625 C 9.410156 -14.484375 9.285156 -14.53125 9.140625 -14.53125 C 8.867188 -14.53125 8.613281 -14.410156 8.375 -14.171875 C 8.144531 -13.929688 7.914062 -13.65625 7.6875 -13.34375 C 7.46875 -13.039062 7.222656 -12.769531 6.953125 -12.53125 C 6.691406 -12.289062 6.40625 -12.171875 6.09375 -12.171875 C 5.78125 -12.171875 5.585938 -12.296875 5.515625 -12.546875 C 5.453125 -12.804688 5.472656 -13.078125 5.578125 -13.359375 C 5.921875 -14.265625 6.234375 -15.101562 6.515625 -15.875 C 6.804688 -16.644531 7.085938 -17.394531 7.359375 -18.125 C 7.640625 -18.851562 7.925781 -19.609375 8.21875 -20.390625 C 8.507812 -21.171875 8.835938 -22.023438 9.203125 -22.953125 L 9.421875 -22.953125 L 16.625 -3.9375 C 17.125 -2.707031 17.585938 -1.78125 18.015625 -1.15625 C 18.453125 -0.53125 19.015625 -0.21875 19.703125 -0.21875 L 19.703125 0 L 12.328125 0 L 12.328125 -0.21875 C 13.117188 -0.21875 13.722656 -0.320312 14.140625 -0.53125 C 14.554688 -0.75 14.820312 -1.046875 14.9375 -1.421875 C 15.0625 -1.796875 15.078125 -2.226562 14.984375 -2.71875 C 14.890625 -3.21875 14.738281 -3.75 14.53125 -4.3125 L 11.75 -11.671875 C 11.832031 -10.953125 11.875 -10.054688 11.875 -8.984375 C 11.875 -7.160156 11.59375 -5.535156 11.03125 -4.109375 C 10.46875 -2.691406 9.65625 -1.578125 8.59375 -0.765625 C 7.539062 0.046875 6.265625 0.453125 4.765625 0.453125 C 3.898438 0.453125 3.160156 0.25 2.546875 -0.15625 C 1.941406 -0.5625 1.476562 -1.097656 1.15625 -1.765625 C 0.832031 -2.429688 0.671875 -3.15625 0.671875 -3.9375 Z M 2.59375 -4.359375 C 2.59375 -3.316406 2.90625 -2.429688 3.53125 -1.703125 C 4.164062 -0.984375 5.03125 -0.625 6.125 -0.625 C 7.0625 -0.625 7.875 -0.878906 8.5625 -1.390625 C 9.257812 -1.898438 9.835938 -2.566406 10.296875 -3.390625 C 10.753906 -4.222656 11.09375 -5.125 11.3125 -6.09375 C 11.539062 -7.070312 11.65625 -8.019531 11.65625 -8.9375 C 11.65625 -9.769531 11.628906 -10.515625 11.578125 -11.171875 C 11.523438 -11.835938 11.394531 -12.5 11.1875 -13.15625 L 8.453125 -20.34375 L 5.875 -13.453125 C 5.71875 -13.066406 5.671875 -12.789062 5.734375 -12.625 C 5.804688 -12.46875 5.9375 -12.390625 6.125 -12.390625 C 6.375 -12.390625 6.617188 -12.507812 6.859375 -12.75 C 7.097656 -13 7.335938 -13.273438 7.578125 -13.578125 C 7.816406 -13.890625 8.066406 -14.164062 8.328125 -14.40625 C 8.597656 -14.644531 8.882812 -14.765625 9.1875 -14.765625 C 9.394531 -14.765625 9.566406 -14.691406 9.703125 -14.546875 C 9.847656 -14.398438 9.921875 -14.175781 9.921875 -13.875 C 9.921875 -13.382812 9.742188 -12.929688 9.390625 -12.515625 C 9.035156 -12.109375 8.582031 -11.707031 8.03125 -11.3125 C 7.476562 -10.925781 6.882812 -10.515625 6.25 -10.078125 C 5.625 -9.640625 5.03125 -9.15625 4.46875 -8.625 C 3.914062 -8.09375 3.460938 -7.484375 3.109375 -6.796875 C 2.765625 -6.109375 2.59375 -5.296875 2.59375 -4.359375 Z M 2.59375 -4.359375 "/></g></g></g><g fill="#cba95c" fill-opacity="1"><g transform="translate(225.856037, 195.749987)"><g><path d="M 0.671875 -22.5 L 6.75 -22.5 L 6.75 -22.28125 C 6.101562 -22.28125 5.632812 -22.082031 5.34375 -21.6875 C 5.050781 -21.300781 4.867188 -20.664062 4.796875 -19.78125 C 4.722656 -18.90625 4.6875 -17.726562 4.6875 -16.25 L 4.6875 -0.21875 L 7.53125 -0.21875 C 7.894531 -0.21875 8.363281 -0.226562 8.9375 -0.25 C 9.519531 -0.28125 10.144531 -0.332031 10.8125 -0.40625 C 11.488281 -0.476562 12.160156 -0.59375 12.828125 -0.75 C 13.503906 -0.90625 14.125 -1.109375 14.6875 -1.359375 C 15.25 -1.617188 15.695312 -1.941406 16.03125 -2.328125 C 16.363281 -2.710938 16.53125 -3.175781 16.53125 -3.71875 L 16.765625 -3.71875 L 16.765625 0 L 0.671875 0 L 0.671875 -0.21875 C 1.316406 -0.21875 1.785156 -0.410156 2.078125 -0.796875 C 2.367188 -1.191406 2.550781 -1.832031 2.625 -2.71875 C 2.707031 -3.601562 2.75 -4.78125 2.75 -6.25 L 2.75 -16.25 C 2.75 -17.726562 2.707031 -18.90625 2.625 -19.78125 C 2.550781 -20.664062 2.367188 -21.300781 2.078125 -21.6875 C 1.785156 -22.082031 1.316406 -22.28125 0.671875 -22.28125 Z M 0.671875 -22.5 "/></g></g></g><g fill="#cba95c" fill-opacity="1"><g transform="translate(243.293536, 195.749987)"><g/></g></g><g fill="#cba95c" fill-opacity="1"><g transform="translate(251.168535, 195.749987)"><g><path d="M 0 -22.28125 L 0 -22.5 L 7.375 -22.5 L 7.375 -22.28125 C 6.582031 -22.28125 5.976562 -22.171875 5.5625 -21.953125 C 5.15625 -21.742188 4.890625 -21.453125 4.765625 -21.078125 C 4.648438 -20.703125 4.632812 -20.265625 4.71875 -19.765625 C 4.8125 -19.273438 4.960938 -18.75 5.171875 -18.1875 L 11.25 -2.15625 C 12.175781 -4.8125 13.140625 -7.46875 14.140625 -10.125 C 15.148438 -12.78125 16.09375 -15.441406 16.96875 -18.109375 C 17.113281 -18.554688 17.207031 -19.023438 17.25 -19.515625 C 17.300781 -20.003906 17.25 -20.453125 17.09375 -20.859375 C 16.945312 -21.273438 16.660156 -21.613281 16.234375 -21.875 C 15.816406 -22.144531 15.210938 -22.28125 14.421875 -22.28125 L 14.421875 -22.5 L 20.796875 -22.5 L 20.796875 -22.28125 C 20.097656 -22.28125 19.523438 -21.972656 19.078125 -21.359375 C 18.640625 -20.742188 18.179688 -19.8125 17.703125 -18.5625 L 10.5 0.453125 L 10.28125 0.453125 L 3.078125 -18.5625 C 2.585938 -19.8125 2.125 -20.742188 1.6875 -21.359375 C 1.25 -21.972656 0.6875 -22.28125 0 -22.28125 Z M 0 -22.28125 "/></g></g></g><g fill="#cba95c" fill-opacity="1"><g transform="translate(271.958512, 195.749987)"><g><path d="M 0.671875 -3.9375 C 0.671875 -4.863281 0.890625 -5.695312 1.328125 -6.4375 C 1.765625 -7.1875 2.320312 -7.863281 3 -8.46875 C 3.6875 -9.070312 4.410156 -9.625 5.171875 -10.125 C 5.941406 -10.632812 6.664062 -11.101562 7.34375 -11.53125 C 8.03125 -11.957031 8.585938 -12.363281 9.015625 -12.75 C 9.453125 -13.144531 9.671875 -13.535156 9.671875 -13.921875 C 9.671875 -14.140625 9.617188 -14.296875 9.515625 -14.390625 C 9.410156 -14.484375 9.285156 -14.53125 9.140625 -14.53125 C 8.867188 -14.53125 8.613281 -14.410156 8.375 -14.171875 C 8.144531 -13.929688 7.914062 -13.65625 7.6875 -13.34375 C 7.46875 -13.039062 7.222656 -12.769531 6.953125 -12.53125 C 6.691406 -12.289062 6.40625 -12.171875 6.09375 -12.171875 C 5.78125 -12.171875 5.585938 -12.296875 5.515625 -12.546875 C 5.453125 -12.804688 5.472656 -13.078125 5.578125 -13.359375 C 5.921875 -14.265625 6.234375 -15.101562 6.515625 -15.875 C 6.804688 -16.644531 7.085938 -17.394531 7.359375 -18.125 C 7.640625 -18.851562 7.925781 -19.609375 8.21875 -20.390625 C 8.507812 -21.171875 8.835938 -22.023438 9.203125 -22.953125 L 9.421875 -22.953125 L 16.625 -3.9375 C 17.125 -2.707031 17.585938 -1.78125 18.015625 -1.15625 C 18.453125 -0.53125 19.015625 -0.21875 19.703125 -0.21875 L 19.703125 0 L 12.328125 0 L 12.328125 -0.21875 C 13.117188 -0.21875 13.722656 -0.320312 14.140625 -0.53125 C 14.554688 -0.75 14.820312 -1.046875 14.9375 -1.421875 C 15.0625 -1.796875 15.078125 -2.226562 14.984375 -2.71875 C 14.890625 -3.21875 14.738281 -3.75 14.53125 -4.3125 L 11.75 -11.671875 C 11.832031 -10.953125 11.875 -10.054688 11.875 -8.984375 C 11.875 -7.160156 11.59375 -5.535156 11.03125 -4.109375 C 10.46875 -2.691406 9.65625 -1.578125 8.59375 -0.765625 C 7.539062 0.046875 6.265625 0.453125 4.765625 0.453125 C 3.898438 0.453125 3.160156 0.25 2.546875 -0.15625 C 1.941406 -0.5625 1.476562 -1.097656 1.15625 -1.765625 C 0.832031 -2.429688 0.671875 -3.15625 0.671875 -3.9375 Z M 2.59375 -4.359375 C 2.59375 -3.316406 2.90625 -2.429688 3.53125 -1.703125 C 4.164062 -0.984375 5.03125 -0.625 6.125 -0.625 C 7.0625 -0.625 7.875 -0.878906 8.5625 -1.390625 C 9.257812 -1.898438 9.835938 -2.566406 10.296875 -3.390625 C 10.753906 -4.222656 11.09375 -5.125 11.3125 -6.09375 C 11.539062 -7.070312 11.65625 -8.019531 11.65625 -8.9375 C 11.65625 -9.769531 11.628906 -10.515625 11.578125 -11.171875 C 11.523438 -11.835938 11.394531 -12.5 11.1875 -13.15625 L 8.453125 -20.34375 L 5.875 -13.453125 C 5.71875 -13.066406 5.671875 -12.789062 5.734375 -12.625 C 5.804688 -12.46875 5.9375 -12.390625 6.125 -12.390625 C 6.375 -12.390625 6.617188 -12.507812 6.859375 -12.75 C 7.097656 -13 7.335938 -13.273438 7.578125 -13.578125 C 7.816406 -13.890625 8.066406 -14.164062 8.328125 -14.40625 C 8.597656 -14.644531 8.882812 -14.765625 9.1875 -14.765625 C 9.394531 -14.765625 9.566406 -14.691406 9.703125 -14.546875 C 9.847656 -14.398438 9.921875 -14.175781 9.921875 -13.875 C 9.921875 -13.382812 9.742188 -12.929688 9.390625 -12.515625 C 9.035156 -12.109375 8.582031 -11.707031 8.03125 -11.3125 C 7.476562 -10.925781 6.882812 -10.515625 6.25 -10.078125 C 5.625 -9.640625 5.03125 -9.15625 4.46875 -8.625 C 3.914062 -8.09375 3.460938 -7.484375 3.109375 -6.796875 C 2.765625 -6.109375 2.59375 -5.296875 2.59375 -4.359375 Z M 2.59375 -4.359375 "/></g></g></g><g fill="#cba95c" fill-opacity="1"><g transform="translate(291.668487, 195.749987)"><g><path d="M 0.671875 0 L 0.671875 -0.21875 C 1.316406 -0.21875 1.785156 -0.410156 2.078125 -0.796875 C 2.367188 -1.191406 2.550781 -1.832031 2.625 -2.71875 C 2.707031 -3.601562 2.75 -4.78125 2.75 -6.25 L 2.75 -16.25 C 2.75 -17.726562 2.707031 -18.90625 2.625 -19.78125 C 2.550781 -20.664062 2.367188 -21.300781 2.078125 -21.6875 C 1.785156 -22.082031 1.316406 -22.28125 0.671875 -22.28125 L 0.671875 -22.5 L 3.375 -22.5 C 4.195312 -22.5 4.945312 -22.535156 5.625 -22.609375 C 6.3125 -22.679688 7.003906 -22.753906 7.703125 -22.828125 C 8.398438 -22.910156 9.1875 -22.953125 10.0625 -22.953125 C 11.664062 -22.953125 13.019531 -22.675781 14.125 -22.125 C 15.238281 -21.582031 16.082031 -20.835938 16.65625 -19.890625 C 17.238281 -18.941406 17.53125 -17.851562 17.53125 -16.625 C 17.53125 -15.601562 17.265625 -14.640625 16.734375 -13.734375 C 16.203125 -12.835938 15.453125 -12.113281 14.484375 -11.5625 C 13.523438 -11.019531 12.394531 -10.75 11.09375 -10.75 C 10.570312 -10.75 10.082031 -10.820312 9.625 -10.96875 C 9.175781 -11.113281 8.769531 -11.28125 8.40625 -11.46875 C 8.039062 -11.664062 7.707031 -11.832031 7.40625 -11.96875 C 7.101562 -12.113281 6.832031 -12.1875 6.59375 -12.1875 C 6.457031 -12.1875 6.3125 -12.15625 6.15625 -12.09375 C 6.007812 -12.03125 5.9375 -11.867188 5.9375 -11.609375 C 5.9375 -11.328125 6.101562 -11.070312 6.4375 -10.84375 C 6.769531 -10.613281 7.195312 -10.382812 7.71875 -10.15625 C 8.238281 -9.9375 8.800781 -9.691406 9.40625 -9.421875 C 10.007812 -9.148438 10.585938 -8.820312 11.140625 -8.4375 C 11.691406 -8.050781 12.148438 -7.570312 12.515625 -7 C 12.960938 -6.3125 13.425781 -5.570312 13.90625 -4.78125 C 14.382812 -3.988281 14.890625 -3.25 15.421875 -2.5625 C 15.953125 -1.875 16.507812 -1.3125 17.09375 -0.875 C 17.6875 -0.4375 18.300781 -0.21875 18.9375 -0.21875 L 18.9375 0 L 15.5 0 C 15.25 0 15 -0.101562 14.75 -0.3125 C 14.5 -0.519531 14.191406 -0.875 13.828125 -1.375 C 13.472656 -1.882812 13.015625 -2.570312 12.453125 -3.4375 C 11.890625 -4.3125 11.164062 -5.414062 10.28125 -6.75 C 9.738281 -7.570312 9.195312 -8.222656 8.65625 -8.703125 C 8.125 -9.179688 7.632812 -9.566406 7.1875 -9.859375 C 6.75 -10.160156 6.394531 -10.441406 6.125 -10.703125 C 5.851562 -10.960938 5.71875 -11.28125 5.71875 -11.65625 C 5.71875 -11.925781 5.796875 -12.117188 5.953125 -12.234375 C 6.117188 -12.359375 6.300781 -12.421875 6.5 -12.421875 C 6.832031 -12.421875 7.15625 -12.351562 7.46875 -12.21875 C 7.78125 -12.09375 8.101562 -11.941406 8.4375 -11.765625 C 8.78125 -11.597656 9.15625 -11.453125 9.5625 -11.328125 C 9.96875 -11.203125 10.429688 -11.140625 10.953125 -11.140625 C 11.660156 -11.140625 12.296875 -11.296875 12.859375 -11.609375 C 13.429688 -11.921875 13.921875 -12.335938 14.328125 -12.859375 C 14.734375 -13.378906 15.046875 -13.960938 15.265625 -14.609375 C 15.484375 -15.265625 15.59375 -15.929688 15.59375 -16.609375 C 15.59375 -17.847656 15.3125 -18.914062 14.75 -19.8125 C 14.195312 -20.71875 13.410156 -21.414062 12.390625 -21.90625 C 11.378906 -22.394531 10.175781 -22.640625 8.78125 -22.640625 C 7.945312 -22.640625 7.222656 -22.582031 6.609375 -22.46875 C 5.992188 -22.351562 5.34375 -22.171875 4.65625 -21.921875 L 4.65625 -6.25 C 4.65625 -4.78125 4.691406 -3.601562 4.765625 -2.71875 C 4.835938 -1.832031 5.019531 -1.191406 5.3125 -0.796875 C 5.613281 -0.410156 6.085938 -0.21875 6.734375 -0.21875 L 6.734375 0 Z M 0.671875 0 "/></g></g></g><g fill="#cba95c" fill-opacity="1"><g transform="translate(311.288465, 195.749987)"><g><path d="M 0.671875 -22.5 L 4.296875 -22.5 L 12.9375 -4.359375 L 19.6875 -22.5 L 23.640625 -22.5 L 23.640625 -22.28125 C 23.003906 -22.28125 22.535156 -22.082031 22.234375 -21.6875 C 21.941406 -21.300781 21.757812 -20.664062 21.6875 -19.78125 C 21.613281 -18.90625 21.578125 -17.726562 21.578125 -16.25 L 21.578125 -6.25 C 21.578125 -4.78125 21.613281 -3.601562 21.6875 -2.71875 C 21.757812 -1.832031 21.941406 -1.191406 22.234375 -0.796875 C 22.535156 -0.410156 23.003906 -0.21875 23.640625 -0.21875 L 23.640625 0 L 17.578125 0 L 17.578125 -0.21875 C 18.222656 -0.21875 18.691406 -0.410156 18.984375 -0.796875 C 19.273438 -1.191406 19.457031 -1.832031 19.53125 -2.71875 C 19.601562 -3.601562 19.640625 -4.78125 19.640625 -6.25 L 19.640625 -21.75 C 18.828125 -19.59375 18.023438 -17.441406 17.234375 -15.296875 C 16.441406 -13.148438 15.628906 -10.957031 14.796875 -8.71875 C 13.972656 -6.476562 13.097656 -4.117188 12.171875 -1.640625 L 11.96875 -1.640625 C 11.257812 -3.160156 10.601562 -4.566406 10 -5.859375 C 9.394531 -7.160156 8.816406 -8.398438 8.265625 -9.578125 C 7.722656 -10.765625 7.171875 -11.945312 6.609375 -13.125 C 6.054688 -14.300781 5.488281 -15.523438 4.90625 -16.796875 C 4.320312 -18.066406 3.6875 -19.4375 3 -20.90625 L 2.96875 -11.25 L 2.96875 -8.390625 C 2.96875 -6.753906 3.070312 -5.40625 3.28125 -4.34375 C 3.488281 -3.28125 3.773438 -2.445312 4.140625 -1.84375 C 4.503906 -1.238281 4.910156 -0.816406 5.359375 -0.578125 C 5.804688 -0.335938 6.269531 -0.21875 6.75 -0.21875 L 6.75 0 L 0.671875 0 L 0.671875 -0.21875 C 1.316406 -0.21875 1.785156 -0.410156 2.078125 -0.796875 C 2.367188 -1.191406 2.550781 -1.832031 2.625 -2.71875 C 2.707031 -3.601562 2.75 -4.78125 2.75 -6.25 L 2.75 -16.25 C 2.75 -17.726562 2.707031 -18.90625 2.625 -19.78125 C 2.550781 -20.664062 2.367188 -21.300781 2.078125 -21.6875 C 1.785156 -22.082031 1.316406 -22.28125 0.671875 -22.28125 Z M 0.671875 -22.5 "/></g></g></g><g fill="#cba95c" fill-opacity="1"><g transform="translate(335.610935, 195.749987)"><g><path d="M 0.671875 -3.9375 C 0.671875 -4.863281 0.890625 -5.695312 1.328125 -6.4375 C 1.765625 -7.1875 2.320312 -7.863281 3 -8.46875 C 3.6875 -9.070312 4.410156 -9.625 5.171875 -10.125 C 5.941406 -10.632812 6.664062 -11.101562 7.34375 -11.53125 C 8.03125 -11.957031 8.585938 -12.363281 9.015625 -12.75 C 9.453125 -13.144531 9.671875 -13.535156 9.671875 -13.921875 C 9.671875 -14.140625 9.617188 -14.296875 9.515625 -14.390625 C 9.410156 -14.484375 9.285156 -14.53125 9.140625 -14.53125 C 8.867188 -14.53125 8.613281 -14.410156 8.375 -14.171875 C 8.144531 -13.929688 7.914062 -13.65625 7.6875 -13.34375 C 7.46875 -13.039062 7.222656 -12.769531 6.953125 -12.53125 C 6.691406 -12.289062 6.40625 -12.171875 6.09375 -12.171875 C 5.78125 -12.171875 5.585938 -12.296875 5.515625 -12.546875 C 5.453125 -12.804688 5.472656 -13.078125 5.578125 -13.359375 C 5.921875 -14.265625 6.234375 -15.101562 6.515625 -15.875 C 6.804688 -16.644531 7.085938 -17.394531 7.359375 -18.125 C 7.640625 -18.851562 7.925781 -19.609375 8.21875 -20.390625 C 8.507812 -21.171875 8.835938 -22.023438 9.203125 -22.953125 L 9.421875 -22.953125 L 16.625 -3.9375 C 17.125 -2.707031 17.585938 -1.78125 18.015625 -1.15625 C 18.453125 -0.53125 19.015625 -0.21875 19.703125 -0.21875 L 19.703125 0 L 12.328125 0 L 12.328125 -0.21875 C 13.117188 -0.21875 13.722656 -0.320312 14.140625 -0.53125 C 14.554688 -0.75 14.820312 -1.046875 14.9375 -1.421875 C 15.0625 -1.796875 15.078125 -2.226562 14.984375 -2.71875 C 14.890625 -3.21875 14.738281 -3.75 14.53125 -4.3125 L 11.75 -11.671875 C 11.832031 -10.953125 11.875 -10.054688 11.875 -8.984375 C 11.875 -7.160156 11.59375 -5.535156 11.03125 -4.109375 C 10.46875 -2.691406 9.65625 -1.578125 8.59375 -0.765625 C 7.539062 0.046875 6.265625 0.453125 4.765625 0.453125 C 3.898438 0.453125 3.160156 0.25 2.546875 -0.15625 C 1.941406 -0.5625 1.476562 -1.097656 1.15625 -1.765625 C 0.832031 -2.429688 0.671875 -3.15625 0.671875 -3.9375 Z M 2.59375 -4.359375 C 2.59375 -3.316406 2.90625 -2.429688 3.53125 -1.703125 C 4.164062 -0.984375 5.03125 -0.625 6.125 -0.625 C 7.0625 -0.625 7.875 -0.878906 8.5625 -1.390625 C 9.257812 -1.898438 9.835938 -2.566406 10.296875 -3.390625 C 10.753906 -4.222656 11.09375 -5.125 11.3125 -6.09375 C 11.539062 -7.070312 11.65625 -8.019531 11.65625 -8.9375 C 11.65625 -9.769531 11.628906 -10.515625 11.578125 -11.171875 C 11.523438 -11.835938 11.394531 -12.5 11.1875 -13.15625 L 8.453125 -20.34375 L 5.875 -13.453125 C 5.71875 -13.066406 5.671875 -12.789062 5.734375 -12.625 C 5.804688 -12.46875 5.9375 -12.390625 6.125 -12.390625 C 6.375 -12.390625 6.617188 -12.507812 6.859375 -12.75 C 7.097656 -13 7.335938 -13.273438 7.578125 -13.578125 C 7.816406 -13.890625 8.066406 -14.164062 8.328125 -14.40625 C 8.597656 -14.644531 8.882812 -14.765625 9.1875 -14.765625 C 9.394531 -14.765625 9.566406 -14.691406 9.703125 -14.546875 C 9.847656 -14.398438 9.921875 -14.175781 9.921875 -13.875 C 9.921875 -13.382812 9.742188 -12.929688 9.390625 -12.515625 C 9.035156 -12.109375 8.582031 -11.707031 8.03125 -11.3125 C 7.476562 -10.925781 6.882812 -10.515625 6.25 -10.078125 C 5.625 -9.640625 5.03125 -9.15625 4.46875 -8.625 C 3.914062 -8.09375 3.460938 -7.484375 3.109375 -6.796875 C 2.765625 -6.109375 2.59375 -5.296875 2.59375 -4.359375 Z M 2.59375 -4.359375 "/></g></g></g><g fill="#cba95c" fill-opacity="1"><g transform="translate(355.32091, 195.749987)"><g><path d="M 0.671875 -3.9375 C 0.671875 -4.863281 0.890625 -5.695312 1.328125 -6.4375 C 1.765625 -7.1875 2.320312 -7.863281 3 -8.46875 C 3.6875 -9.070312 4.410156 -9.625 5.171875 -10.125 C 5.941406 -10.632812 6.664062 -11.101562 7.34375 -11.53125 C 8.03125 -11.957031 8.585938 -12.363281 9.015625 -12.75 C 9.453125 -13.144531 9.671875 -13.535156 9.671875 -13.921875 C 9.671875 -14.140625 9.617188 -14.296875 9.515625 -14.390625 C 9.410156 -14.484375 9.285156 -14.53125 9.140625 -14.53125 C 8.867188 -14.53125 8.613281 -14.410156 8.375 -14.171875 C 8.144531 -13.929688 7.914062 -13.65625 7.6875 -13.34375 C 7.46875 -13.039062 7.222656 -12.769531 6.953125 -12.53125 C 6.691406 -12.289062 6.40625 -12.171875 6.09375 -12.171875 C 5.78125 -12.171875 5.585938 -12.296875 5.515625 -12.546875 C 5.453125 -12.804688 5.472656 -13.078125 5.578125 -13.359375 C 5.921875 -14.265625 6.234375 -15.101562 6.515625 -15.875 C 6.804688 -16.644531 7.085938 -17.394531 7.359375 -18.125 C 7.640625 -18.851562 7.925781 -19.609375 8.21875 -20.390625 C 8.507812 -21.171875 8.835938 -22.023438 9.203125 -22.953125 L 9.421875 -22.953125 L 16.625 -3.9375 C 17.125 -2.707031 17.585938 -1.78125 18.015625 -1.15625 C 18.453125 -0.53125 19.015625 -0.21875 19.703125 -0.21875 L 19.703125 0 L 12.328125 0 L 12.328125 -0.21875 C 13.117188 -0.21875 13.722656 -0.320312 14.140625 -0.53125 C 14.554688 -0.75 14.820312 -1.046875 14.9375 -1.421875 C 15.0625 -1.796875 15.078125 -2.226562 14.984375 -2.71875 C 14.890625 -3.21875 14.738281 -3.75 14.53125 -4.3125 L 11.75 -11.671875 C 11.832031 -10.953125 11.875 -10.054688 11.875 -8.984375 C 11.875 -7.160156 11.59375 -5.535156 11.03125 -4.109375 C 10.46875 -2.691406 9.65625 -1.578125 8.59375 -0.765625 C 7.539062 0.046875 6.265625 0.453125 4.765625 0.453125 C 3.898438 0.453125 3.160156 0.25 2.546875 -0.15625 C 1.941406 -0.5625 1.476562 -1.097656 1.15625 -1.765625 C 0.832031 -2.429688 0.671875 -3.15625 0.671875 -3.9375 Z M 2.59375 -4.359375 C 2.59375 -3.316406 2.90625 -2.429688 3.53125 -1.703125 C 4.164062 -0.984375 5.03125 -0.625 6.125 -0.625 C 7.0625 -0.625 7.875 -0.878906 8.5625 -1.390625 C 9.257812 -1.898438 9.835938 -2.566406 10.296875 -3.390625 C 10.753906 -4.222656 11.09375 -5.125 11.3125 -6.09375 C 11.539062 -7.070312 11.65625 -8.019531 11.65625 -8.9375 C 11.65625 -9.769531 11.628906 -10.515625 11.578125 -11.171875 C 11.523438 -11.835938 11.394531 -12.5 11.1875 -13.15625 L 8.453125 -20.34375 L 5.875 -13.453125 C 5.71875 -13.066406 5.671875 -12.789062 5.734375 -12.625 C 5.804688 -12.46875 5.9375 -12.390625 6.125 -12.390625 C 6.375 -12.390625 6.617188 -12.507812 6.859375 -12.75 C 7.097656 -13 7.335938 -13.273438 7.578125 -13.578125 C 7.816406 -13.890625 8.066406 -14.164062 8.328125 -14.40625 C 8.597656 -14.644531 8.882812 -14.765625 9.1875 -14.765625 C 9.394531 -14.765625 9.566406 -14.691406 9.703125 -14.546875 C 9.847656 -14.398438 9.921875 -14.175781 9.921875 -13.875 C 9.921875 -13.382812 9.742188 -12.929688 9.390625 -12.515625 C 9.035156 -12.109375 8.582031 -11.707031 8.03125 -11.3125 C 7.476562 -10.925781 6.882812 -10.515625 6.25 -10.078125 C 5.625 -9.640625 5.03125 -9.15625 4.46875 -8.625 C 3.914062 -8.09375 3.460938 -7.484375 3.109375 -6.796875 C 2.765625 -6.109375 2.59375 -5.296875 2.59375 -4.359375 Z M 2.59375 -4.359375 "/></g></g></g></svg>