<?xml version="1.0" encoding="UTF-8"?>
<svg version="1.1" xmlns="http://www.w3.org/2000/svg" width="1080" height="1080">
<path d="M0 0 C13.53 0 27.06 0 41 0 C41 155.1 41 310.2 41 470 C27.47 470 13.94 470 0 470 C-0.33 379.58 -0.66 289.16 -1 196 C-10.57 191.05 -20.14 186.1 -30 181 C-47.69491525 171.74576271 -47.69491525 171.74576271 -56 167 C-56.33 228.05 -56.66 289.1 -57 352 C-70.2 352 -83.4 352 -97 352 C-97 268.84 -97 185.68 -97 100 C-92.79301991 101.4023267 -89.45303023 102.66894441 -85.61328125 104.6875 C-84.0977063 105.48003174 -84.0977063 105.48003174 -82.55151367 106.28857422 C-81.48263916 106.85334473 -80.41376465 107.41811523 -79.3125 108 C-78.19399658 108.58668457 -77.07549316 109.17336914 -75.9230957 109.77783203 C-73.65896464 110.96614072 -71.39584908 112.15638642 -69.13378906 113.34863281 C-66.46406032 114.75546089 -63.7916982 116.15698165 -61.1171875 117.5546875 C-54.13474007 121.20907389 -47.17418 124.90190143 -40.234375 128.63671875 C-39.33468742 129.12050995 -39.33468742 129.12050995 -38.41682434 129.61407471 C-35.46635323 131.20072176 -32.51733811 132.78987313 -29.57104492 134.38427734 C-20.13422663 139.46548263 -10.60171705 144.19914147 -1 149 C-0.67 99.83 -0.34 50.66 0 0 Z " fill="#D92226" transform="translate(409,305)"/>
<path d="M0 0 C13.2 0 26.4 0 40 0 C40.33 49.5 40.66 99 41 150 C54.85316063 142.79635647 68.60241715 135.60583602 82.2734375 128.09765625 C89.7556653 124.02108695 97.33968432 120.14172385 104.91503906 116.24194336 C113.50346091 111.80855101 122.00614841 107.23412366 130.46289062 102.5546875 C131.31302734 102.08546875 132.16316406 101.61625 133.0390625 101.1328125 C133.78365723 100.71918457 134.52825195 100.30555664 135.29541016 99.87939453 C137 99 137 99 138 99 C138 182.49 138 265.98 138 352 C124.8 352 111.6 352 98 352 C96.08152666 350.08152666 96.84536741 346.50836955 96.84178162 343.89439392 C96.83684364 343.14216586 96.83190566 342.3899378 96.82681805 341.61491495 C96.81136737 339.07522885 96.80306208 336.53556817 96.79467773 333.99584961 C96.78510515 332.18291497 96.77509544 330.3699826 96.76467896 328.55705261 C96.73755667 323.61926719 96.71658689 318.68147213 96.69667697 313.74365306 C96.67486243 308.58930233 96.64745164 303.43498153 96.62062073 298.28065491 C96.57063236 288.51298077 96.52571641 278.74529008 96.48259836 268.97758347 C96.43327838 257.86046063 96.37834088 246.74336782 96.32291877 235.62627399 C96.20900445 212.75087731 96.10218609 189.87545186 96 167 C95.36710304 167.34584137 94.73420609 167.69168274 94.08213043 168.04800415 C91.18848629 169.62885012 88.29444201 171.2089622 85.40039062 172.7890625 C83.90696136 173.60515991 83.90696136 173.60515991 82.38336182 174.43774414 C75.79292615 178.03513458 69.17787025 181.5674681 62.5 185 C54.98993841 188.88856583 47.5358464 192.86313856 40.125 196.9375 C31.25819575 201.81105284 22.30599084 206.50081697 13.31689453 211.14428711 C6.49565565 214.6771472 -0.26938068 218.29767094 -7 222 C-15.82466419 226.8542057 -24.73556763 231.52229935 -33.68359375 236.14453125 C-40.50473309 239.67735867 -47.26816545 243.30018178 -54 247 C-56.69449539 248.4705803 -59.3900191 249.93925675 -62.0859375 251.40722656 C-64.15668259 252.53905808 -66.22404957 253.67707967 -68.2890625 254.81933594 C-71.6823893 256.69088321 -75.08952307 258.53492873 -78.5 260.375 C-79.55703125 260.96539063 -80.6140625 261.55578125 -81.703125 262.1640625 C-82.69828125 262.69515625 -83.6934375 263.22625 -84.71875 263.7734375 C-85.59466797 264.25216309 -86.47058594 264.73088867 -87.37304688 265.22412109 C-93.09639827 266.91453101 -98.57022408 262.82841376 -103.57421875 260.21875 C-104.29163742 259.84889481 -105.00905609 259.47903961 -105.74821472 259.09797668 C-108.06353628 257.90290195 -110.37557514 256.70163067 -112.6875 255.5 C-114.28061069 254.67573342 -115.87387292 253.85175967 -117.46728516 253.02807617 C-128.33835715 247.40334171 -139.19701752 241.75460201 -150 236 C-150.66193359 235.6484082 -151.32386719 235.29681641 -152.00585938 234.93457031 C-162.80742887 229.19257113 -162.80742887 229.19257113 -164 228 C-164.0927833 226.61839885 -164.11747043 225.23211962 -164.11352539 223.84741211 C-164.11341209 222.52615578 -164.11341209 222.52615578 -164.11329651 221.1782074 C-164.10813522 220.22092239 -164.10297394 219.26363739 -164.09765625 218.27734375 C-164.0962413 217.30213272 -164.09482635 216.32692169 -164.09336853 215.32215881 C-164.08775133 212.19390857 -164.07519593 209.06572877 -164.0625 205.9375 C-164.05748722 203.82226666 -164.05292393 201.70703219 -164.04882812 199.59179688 C-164.03777631 194.39450704 -164.02102146 189.19725855 -164 184 C-160.1302954 184.52439436 -157.04903313 185.23520108 -153.61328125 187.08984375 C-152.77418213 187.53585937 -151.93508301 187.981875 -151.07055664 188.44140625 C-150.16039795 188.93511719 -149.25023926 189.42882812 -148.3125 189.9375 C-146.27679676 191.0209512 -144.24028147 192.10287746 -142.203125 193.18359375 C-141.07455078 193.78413574 -139.94597656 194.38467773 -138.78320312 195.00341797 C-132.18960516 198.49547706 -125.5445144 201.88917943 -118.90682983 205.29641724 C-116.59849832 206.4815184 -114.29097963 207.66818865 -111.98364258 208.85522461 C-110.5320978 209.60146587 -109.08052043 210.34764374 -107.62890625 211.09375 C-106.977547 211.42879044 -106.32618774 211.76383087 -105.65509033 212.10902405 C-104.40542673 212.75061483 -103.15382881 213.38845422 -101.900177 214.0222168 C-100.55161947 214.71615052 -99.21510642 215.43371729 -97.88766479 216.16723633 C-97.18988922 216.54323975 -96.49211365 216.91924316 -95.77319336 217.30664062 C-95.14593857 217.65424438 -94.51868378 218.00184814 -93.87242126 218.35998535 C-90.42835819 219.53720485 -88.036592 218.0173212 -84.86572266 216.51635742 C-83.62955787 215.88382695 -82.39581273 215.2465534 -81.1640625 214.60546875 C-80.49713379 214.26222565 -79.83020508 213.91898254 -79.14306641 213.56533813 C-76.96800569 212.44391686 -74.79639481 211.31600108 -72.625 210.1875 C-71.11510811 209.40642359 -69.60517947 208.6254182 -68.09521484 207.84448242 C-59.02875012 203.14526857 -50.02367361 198.34729826 -41.0847168 193.40917969 C-32.44741147 188.65247411 -23.68898647 184.13465237 -14.91845703 179.63012695 C-13.83032715 179.070271 -12.74219727 178.51041504 -11.62109375 177.93359375 C-10.6561499 177.43915771 -9.69120605 176.94472168 -8.69702148 176.43530273 C-7.80700439 175.96165283 -6.9169873 175.48800293 -6 175 C-5.13255818 174.61751445 -4.26511637 174.2350289 -3.37138844 173.84095287 C-0.6904521 172.17116022 -0.6904521 172.17116022 -0.36914349 168.94466877 C-0.36637811 167.679047 -0.36361273 166.41342524 -0.36076355 165.10945129 C-0.35240787 164.40451701 -0.3440522 163.69958273 -0.33544332 162.97328681 C-0.31345116 160.60514597 -0.3271378 158.23854674 -0.34057617 155.87036133 C-0.33212651 154.17534707 -0.32148404 152.48034253 -0.30880737 150.78535461 C-0.28058859 146.17810654 -0.28314536 141.57132286 -0.29110122 136.96401429 C-0.29421988 132.15128811 -0.26921077 127.3387115 -0.24714661 122.52604675 C-0.20964704 113.41005012 -0.19755512 104.29420267 -0.1945222 95.17813653 C-0.18983778 84.80092507 -0.15693427 74.42386366 -0.12162435 64.04671824 C-0.04961525 42.69779246 -0.01688666 21.34904545 0 0 Z " fill="#D92226" transform="translate(631,305)"/>
<path d="M0 0 C0 83.16 0 166.32 0 252 C-13.2 252 -26.4 252 -40 252 C-40 175.77 -40 99.54 -40 21 C-1.5 0 -1.5 0 0 0 Z " fill="#D82226" transform="translate(671,523)"/>
</svg>
